SplineFontDB: 3.0
FontName: PedanticDevanagari
FullName: Pedantic Devanagari
FamilyName: Pedantic Indic
Weight: Book
Copyright: Based on Sanskrit2003 by Omkarananda Ashram Himalayas, Rishikesh, India.
Version: 1.0
ItalicAngle: 0
UnderlinePosition: -975
UnderlineWidth: 110
Ascent: 1638
Descent: 410
InvalidEm: 0
sfntRevision: 0x00010000
woffMajor: 1
woffMinor: 0
LayerCount: 2
Layer: 0 1 "Back" 1
Layer: 1 1 "Fore" 0
XUID: [1021 231 -1607738659 2380252]
StyleMap: 0x0040
FSType: 0
OS2Version: 0
OS2_WeightWidthSlopeOnly: 0
OS2_UseTypoMetrics: 0
CreationTime: 1413885204
ModificationTime: 1514537766
PfmFamily: 81
TTFWeight: 400
TTFWidth: 5
LineGap: 51
VLineGap: 0
Panose: 0 0 0 0 0 0 0 0 0 0
OS2TypoAscent: 2200
OS2TypoAOffset: 0
OS2TypoDescent: -1000
OS2TypoDOffset: 0
OS2TypoLinegap: 101
OS2WinAscent: 2200
OS2WinAOffset: 0
OS2WinDescent: 1000
OS2WinDOffset: 0
HheadAscent: 2200
HheadAOffset: 0
HheadDescent: -1000
HheadDOffset: 0
OS2SubXSize: 1434
OS2SubYSize: 1331
OS2SubXOff: 0
OS2SubYOff: 293
OS2SupXSize: 1434
OS2SupYSize: 1331
OS2SupXOff: 0
OS2SupYOff: 928
OS2StrikeYSize: 102
OS2StrikeYPos: 512
OS2CapHeight: 1417
OS2XHeight: 961
OS2Vendor: 'OAH '
OS2CodePages: 00000001.00000000
OS2UnicodeRanges: a00080ef.1000204a.00000000.00000000
Lookup: 4 0 0 "Required Feature lookup 33" { "consonants"  "vowels"  } [' RQD' ('DFLT' <'dflt' > 'deva' <'dflt' > 'latn' <'dflt' > ) ]
Lookup: 1 0 0 "'aalt' Access All Alternates lookup 1" { "'aalt' Access All Alternates lookup 1 subtable"  } ['aalt' ('DFLT' <'dflt' > 'deva' <'dflt' > 'latn' <'dflt' > ) ]
Lookup: 4 0 0 "'psts' Post Base Substitutions in Devanagari lookup 2" { "'psts' Post Base Substitutions in Devanagari lookup 2 subtable"  } ['abvm' ('deva' <'dflt' > ) 'nukt' ('deva' <'dflt' > ) 'psts' ('deva' <'dflt' > ) ]
Lookup: 4 0 0 "'akhn' Akhand in Devanagari lookup 3" { "'akhn' Akhand in Devanagari lookup 3 subtable"  } ['akhn' ('deva' <'dflt' > ) ]

StartChar: exclam
Encoding: 1 33 3
Width: 569
GlyphClass: 2
Flags: W
LayerCount: 2
Fore
SplineSet
283 227 m 256,0,1
 236 227 236 227 201 191.5 c 128,-1,2
 166 156 166 156 166 109 c 0,3,4
 166 61 166 61 201 25.5 c 128,-1,5
 236 -10 236 -10 281 -10 c 0,6,7
 330 -10 330 -10 366.5 25.5 c 128,-1,8
 403 61 403 61 403 109 c 0,9,10
 403 156 403 156 366.5 191.5 c 128,-1,11
 330 227 330 227 283 227 c 256,0,1
328 1421 m 1,12,-1
 174 1343 l 1,13,14
 178 1262 178 1262 181 1216.5 c 128,-1,15
 184 1171 184 1171 188 1126 c 2,16,-1
 242 502 l 1,17,-1
 246 455 l 1,18,-1
 246 440 l 1,19,-1
 246 420 l 1,20,-1
 266 410 l 1,21,-1
 324 457 l 1,22,-1
 324 508 l 1,23,-1
 373 1077 l 2,24,25
 375 1102 375 1102 377 1118.5 c 128,-1,26
 379 1135 379 1135 383 1176 c 0,27,28
 391 1239 391 1239 394 1287 c 128,-1,29
 397 1335 397 1335 397 1370 c 2,30,-1
 397 1421 l 1,31,-1
 328 1421 l 1,12,-1
EndSplineSet
Validated: 9
EndChar

StartChar: quotedbl
Encoding: 2 34 4
Width: 760
GlyphClass: 2
Flags: W
LayerCount: 2
Fore
SplineSet
215 961 m 1,0,-1
 281 1362 l 2,1,2
 283 1366 283 1366 283 1374 c 0,3,4
 283 1403 283 1403 255 1427.5 c 128,-1,5
 227 1452 227 1452 195 1452 c 0,6,7
 162 1452 162 1452 134 1426.5 c 128,-1,8
 106 1401 106 1401 106 1372 c 2,9,-1
 106 1362 l 1,10,-1
 174 961 l 1,11,-1
 215 961 l 1,0,-1
586 961 m 1,12,-1
 651 1362 l 2,13,14
 653 1366 653 1366 653 1372 c 0,15,16
 653 1401 653 1401 625.5 1426.5 c 128,-1,17
 598 1452 598 1452 565 1452 c 0,18,19
 530 1452 530 1452 503.5 1427.5 c 128,-1,20
 477 1403 477 1403 477 1372 c 2,21,-1
 477 1362 l 1,22,-1
 545 961 l 1,23,-1
 586 961 l 1,12,-1
EndSplineSet
Validated: 9
EndChar

StartChar: numbersign
Encoding: 3 35 5
Width: 1024
GlyphClass: 2
Flags: W
LayerCount: 2
Fore
SplineSet
963 573 m 1,0,-1
 758 573 l 1,1,-1
 799 858 l 1,2,-1
 1014 858 l 1,3,-1
 1014 973 l 1,4,-1
 815 973 l 1,5,-1
 877 1401 l 1,6,-1
 758 1401 l 1,7,-1
 696 973 l 1,8,-1
 424 973 l 1,9,-1
 487 1401 l 1,10,-1
 369 1401 l 1,11,-1
 305 973 l 1,12,-1
 63 973 l 1,13,-1
 63 858 l 1,14,-1
 289 858 l 1,15,-1
 246 573 l 1,16,-1
 8 573 l 1,17,-1
 8 459 l 1,18,-1
 227 459 l 1,19,-1
 160 0 l 1,20,-1
 279 0 l 1,21,-1
 346 459 l 1,22,-1
 621 459 l 1,23,-1
 557 0 l 1,24,-1
 676 0 l 1,25,-1
 739 459 l 1,26,-1
 963 459 l 1,27,-1
 963 573 l 1,0,-1
680 858 m 1,28,-1
 639 573 l 1,29,-1
 365 573 l 1,30,-1
 408 858 l 1,31,-1
 680 858 l 1,28,-1
EndSplineSet
Validated: 9
EndChar

StartChar: ampersand
Encoding: 4 38 6
Width: 1593
GlyphClass: 2
Flags: W
LayerCount: 2
Fore
SplineSet
856 705 m 1,0,1
 946 696 946 696 981 692 c 128,-1,2
 1016 688 1016 688 1034 684 c 0,3,4
 1057 678 1057 678 1073.5 631 c 128,-1,5
 1090 584 1090 584 1090 520 c 0,6,7
 1090 465 1090 465 1068.5 413.5 c 128,-1,8
 1047 362 1047 362 991 289 c 1,9,10
 854 428 854 428 756.5 551 c 128,-1,11
 659 674 659 674 573 813 c 1,12,13
 639 860 639 860 673 889 c 128,-1,14
 707 918 707 918 737 948 c 0,15,16
 805 1020 805 1020 836.5 1087.5 c 128,-1,17
 868 1155 868 1155 868 1227 c 0,18,19
 868 1315 868 1315 816 1363 c 128,-1,20
 764 1411 764 1411 668 1411 c 0,21,22
 586 1411 586 1411 532 1364 c 2,23,-1
 393 1241 l 2,24,25
 371 1221 371 1221 357.5 1174.5 c 128,-1,26
 344 1128 344 1128 344 1065 c 0,27,28
 344 1001 344 1001 358.5 937.5 c 128,-1,29
 373 874 373 874 406 793 c 1,30,31
 365 768 365 768 334 748.5 c 128,-1,32
 303 729 303 729 279.5 710.5 c 128,-1,33
 256 692 256 692 236.5 673.5 c 128,-1,34
 217 655 217 655 197 633 c 0,35,36
 88 506 88 506 88 352 c 0,37,38
 88 266 88 266 120 193.5 c 128,-1,39
 152 121 152 121 208 68.5 c 128,-1,40
 264 16 264 16 341 -12.5 c 128,-1,41
 418 -41 418 -41 510 -41 c 0,42,43
 623 -41 623 -41 719 -4 c 128,-1,44
 815 33 815 33 924 117 c 1,45,46
 969 82 969 82 1018 53.5 c 128,-1,47
 1067 25 1067 25 1116 3.5 c 128,-1,48
 1165 -18 1165 -18 1211 -29.5 c 128,-1,49
 1257 -41 1257 -41 1294 -41 c 0,50,51
 1346 -41 1346 -41 1364 -29 c 2,52,-1
 1542 100 l 1,53,-1
 1530 152 l 1,54,55
 1483 129 1483 129 1457.5 121 c 128,-1,56
 1432 113 1432 113 1405 113 c 0,57,58
 1368 113 1368 113 1332 119 c 128,-1,59
 1296 125 1296 125 1256.5 139.5 c 128,-1,60
 1217 154 1217 154 1167.5 179.5 c 128,-1,61
 1118 205 1118 205 1053 242 c 1,62,63
 1143 342 1143 342 1181 425 c 128,-1,64
 1219 508 1219 508 1219 604 c 0,65,66
 1219 627 1219 627 1216.5 644.5 c 128,-1,67
 1214 662 1214 662 1208 684 c 1,68,69
 1264 682 1264 682 1303.5 680 c 128,-1,70
 1343 678 1343 678 1376 675 c 128,-1,71
 1409 672 1409 672 1436.5 668 c 128,-1,72
 1464 664 1464 664 1495 659 c 1,73,74
 1495 698 1495 698 1500 730 c 128,-1,75
 1505 762 1505 762 1520 807 c 1,76,-1
 1122 793 l 2,77,78
 1081 793 1081 793 1040 793 c 0,79,80
 1001 793 1001 793 924 797 c 1,81,-1
 856 705 l 1,0,1
436 721 m 1,82,83
 471 659 471 659 509 601 c 128,-1,84
 547 543 547 543 596 479.5 c 128,-1,85
 645 416 645 416 709.5 340 c 128,-1,86
 774 264 774 264 860 168 c 1,87,88
 788 119 788 119 728 96.5 c 128,-1,89
 668 74 668 74 606 74 c 0,90,91
 539 74 539 74 476.5 102.5 c 128,-1,92
 414 131 414 131 368 179 c 128,-1,93
 322 227 322 227 294 291.5 c 128,-1,94
 266 356 266 356 266 428 c 0,95,96
 266 516 266 516 304 581.5 c 128,-1,97
 342 647 342 647 436 721 c 1,82,83
541 883 m 1,98,99
 512 969 512 969 499.5 1028 c 128,-1,100
 487 1087 487 1087 487 1141 c 0,101,102
 487 1303 487 1303 612 1303 c 0,103,104
 664 1303 664 1303 697.5 1264 c 128,-1,105
 731 1225 731 1225 731 1165 c 0,106,107
 731 1102 731 1102 686 1030 c 128,-1,108
 641 958 641 958 563 899 c 0,109,110
 553 893 553 893 551 891 c 128,-1,111
 549 889 549 889 541 883 c 1,98,99
EndSplineSet
Validated: 9
EndChar

StartChar: quotesingle
Encoding: 5 39 7
Width: 426
GlyphClass: 2
Flags: W
LayerCount: 2
Fore
SplineSet
233 961 m 1,0,-1
 299 1362 l 2,1,2
 301 1366 301 1366 301 1374 c 0,3,4
 301 1403 301 1403 273.5 1427.5 c 128,-1,5
 246 1452 246 1452 213 1452 c 256,6,7
 180 1452 180 1452 152.5 1426.5 c 128,-1,8
 125 1401 125 1401 125 1372 c 2,9,-1
 125 1362 l 1,10,-1
 193 961 l 1,11,-1
 233 961 l 1,0,-1
EndSplineSet
Validated: 9
EndChar

StartChar: parenleft
Encoding: 6 40 8
Width: 682
GlyphClass: 2
Flags: W
LayerCount: 2
Fore
SplineSet
616 -397 m 1,0,1
 561 -330 561 -330 522 -274.5 c 128,-1,2
 483 -219 483 -219 454.5 -166 c 128,-1,3
 426 -113 426 -113 404.5 -57.5 c 128,-1,4
 383 -2 383 -2 362 68 c 0,5,6
 299 285 299 285 299 545 c 0,7,8
 299 674 299 674 314.5 783.5 c 128,-1,9
 330 893 330 893 358 993 c 0,10,11
 379 1057 379 1057 400.5 1109 c 128,-1,12
 422 1161 422 1161 451.5 1211.5 c 128,-1,13
 481 1262 481 1262 521 1315 c 128,-1,14
 561 1368 561 1368 616 1434 c 1,15,-1
 578 1487 l 1,16,17
 498 1415 498 1415 440.5 1355.5 c 128,-1,18
 383 1296 383 1296 340 1239 c 128,-1,19
 297 1182 297 1182 264 1120.5 c 128,-1,20
 231 1059 231 1059 203 983 c 0,21,22
 123 776 123 776 123 545 c 0,23,24
 123 215 123 215 272 -66 c 0,25,26
 299 -117 299 -117 326.5 -160 c 128,-1,27
 354 -203 354 -203 389 -246 c 128,-1,28
 424 -289 424 -289 469 -335 c 128,-1,29
 514 -381 514 -381 578 -440 c 1,30,-1
 616 -397 l 1,0,1
EndSplineSet
Validated: 9
EndChar

StartChar: parenright
Encoding: 7 41 9
Width: 682
GlyphClass: 2
Flags: W
LayerCount: 2
Fore
SplineSet
104 -440 m 1,0,1
 158 -391 158 -391 197 -351 c 128,-1,2
 236 -311 236 -311 266.5 -277.5 c 128,-1,3
 297 -244 297 -244 320.5 -210 c 128,-1,4
 344 -176 344 -176 369 -139 c 0,5,6
 463 10 463 10 511 183 c 128,-1,7
 559 356 559 356 559 543 c 0,8,9
 559 776 559 776 479 983 c 0,10,11
 451 1057 451 1057 418 1118.5 c 128,-1,12
 385 1180 385 1180 342 1237 c 128,-1,13
 299 1294 299 1294 241.5 1354.5 c 128,-1,14
 184 1415 184 1415 104 1487 c 1,15,-1
 66 1434 l 1,16,17
 121 1368 121 1368 161 1315 c 128,-1,18
 201 1262 201 1262 230.5 1210.5 c 128,-1,19
 260 1159 260 1159 281.5 1108 c 128,-1,20
 303 1057 303 1057 322 993 c 0,21,22
 352 893 352 893 367.5 783.5 c 128,-1,23
 383 674 383 674 383 545 c 0,24,25
 383 285 383 285 319 68 c 0,26,27
 299 -2 299 -2 277.5 -57.5 c 128,-1,28
 256 -113 256 -113 227.5 -166 c 128,-1,29
 199 -219 199 -219 160 -274.5 c 128,-1,30
 121 -330 121 -330 66 -397 c 1,31,-1
 104 -440 l 1,0,1
EndSplineSet
Validated: 9
EndChar

StartChar: asterisk
Encoding: 8 42 10
Width: 797
GlyphClass: 2
Flags: W
LayerCount: 2
Fore
SplineSet
344 1053 m 1,0,-1
 76 942 l 1,1,-1
 66 924 l 1,2,-1
 139 819 l 1,3,-1
 160 819 l 1,4,-1
 377 999 l 1,5,-1
 414 709 l 1,6,-1
 434 700 l 1,7,-1
 573 754 l 1,8,-1
 573 774 l 1,9,-1
 434 1024 l 1,10,-1
 717 983 l 1,11,-1
 735 999 l 1,12,-1
 735 1126 l 1,13,-1
 723 1135 l 1,14,-1
 438 1085 l 1,15,-1
 580 1341 l 1,16,-1
 573 1372 l 1,17,-1
 446 1411 l 1,18,-1
 428 1403 l 1,19,-1
 375 1110 l 1,20,-1
 180 1311 l 1,21,-1
 160 1311 l 1,22,-1
 70 1204 l 1,23,-1
 76 1184 l 1,24,-1
 344 1053 l 1,0,-1
EndSplineSet
Validated: 9
EndChar

StartChar: plus
Encoding: 9 43 11
Width: 1241
GlyphClass: 2
Flags: W
LayerCount: 2
Fore
SplineSet
563 592 m 1,0,-1
 104 592 l 1,1,-1
 104 477 l 1,2,-1
 563 477 l 1,3,-1
 563 14 l 1,4,-1
 678 14 l 1,5,-1
 678 477 l 1,6,-1
 1137 477 l 1,7,-1
 1137 592 l 1,8,-1
 678 592 l 1,9,-1
 678 1049 l 1,10,-1
 563 1049 l 1,11,-1
 563 592 l 1,0,-1
EndSplineSet
Validated: 9
EndChar

StartChar: comma
Encoding: 10 44 12
Width: 512
GlyphClass: 2
Flags: W
LayerCount: 2
Fore
SplineSet
418 252 m 1,0,1
 397 246 397 246 378.5 239.5 c 128,-1,2
 360 233 360 233 337.5 226 c 128,-1,3
 315 219 315 219 286.5 211 c 128,-1,4
 258 203 258 203 217 190 c 1,5,6
 207 74 207 74 164 -36.5 c 128,-1,7
 121 -147 121 -147 33 -295 c 1,8,-1
 61 -317 l 1,9,-1
 145 -279 l 1,10,11
 207 -199 207 -199 254 -132.5 c 128,-1,12
 301 -66 301 -66 337 -6.5 c 128,-1,13
 373 53 373 53 398.5 108.5 c 128,-1,14
 424 164 424 164 446 223 c 1,15,-1
 418 252 l 1,0,1
EndSplineSet
Validated: 9
EndChar

StartChar: hyphen
Encoding: 11 45 13
AltUni2: 0000ad.ffffffff.0
Width: 682
GlyphClass: 2
Flags: W
LayerCount: 2
Fore
SplineSet
578 440 m 1,0,-1
 639 578 l 1,1,-1
 629 588 l 1,2,-1
 90 588 l 1,3,-1
 35 451 l 1,4,-1
 45 440 l 1,5,-1
 578 440 l 1,0,-1
EndSplineSet
Validated: 9
EndChar

StartChar: period
Encoding: 12 46 14
Width: 512
GlyphClass: 2
Flags: W
LayerCount: 2
Fore
SplineSet
254 227 m 256,0,1
 207 227 207 227 172 191.5 c 128,-1,2
 137 156 137 156 137 109 c 0,3,4
 137 61 137 61 172 25.5 c 128,-1,5
 207 -10 207 -10 252 -10 c 0,6,7
 301 -10 301 -10 338 25.5 c 128,-1,8
 375 61 375 61 375 109 c 0,9,10
 375 156 375 156 338 191.5 c 128,-1,11
 301 227 301 227 254 227 c 256,0,1
EndSplineSet
Validated: 9
EndChar

StartChar: slash
Encoding: 13 47 15
Width: 1241
GlyphClass: 2
Flags: W
LayerCount: 2
Fore
SplineSet
1063 1487 m 1,0,-1
 940 1487 l 1,1,-1
 178 -244 l 1,2,-1
 301 -244 l 1,3,-1
 1063 1487 l 1,0,-1
EndSplineSet
Validated: 9
EndChar

StartChar: zero
Encoding: 14 48 16
Width: 1024
GlyphClass: 2
Flags: W
LayerCount: 2
Fore
SplineSet
539 1411 m 0,0,1
 59 1411 59 1411 59 664 c 0,2,3
 59 483 59 483 90 338 c 128,-1,4
 121 193 121 193 174 117 c 256,5,6
 227 41 227 41 309 0 c 128,-1,7
 391 -41 391 -41 487 -41 c 0,8,9
 952 -41 952 -41 952 750 c 0,10,11
 952 1087 952 1087 851 1249 c 128,-1,12
 750 1411 750 1411 539 1411 c 0,0,1
502 1339 m 0,13,14
 575 1339 575 1339 628.5 1300.5 c 128,-1,15
 682 1262 682 1262 716 1178 c 128,-1,16
 750 1094 750 1094 765 962.5 c 128,-1,17
 780 831 780 831 780 647 c 0,18,19
 780 483 780 483 765 366.5 c 128,-1,20
 750 250 750 250 718 175 c 128,-1,21
 686 100 686 100 635 65.5 c 128,-1,22
 584 31 584 31 514 31 c 0,23,24
 440 31 440 31 386 71 c 128,-1,25
 332 111 332 111 298 197 c 128,-1,26
 264 283 264 283 247.5 416 c 128,-1,27
 231 549 231 549 231 737 c 0,28,29
 231 899 231 899 246.5 1013.5 c 128,-1,30
 262 1128 262 1128 294 1200 c 128,-1,31
 326 1272 326 1272 377 1305.5 c 128,-1,32
 428 1339 428 1339 502 1339 c 0,13,14
EndSplineSet
Validated: 9
EndChar

StartChar: one
Encoding: 15 49 17
Width: 1024
GlyphClass: 2
Flags: W
LayerCount: 2
Fore
SplineSet
137 1137 m 1,0,-1
 158 1137 l 1,1,-1
 422 1255 l 2,2,3
 424 1257 424 1257 428 1257 c 0,4,5
 438 1257 438 1257 441 1242 c 128,-1,6
 444 1227 444 1227 444 1190 c 2,7,-1
 444 197 l 2,8,9
 444 156 444 156 439 131 c 128,-1,10
 434 106 434 106 420 91 c 128,-1,11
 406 76 406 76 379 69.5 c 128,-1,12
 352 63 352 63 311 61 c 2,13,-1
 197 55 l 1,14,-1
 197 -6 l 1,15,16
 315 -4 315 -4 379.5 -3 c 128,-1,17
 444 -2 444 -2 476 -1 c 128,-1,18
 508 0 508 0 516 0 c 0,19,20
 526 0 526 0 535 0 c 0,21,22
 555 0 555 0 588 0 c 0,23,24
 623 0 623 0 676 -2 c 0,25,26
 694 -4 694 -4 743 -4 c 0,27,28
 793 -4 793 -4 856 -6 c 1,29,-1
 856 55 l 1,30,-1
 750 61 l 2,31,32
 707 63 707 63 681 69.5 c 128,-1,33
 655 76 655 76 641 91 c 128,-1,34
 627 106 627 106 621.5 131 c 128,-1,35
 616 156 616 156 616 197 c 2,36,-1
 616 1411 l 1,37,-1
 588 1421 l 1,38,39
 487 1368 487 1368 375.5 1321 c 128,-1,40
 264 1274 264 1274 123 1225 c 1,41,-1
 137 1137 l 1,0,-1
EndSplineSet
Validated: 9
EndChar

StartChar: two
Encoding: 16 50 18
Width: 1024
GlyphClass: 2
Flags: W
LayerCount: 2
Fore
SplineSet
33 47 m 1,0,-1
 33 -6 l 1,1,2
 176 -4 176 -4 255 -3 c 128,-1,3
 334 -2 334 -2 377 -1 c 128,-1,4
 420 0 420 0 440 0 c 0,5,6
 461 0 461 0 489 0 c 0,7,8
 516 0 516 0 537 0 c 0,9,10
 559 0 559 0 603 -1 c 128,-1,11
 647 -2 647 -2 729 -3 c 128,-1,12
 811 -4 811 -4 958 -6 c 1,13,14
 954 27 954 27 954 45 c 256,15,16
 954 63 954 63 954 86 c 0,17,18
 954 106 954 106 954 125 c 0,19,20
 954 143 954 143 958 178 c 1,21,22
 870 174 870 174 801.5 172 c 128,-1,23
 733 170 733 170 657.5 168 c 128,-1,24
 582 166 582 166 486.5 163 c 128,-1,25
 391 160 391 160 250 158 c 1,26,-1
 623 553 l 2,27,28
 696 633 696 633 746.5 695.5 c 128,-1,29
 797 758 797 758 827.5 813 c 128,-1,30
 858 868 858 868 870.5 920.5 c 128,-1,31
 883 973 883 973 883 1030 c 0,32,33
 883 1208 883 1208 771 1309.5 c 128,-1,34
 659 1411 659 1411 463 1411 c 0,35,36
 352 1411 352 1411 271 1378.5 c 128,-1,37
 190 1346 190 1346 115 1268 c 1,38,-1
 80 989 l 1,39,-1
 139 989 l 1,40,-1
 166 1083 l 2,41,42
 190 1174 190 1174 247.5 1213.5 c 128,-1,43
 305 1253 305 1253 410 1253 c 0,44,45
 543 1253 543 1253 620.5 1176.5 c 128,-1,46
 698 1100 698 1100 698 969 c 0,47,48
 698 911 698 911 681 853 c 128,-1,49
 664 795 664 795 626 728.5 c 128,-1,50
 588 662 588 662 527.5 586 c 128,-1,51
 467 510 467 510 381 418 c 2,52,-1
 33 47 l 1,0,-1
EndSplineSet
Validated: 9
EndChar

StartChar: three
Encoding: 17 51 19
Width: 1024
GlyphClass: 2
Flags: W
LayerCount: 2
Fore
SplineSet
88 1020 m 1,0,-1
 152 1020 l 1,1,-1
 188 1135 l 2,2,3
 197 1161 197 1161 223.5 1185.5 c 128,-1,4
 250 1210 250 1210 286 1229.5 c 128,-1,5
 322 1249 322 1249 364 1261.5 c 128,-1,6
 406 1274 406 1274 446 1274 c 0,7,8
 496 1274 496 1274 540 1254.5 c 128,-1,9
 584 1235 584 1235 616.5 1203 c 128,-1,10
 649 1171 649 1171 668.5 1128 c 128,-1,11
 688 1085 688 1085 688 1036 c 0,12,13
 688 979 688 979 666.5 928 c 128,-1,14
 645 877 645 877 609 838 c 128,-1,15
 573 799 573 799 525 776.5 c 128,-1,16
 477 754 477 754 422 754 c 0,17,18
 410 754 410 754 393.5 755 c 128,-1,19
 377 756 377 756 356 758 c 2,20,-1
 326 760 l 1,21,-1
 301 651 l 1,22,-1
 315 639 l 1,23,24
 375 666 375 666 410.5 675 c 128,-1,25
 446 684 446 684 487 684 c 0,26,27
 616 684 616 684 686 607 c 128,-1,28
 756 530 756 530 756 389 c 0,29,30
 756 231 756 231 670 137 c 128,-1,31
 584 43 584 43 440 43 c 0,32,33
 295 43 295 43 201 131 c 0,34,35
 164 166 164 166 139.5 208 c 128,-1,36
 115 250 115 250 86 334 c 1,37,-1
 31 313 l 1,38,39
 47 266 47 266 58.5 228 c 128,-1,40
 70 190 70 190 78 154.5 c 128,-1,41
 86 119 86 119 92 85 c 128,-1,42
 98 51 98 51 102 12 c 1,43,44
 260 -41 260 -41 377 -41 c 0,45,46
 438 -41 438 -41 502.5 -24.5 c 128,-1,47
 567 -8 567 -8 628.5 22.5 c 128,-1,48
 690 53 690 53 744.5 95 c 128,-1,49
 799 137 799 137 842 188 c 0,50,51
 946 313 946 313 946 459 c 0,52,53
 946 532 946 532 916.5 593.5 c 128,-1,54
 887 655 887 655 831 694 c 0,55,56
 793 723 793 723 751 737.5 c 128,-1,57
 709 752 709 752 631 766 c 1,58,59
 754 860 754 860 805 939 c 128,-1,60
 856 1018 856 1018 856 1108 c 0,61,62
 856 1176 856 1176 828.5 1232 c 128,-1,63
 801 1288 801 1288 751.5 1328 c 128,-1,64
 702 1368 702 1368 632.5 1389.5 c 128,-1,65
 563 1411 563 1411 477 1411 c 0,66,67
 373 1411 373 1411 297 1379.5 c 128,-1,68
 221 1348 221 1348 147 1274 c 1,69,-1
 88 1020 l 1,0,-1
EndSplineSet
Validated: 9
EndChar

StartChar: four
Encoding: 18 52 20
Width: 1024
GlyphClass: 2
Flags: W
LayerCount: 2
Fore
SplineSet
573 371 m 1,0,-1
 573 217 l 2,1,2
 573 170 573 170 568 141.5 c 128,-1,3
 563 113 563 113 550 95.5 c 128,-1,4
 537 78 537 78 512 70.5 c 128,-1,5
 487 63 487 63 451 61 c 2,6,-1
 324 55 l 1,7,-1
 324 -6 l 1,8,9
 426 -4 426 -4 482.5 -3 c 128,-1,10
 539 -2 539 -2 568.5 -1 c 128,-1,11
 598 0 598 0 612 0 c 0,12,13
 627 0 627 0 645 0 c 0,14,15
 664 0 664 0 678 0 c 256,16,17
 692 0 692 0 722 -1 c 128,-1,18
 752 -2 752 -2 808 -3 c 128,-1,19
 864 -4 864 -4 967 -6 c 1,20,-1
 967 55 l 1,21,-1
 868 61 l 2,22,23
 831 63 831 63 806.5 70.5 c 128,-1,24
 782 78 782 78 769 95.5 c 128,-1,25
 756 113 756 113 750.5 141.5 c 128,-1,26
 745 170 745 170 745 217 c 2,27,-1
 745 371 l 1,28,29
 791 371 791 371 823 371 c 0,30,31
 856 371 856 371 880.5 370 c 128,-1,32
 905 369 905 369 924.5 367 c 128,-1,33
 944 365 944 365 967 362 c 1,34,-1
 967 508 l 1,35,36
 895 502 895 502 859 501 c 128,-1,37
 823 500 823 500 801 502 c 2,38,-1
 795 502 l 1,39,-1
 745 502 l 1,40,-1
 745 786 l 2,41,42
 745 924 745 924 746.5 1026 c 128,-1,43
 748 1128 748 1128 749 1204 c 128,-1,44
 750 1280 750 1280 753 1330 c 128,-1,45
 756 1380 756 1380 760 1411 c 1,46,-1
 735 1421 l 1,47,-1
 584 1366 l 1,48,-1
 4 418 l 1,49,-1
 27 371 l 1,50,-1
 573 371 l 1,0,-1
573 502 m 1,51,-1
 133 502 l 1,52,-1
 573 1223 l 1,53,-1
 573 502 l 1,51,-1
EndSplineSet
Validated: 9
EndChar

StartChar: five
Encoding: 19 53 21
Width: 1024
GlyphClass: 2
Flags: W
LayerCount: 2
Fore
SplineSet
260 1239 m 1,0,1
 358 1235 358 1235 434 1234 c 128,-1,2
 510 1233 510 1233 579.5 1231 c 128,-1,3
 649 1229 649 1229 721 1229 c 256,4,5
 793 1229 793 1229 885 1229 c 1,6,-1
 895 1239 l 1,7,8
 891 1268 891 1268 891 1282 c 0,9,10
 891 1298 891 1298 891 1319 c 0,11,12
 891 1341 891 1341 891 1356 c 0,13,14
 891 1372 891 1372 895 1401 c 1,15,-1
 885 1411 l 1,16,17
 770 1405 770 1405 690 1403 c 128,-1,18
 610 1401 610 1401 528 1401 c 0,19,20
 444 1401 444 1401 365.5 1403 c 128,-1,21
 287 1405 287 1405 172 1411 c 1,22,-1
 162 1401 l 1,23,24
 164 1307 164 1307 165 1238 c 128,-1,25
 166 1169 166 1169 166 1120 c 0,26,27
 166 1055 166 1055 165 987.5 c 128,-1,28
 164 920 164 920 162 858.5 c 128,-1,29
 160 797 160 797 158 744.5 c 128,-1,30
 156 692 156 692 154 659 c 1,31,-1
 195 647 l 1,32,33
 231 684 231 684 261 707.5 c 128,-1,34
 291 731 291 731 319.5 745.5 c 128,-1,35
 348 760 348 760 379 766 c 128,-1,36
 410 772 410 772 446 772 c 0,37,38
 594 772 594 772 680 675 c 128,-1,39
 766 578 766 578 766 412 c 0,40,41
 766 240 766 240 673 145.5 c 128,-1,42
 580 51 580 51 412 51 c 0,43,44
 328 51 328 51 260.5 75.5 c 128,-1,45
 193 100 193 100 170 141 c 2,46,-1
 76 309 l 1,47,-1
 27 281 l 1,48,49
 61 193 61 193 82.5 134.5 c 128,-1,50
 104 76 104 76 127 8 c 1,51,52
 170 -14 170 -14 229.5 -27.5 c 128,-1,53
 289 -41 289 -41 354 -41 c 0,54,55
 459 -41 459 -41 561.5 1 c 128,-1,56
 664 43 664 43 750 117 c 0,57,58
 844 201 844 201 892 302 c 128,-1,59
 940 403 940 403 940 518 c 0,60,61
 940 604 940 604 910.5 677 c 128,-1,62
 881 750 881 750 827.5 802 c 128,-1,63
 774 854 774 854 701.5 883.5 c 128,-1,64
 629 913 629 913 541 913 c 0,65,66
 467 913 467 913 401.5 890.5 c 128,-1,67
 336 868 336 868 242 811 c 1,68,-1
 260 1239 l 1,0,1
EndSplineSet
Validated: 9
EndChar

StartChar: six
Encoding: 20 54 22
Width: 1024
GlyphClass: 2
Flags: W
LayerCount: 2
Fore
SplineSet
852 1376 m 1,0,-1
 776 1411 l 1,1,2
 702 1386 702 1386 648 1364.5 c 128,-1,3
 594 1343 594 1343 550 1321.5 c 128,-1,4
 506 1300 506 1300 468 1273.5 c 128,-1,5
 430 1247 430 1247 391 1214 c 0,6,7
 231 1079 231 1079 148.5 898 c 128,-1,8
 66 717 66 717 66 506 c 0,9,10
 66 379 66 379 95.5 277.5 c 128,-1,11
 125 176 125 176 180.5 105.5 c 128,-1,12
 236 35 236 35 315.5 -3 c 128,-1,13
 395 -41 395 -41 494 -41 c 0,14,15
 594 -41 594 -41 679 -4 c 128,-1,16
 764 33 764 33 826.5 99.5 c 128,-1,17
 889 166 889 166 923.5 255 c 128,-1,18
 958 344 958 344 958 449 c 0,19,20
 958 537 958 537 932.5 608.5 c 128,-1,21
 907 680 907 680 860 731 c 128,-1,22
 813 782 813 782 747.5 810 c 128,-1,23
 682 838 682 838 600 838 c 0,24,25
 561 838 561 838 529.5 831.5 c 128,-1,26
 498 825 498 825 465 812 c 128,-1,27
 432 799 432 799 396 775.5 c 128,-1,28
 360 752 360 752 315 715 c 0,29,30
 299 700 299 700 292 695 c 128,-1,31
 285 690 285 690 268 678 c 1,32,33
 285 817 285 817 326 925.5 c 128,-1,34
 367 1034 367 1034 437.5 1117 c 128,-1,35
 508 1200 508 1200 610.5 1259.5 c 128,-1,36
 713 1319 713 1319 852 1360 c 1,37,-1
 852 1376 l 1,0,-1
522 715 m 0,38,39
 580 715 580 715 628 690.5 c 128,-1,40
 676 666 676 666 710.5 622 c 128,-1,41
 745 578 745 578 763.5 515.5 c 128,-1,42
 782 453 782 453 782 377 c 0,43,44
 782 217 782 217 710.5 122 c 128,-1,45
 639 27 639 27 520 27 c 0,46,47
 389 27 389 27 320.5 135.5 c 128,-1,48
 252 244 252 244 252 451 c 0,49,50
 252 504 252 504 259 536.5 c 128,-1,51
 266 569 266 569 283 596 c 0,52,53
 317 649 317 649 383 682 c 128,-1,54
 449 715 449 715 522 715 c 0,38,39
EndSplineSet
Validated: 9
EndChar

StartChar: seven
Encoding: 21 55 23
Width: 1024
GlyphClass: 2
Flags: W
LayerCount: 2
Fore
SplineSet
115 20 m 1,0,-1
 133 -6 l 1,1,2
 193 -2 193 -2 205 -1 c 128,-1,3
 217 0 217 0 227 0 c 0,4,5
 238 0 238 0 250 -1 c 128,-1,6
 262 -2 262 -2 322 -6 c 1,7,8
 385 162 385 162 463 327 c 128,-1,9
 541 492 541 492 643 676 c 2,10,-1
 1018 1350 l 1,11,-1
 1018 1411 l 1,12,13
 934 1407 934 1407 875.5 1406 c 128,-1,14
 817 1405 817 1405 768 1403 c 128,-1,15
 719 1401 719 1401 670 1401 c 256,16,17
 621 1401 621 1401 559 1401 c 0,18,19
 504 1401 504 1401 455 1401 c 256,20,21
 406 1401 406 1401 353.5 1403 c 128,-1,22
 301 1405 301 1405 242.5 1406 c 128,-1,23
 184 1407 184 1407 111 1411 c 1,24,-1
 90 1401 l 1,25,26
 92 1327 92 1327 93 1287 c 128,-1,27
 94 1247 94 1247 95 1227.5 c 128,-1,28
 96 1208 96 1208 96 1200 c 0,29,30
 96 1194 96 1194 96 1186 c 256,31,32
 96 1178 96 1178 96 1169 c 0,33,34
 96 1163 96 1163 95 1142.5 c 128,-1,35
 94 1122 94 1122 93 1084.5 c 128,-1,36
 92 1047 92 1047 90 977 c 1,37,-1
 152 977 l 1,38,-1
 166 1092 l 2,39,40
 172 1139 172 1139 179 1167.5 c 128,-1,41
 186 1196 186 1196 199.5 1211.5 c 128,-1,42
 213 1227 213 1227 234.5 1231 c 128,-1,43
 256 1235 256 1235 291 1235 c 2,44,-1
 838 1235 l 1,45,46
 776 1108 776 1108 725 1013 c 128,-1,47
 674 918 674 918 614 823 c 2,48,-1
 115 20 l 1,0,-1
EndSplineSet
Validated: 9
EndChar

StartChar: eight
Encoding: 22 56 24
Width: 1024
GlyphClass: 2
Flags: W
LayerCount: 2
Fore
SplineSet
344 707 m 1,0,1
 281 678 281 678 247 656.5 c 128,-1,2
 213 635 213 635 180 602 c 0,3,4
 61 483 61 483 61 326 c 0,5,6
 61 246 61 246 91 179.5 c 128,-1,7
 121 113 121 113 175 63.5 c 128,-1,8
 229 14 229 14 303 -13.5 c 128,-1,9
 377 -41 377 -41 463 -41 c 0,10,11
 563 -41 563 -41 651 -4 c 128,-1,12
 739 33 739 33 805.5 95.5 c 128,-1,13
 872 158 872 158 911 242 c 128,-1,14
 950 326 950 326 950 422 c 0,15,16
 950 483 950 483 935 532.5 c 128,-1,17
 920 582 920 582 884 623 c 128,-1,18
 848 664 848 664 788.5 701.5 c 128,-1,19
 729 739 729 739 641 780 c 1,20,21
 711 827 711 827 759 868 c 128,-1,22
 807 909 807 909 836.5 949 c 128,-1,23
 866 989 866 989 879.5 1029 c 128,-1,24
 893 1069 893 1069 893 1116 c 0,25,26
 893 1249 893 1249 793.5 1330 c 128,-1,27
 694 1411 694 1411 530 1411 c 0,28,29
 438 1411 438 1411 361.5 1383.5 c 128,-1,30
 285 1356 285 1356 228.5 1306.5 c 128,-1,31
 172 1257 172 1257 140.5 1188.5 c 128,-1,32
 109 1120 109 1120 109 1040 c 0,33,34
 109 987 109 987 120 945 c 128,-1,35
 131 903 131 903 158.5 865 c 128,-1,36
 186 827 186 827 231 788.5 c 128,-1,37
 276 750 276 750 344 707 c 1,0,1
582 604 m 2,38,39
 680 561 680 561 734 490.5 c 128,-1,40
 788 420 788 420 788 336 c 0,41,42
 788 270 788 270 765.5 215 c 128,-1,43
 743 160 743 160 703.5 118 c 128,-1,44
 664 76 664 76 609.5 52.5 c 128,-1,45
 555 29 555 29 494 29 c 0,46,47
 362 29 362 29 284.5 114 c 128,-1,48
 207 199 207 199 207 342 c 0,49,50
 207 455 207 455 255 531.5 c 128,-1,51
 303 608 303 608 418 678 c 1,52,-1
 582 604 l 2,38,39
457 866 m 2,53,54
 262 963 262 963 262 1114 c 0,55,56
 262 1217 262 1217 328.5 1279 c 128,-1,57
 395 1341 395 1341 506 1341 c 0,58,59
 618 1341 618 1341 686 1273.5 c 128,-1,60
 754 1206 754 1206 754 1094 c 0,61,62
 754 1006 754 1006 712 941.5 c 128,-1,63
 670 877 670 877 569 811 c 1,64,-1
 457 866 l 2,53,54
EndSplineSet
Validated: 9
EndChar

StartChar: nine
Encoding: 23 57 25
Width: 1024
GlyphClass: 2
Flags: W
LayerCount: 2
Fore
SplineSet
197 -41 m 1,0,1
 283 -14 283 -14 345.5 10.5 c 128,-1,2
 408 35 408 35 458 59.5 c 128,-1,3
 508 84 508 84 550 111.5 c 128,-1,4
 592 139 592 139 633 174 c 0,5,6
 782 303 782 303 859 475 c 128,-1,7
 936 647 936 647 936 854 c 0,8,9
 936 983 936 983 906.5 1086.5 c 128,-1,10
 877 1190 877 1190 819.5 1262.5 c 128,-1,11
 762 1335 762 1335 681 1373 c 128,-1,12
 600 1411 600 1411 500 1411 c 0,13,14
 401 1411 401 1411 317 1375 c 128,-1,15
 233 1339 233 1339 172 1274.5 c 128,-1,16
 111 1210 111 1210 76 1122 c 128,-1,17
 41 1034 41 1034 41 932 c 0,18,19
 41 844 41 844 68.5 769 c 128,-1,20
 96 694 96 694 144.5 640 c 128,-1,21
 193 586 193 586 260.5 555 c 128,-1,22
 328 524 328 524 408 524 c 0,23,24
 461 524 461 524 513 539.5 c 128,-1,25
 565 555 565 555 594 578 c 2,26,-1
 737 696 l 1,27,28
 725 436 725 436 566.5 257 c 128,-1,29
 408 78 408 78 127 10 c 1,30,-1
 127 -6 l 1,31,-1
 197 -41 l 1,0,1
492 1343 m 0,32,33
 631 1343 631 1343 696 1223 c 0,34,35
 725 1174 725 1174 741.5 1104 c 128,-1,36
 758 1034 758 1034 758 965 c 0,37,38
 758 823 758 823 684 736 c 128,-1,39
 610 649 610 649 492 649 c 0,40,41
 430 649 430 649 380 674.5 c 128,-1,42
 330 700 330 700 293 748.5 c 128,-1,43
 256 797 256 797 236.5 862.5 c 128,-1,44
 217 928 217 928 217 1008 c 0,45,46
 217 1163 217 1163 291 1253 c 128,-1,47
 365 1343 365 1343 492 1343 c 0,32,33
EndSplineSet
Validated: 9
EndChar

StartChar: colon
Encoding: 24 58 26
Width: 512
GlyphClass: 2
Flags: W
LayerCount: 2
Fore
SplineSet
252 227 m 256,0,1
 205 227 205 227 170 191.5 c 128,-1,2
 135 156 135 156 135 109 c 0,3,4
 135 61 135 61 170 25.5 c 128,-1,5
 205 -10 205 -10 250 -10 c 0,6,7
 299 -10 299 -10 336 25.5 c 128,-1,8
 373 61 373 61 373 109 c 0,9,10
 373 156 373 156 336 191.5 c 128,-1,11
 299 227 299 227 252 227 c 256,0,1
252 934 m 256,12,13
 205 934 205 934 170 898 c 128,-1,14
 135 862 135 862 135 815 c 256,15,16
 135 768 135 768 170 732 c 128,-1,17
 205 696 205 696 250 696 c 0,18,19
 299 696 299 696 336 731 c 128,-1,20
 373 766 373 766 373 813 c 256,21,22
 373 860 373 860 336 897 c 128,-1,23
 299 934 299 934 252 934 c 256,12,13
EndSplineSet
Validated: 9
EndChar

StartChar: semicolon
Encoding: 25 59 27
Width: 512
GlyphClass: 2
Flags: W
LayerCount: 2
Fore
SplineSet
418 256 m 1,0,1
 397 250 397 250 378.5 244 c 128,-1,2
 360 238 360 238 337.5 230.5 c 128,-1,3
 315 223 315 223 286.5 215 c 128,-1,4
 258 207 258 207 217 195 c 1,5,6
 207 78 207 78 164 -32.5 c 128,-1,7
 121 -143 121 -143 33 -291 c 1,8,-1
 61 -313 l 1,9,-1
 145 -274 l 1,10,11
 207 -195 207 -195 254 -128 c 128,-1,12
 301 -61 301 -61 337 -2 c 128,-1,13
 373 57 373 57 398.5 112.5 c 128,-1,14
 424 168 424 168 446 227 c 1,15,-1
 418 256 l 1,0,1
307 934 m 256,16,17
 260 934 260 934 225 898 c 128,-1,18
 190 862 190 862 190 815 c 256,19,20
 190 768 190 768 225 732 c 128,-1,21
 260 696 260 696 305 696 c 0,22,23
 354 696 354 696 391 731 c 128,-1,24
 428 766 428 766 428 813 c 256,25,26
 428 860 428 860 391 897 c 128,-1,27
 354 934 354 934 307 934 c 256,16,17
EndSplineSet
Validated: 9
EndChar

StartChar: less
Encoding: 26 60 28
Width: 1241
GlyphClass: 2
Flags: W
LayerCount: 2
Fore
SplineSet
1143 -4 m 1,0,-1
 1143 127 l 1,1,-1
 264 530 l 1,2,-1
 1143 942 l 1,3,-1
 1143 1073 l 1,4,-1
 117 594 l 1,5,-1
 117 475 l 1,6,-1
 1143 -4 l 1,0,-1
EndSplineSet
Validated: 9
EndChar

StartChar: equal
Encoding: 27 61 29
Width: 1241
GlyphClass: 2
Flags: W
LayerCount: 2
Fore
SplineSet
1137 791 m 1,0,-1
 104 791 l 1,1,-1
 104 676 l 1,2,-1
 1137 676 l 1,3,-1
 1137 791 l 1,0,-1
1137 393 m 1,4,-1
 104 393 l 1,5,-1
 104 279 l 1,6,-1
 1137 279 l 1,7,-1
 1137 393 l 1,4,-1
EndSplineSet
Validated: 9
EndChar

StartChar: greater
Encoding: 28 62 30
Width: 1241
GlyphClass: 2
Flags: W
LayerCount: 2
Fore
SplineSet
98 -4 m 1,0,-1
 1124 475 l 1,1,-1
 1124 594 l 1,2,-1
 98 1073 l 1,3,-1
 98 942 l 1,4,-1
 977 530 l 1,5,-1
 98 127 l 1,6,-1
 98 -4 l 1,0,-1
EndSplineSet
Validated: 9
EndChar

StartChar: question
Encoding: 29 63 31
Width: 909
GlyphClass: 2
Flags: W
LayerCount: 2
Fore
SplineSet
88 1118 m 1,0,-1
 147 1102 l 1,1,-1
 188 1200 l 2,2,3
 223 1286 223 1286 367 1286 c 0,4,5
 477 1286 477 1286 547.5 1223.5 c 128,-1,6
 618 1161 618 1161 618 1063 c 0,7,8
 618 1032 618 1032 611 1003.5 c 128,-1,9
 604 975 604 975 585.5 942 c 128,-1,10
 567 909 567 909 536.5 870 c 128,-1,11
 506 831 506 831 461 782 c 0,12,13
 414 731 414 731 383 693 c 128,-1,14
 352 655 352 655 334.5 625.5 c 128,-1,15
 317 596 317 596 310 571.5 c 128,-1,16
 303 547 303 547 303 520 c 0,17,18
 303 428 303 428 393 371 c 1,19,-1
 436 399 l 1,20,21
 412 428 412 428 401.5 450.5 c 128,-1,22
 391 473 391 473 391 498 c 0,23,24
 391 522 391 522 398.5 543.5 c 128,-1,25
 406 565 406 565 426 593 c 128,-1,26
 446 621 446 621 484 657.5 c 128,-1,27
 522 694 522 694 584 750 c 0,28,29
 649 809 649 809 692 856 c 128,-1,30
 735 903 735 903 761.5 944 c 128,-1,31
 788 985 788 985 798.5 1024 c 128,-1,32
 809 1063 809 1063 809 1106 c 0,33,34
 809 1174 809 1174 780.5 1231 c 128,-1,35
 752 1288 752 1288 701.5 1330 c 128,-1,36
 651 1372 651 1372 583.5 1396.5 c 128,-1,37
 516 1421 516 1421 436 1421 c 0,38,39
 369 1421 369 1421 308.5 1406 c 128,-1,40
 248 1391 248 1391 166 1350 c 1,41,-1
 88 1118 l 1,0,-1
406 227 m 0,42,43
 358 227 358 227 323.5 191.5 c 128,-1,44
 289 156 289 156 289 109 c 0,45,46
 289 61 289 61 323.5 25.5 c 128,-1,47
 358 -10 358 -10 403 -10 c 0,48,49
 453 -10 453 -10 489.5 25.5 c 128,-1,50
 526 61 526 61 526 109 c 0,51,52
 526 156 526 156 489.5 191.5 c 128,-1,53
 453 227 453 227 406 227 c 0,42,43
EndSplineSet
Validated: 9
EndChar

StartChar: at
Encoding: 30 64 32
Width: 1530
GlyphClass: 2
Flags: W
LayerCount: 2
Fore
SplineSet
1348 350 m 1,0,1
 1311 301 1311 301 1279 264 c 128,-1,2
 1247 227 1247 227 1215.5 200.5 c 128,-1,3
 1184 174 1184 174 1149 152.5 c 128,-1,4
 1114 131 1114 131 1071 113 c 0,5,6
 956 61 956 61 821 61 c 0,7,8
 680 61 680 61 559 108.5 c 128,-1,9
 438 156 438 156 350 241 c 128,-1,10
 262 326 262 326 212 440.5 c 128,-1,11
 162 555 162 555 162 690 c 256,12,13
 162 825 162 825 211 940 c 128,-1,14
 260 1055 260 1055 347 1140 c 128,-1,15
 434 1225 434 1225 554 1272 c 128,-1,16
 674 1319 674 1319 813 1319 c 0,17,18
 934 1319 934 1319 1036.5 1282 c 128,-1,19
 1139 1245 1139 1245 1214.5 1179.5 c 128,-1,20
 1290 1114 1290 1114 1332 1024 c 128,-1,21
 1374 934 1374 934 1374 829 c 0,22,23
 1374 741 1374 741 1345.5 652 c 128,-1,24
 1317 563 1317 563 1271 492.5 c 128,-1,25
 1225 422 1225 422 1167.5 378 c 128,-1,26
 1110 334 1110 334 1053 334 c 0,27,28
 1030 334 1030 334 1015.5 350.5 c 128,-1,29
 1001 367 1001 367 1001 393 c 0,30,31
 1001 424 1001 424 1010 451 c 2,32,-1
 1167 1022 l 1,33,-1
 987 1022 l 1,34,-1
 950 879 l 1,35,36
 915 1042 915 1042 770 1042 c 0,37,38
 684 1042 684 1042 603 1003.5 c 128,-1,39
 522 965 522 965 460.5 899.5 c 128,-1,40
 399 834 399 834 362.5 750 c 128,-1,41
 326 666 326 666 326 573 c 0,42,43
 326 512 326 512 347.5 460 c 128,-1,44
 369 408 369 408 405.5 369 c 128,-1,45
 442 330 442 330 491.5 307.5 c 128,-1,46
 541 285 541 285 598 285 c 0,47,48
 635 285 635 285 663.5 292 c 128,-1,49
 692 299 692 299 721 317.5 c 128,-1,50
 750 336 750 336 780.5 366.5 c 128,-1,51
 811 397 811 397 850 446 c 1,52,53
 858 362 858 362 898 318 c 128,-1,54
 938 274 938 274 1006 274 c 0,55,56
 1094 274 1094 274 1180 322.5 c 128,-1,57
 1266 371 1266 371 1333.5 450.5 c 128,-1,58
 1401 530 1401 530 1442 631.5 c 128,-1,59
 1483 733 1483 733 1483 838 c 0,60,61
 1483 961 1483 961 1430.5 1067.5 c 128,-1,62
 1378 1174 1378 1174 1287 1252.5 c 128,-1,63
 1196 1331 1196 1331 1072 1376 c 128,-1,64
 948 1421 948 1421 805 1421 c 0,65,66
 645 1421 645 1421 507 1364 c 128,-1,67
 369 1307 369 1307 267.5 1206.5 c 128,-1,68
 166 1106 166 1106 107.5 970 c 128,-1,69
 49 834 49 834 49 678 c 0,70,71
 49 526 49 526 107.5 395 c 128,-1,72
 166 264 166 264 268.5 167 c 128,-1,73
 371 70 371 70 509 14.5 c 128,-1,74
 647 -41 647 -41 807 -41 c 0,75,76
 1098 -41 1098 -41 1311 147 c 0,77,78
 1335 168 1335 168 1354.5 187.5 c 128,-1,79
 1374 207 1374 207 1392.5 230.5 c 128,-1,80
 1411 254 1411 254 1429.5 282.5 c 128,-1,81
 1448 311 1448 311 1473 350 c 1,82,-1
 1348 350 l 1,0,1
805 987 m 0,83,84
 852 983 852 983 881.5 943 c 128,-1,85
 911 903 911 903 911 840 c 0,86,87
 911 801 911 801 904 754 c 128,-1,88
 897 707 897 707 882.5 658.5 c 128,-1,89
 868 610 868 610 849.5 563 c 128,-1,90
 831 516 831 516 811 479 c 0,91,92
 733 340 733 340 631 340 c 0,93,94
 575 340 575 340 541.5 389 c 128,-1,95
 508 438 508 438 508 520 c 0,96,97
 508 557 508 557 517 603 c 128,-1,98
 526 649 526 649 541.5 696 c 128,-1,99
 557 743 557 743 578.5 787 c 128,-1,100
 600 831 600 831 625 868 c 0,101,102
 666 928 666 928 713 959.5 c 128,-1,103
 760 991 760 991 805 987 c 0,83,84
EndSplineSet
Validated: 41
EndChar

StartChar: bracketleft
Encoding: 31 91 33
Width: 682
GlyphClass: 2
Flags: W
LayerCount: 2
Fore
SplineSet
180 -377 m 1,0,1
 236 -375 236 -375 266.5 -374 c 128,-1,2
 297 -373 297 -373 315 -373 c 0,3,4
 334 -373 334 -373 346 -373 c 0,5,6
 360 -373 360 -373 379 -373 c 0,7,8
 397 -373 397 -373 410 -373 c 0,9,10
 424 -373 424 -373 444 -373 c 0,11,12
 465 -373 465 -373 494.5 -374 c 128,-1,13
 524 -375 524 -375 578 -377 c 1,14,-1
 590 -365 l 1,15,-1
 590 -311 l 1,16,-1
 582 -301 l 1,17,-1
 504 -301 l 2,18,19
 418 -301 418 -301 379 -268 c 0,20,21
 365 -254 365 -254 359.5 -229.5 c 128,-1,22
 354 -205 354 -205 354 -154 c 0,23,24
 354 -152 354 -152 354 -123 c 256,25,26
 354 -94 354 -94 352 -47 c 2,27,-1
 352 29 l 1,28,-1
 352 1081 l 1,29,-1
 352 1157 l 2,30,31
 354 1200 354 1200 354 1229 c 0,32,33
 354 1260 354 1260 354 1262 c 0,34,35
 354 1313 354 1313 359.5 1338.5 c 128,-1,36
 365 1364 365 1364 379 1378 c 0,37,38
 418 1411 418 1411 504 1411 c 2,39,-1
 582 1411 l 1,40,-1
 590 1421 l 1,41,-1
 590 1475 l 1,42,-1
 578 1487 l 1,43,44
 524 1485 524 1485 493.5 1484 c 128,-1,45
 463 1483 463 1483 442 1483 c 0,46,47
 424 1483 424 1483 410 1483 c 0,48,49
 397 1483 397 1483 379 1483 c 0,50,51
 360 1483 360 1483 346 1483 c 0,52,53
 334 1483 334 1483 313 1483 c 0,54,55
 295 1483 295 1483 264 1484 c 128,-1,56
 233 1485 233 1485 180 1487 c 1,57,-1
 162 1460 l 1,58,59
 172 1421 172 1421 175 1362 c 128,-1,60
 178 1303 178 1303 178 1184 c 0,61,62
 178 1161 178 1161 178 1143 c 0,63,64
 178 1124 178 1124 180 1108 c 2,65,-1
 180 1081 l 1,66,-1
 180 29 l 1,67,-1
 180 2 l 2,68,69
 178 -23 178 -23 178 -31 c 0,70,71
 178 -41 178 -41 178 -68 c 2,72,-1
 178 -90 l 2,73,74
 178 -195 178 -195 175 -249 c 128,-1,75
 172 -303 172 -303 162 -350 c 1,76,-1
 180 -377 l 1,0,1
EndSplineSet
Validated: 9
EndChar

StartChar: backslash
Encoding: 32 92 34
Width: 1241
GlyphClass: 2
Flags: W
LayerCount: 2
Fore
SplineSet
166 1487 m 1,0,-1
 928 0 l 1,1,-1
 1049 0 l 1,2,-1
 287 1487 l 1,3,-1
 166 1487 l 1,0,-1
EndSplineSet
Validated: 9
EndChar

StartChar: bracketright
Encoding: 33 93 35
Width: 682
GlyphClass: 2
Flags: W
LayerCount: 2
Fore
SplineSet
502 1487 m 1,0,1
 446 1485 446 1485 415.5 1484 c 128,-1,2
 385 1483 385 1483 365 1483 c 0,3,4
 346 1483 346 1483 334 1483 c 256,5,6
 322 1483 322 1483 303 1483 c 0,7,8
 285 1483 285 1483 270 1483 c 0,9,10
 258 1483 258 1483 238 1483 c 0,11,12
 217 1483 217 1483 186.5 1484 c 128,-1,13
 156 1485 156 1485 104 1487 c 1,14,-1
 92 1475 l 1,15,-1
 92 1421 l 1,16,-1
 100 1411 l 1,17,-1
 178 1411 l 2,18,19
 262 1411 262 1411 301 1378 c 0,20,21
 317 1364 317 1364 322.5 1339.5 c 128,-1,22
 328 1315 328 1315 328 1262 c 0,23,24
 328 1257 328 1257 328 1229 c 0,25,26
 328 1200 328 1200 330 1157 c 2,27,-1
 330 1081 l 1,28,-1
 330 29 l 1,29,-1
 330 -47 l 2,30,31
 328 -92 328 -92 328 -119 c 0,32,33
 328 -145 328 -145 328 -150 c 0,34,35
 328 -203 328 -203 322.5 -228.5 c 128,-1,36
 317 -254 317 -254 301 -268 c 0,37,38
 262 -301 262 -301 178 -301 c 2,39,-1
 100 -301 l 1,40,-1
 92 -311 l 1,41,-1
 92 -365 l 1,42,-1
 104 -377 l 1,43,44
 158 -375 158 -375 188.5 -374 c 128,-1,45
 219 -373 219 -373 238 -373 c 0,46,47
 258 -373 258 -373 270 -373 c 0,48,49
 285 -373 285 -373 303 -373 c 0,50,51
 322 -373 322 -373 334 -373 c 0,52,53
 348 -373 348 -373 367 -373 c 0,54,55
 387 -373 387 -373 418 -374 c 128,-1,56
 449 -375 449 -375 502 -377 c 1,57,-1
 520 -350 l 1,58,59
 516 -332 516 -332 513 -309.5 c 128,-1,60
 510 -287 510 -287 508 -256 c 128,-1,61
 506 -225 506 -225 505 -182 c 128,-1,62
 504 -139 504 -139 504 -80 c 0,63,64
 504 -57 504 -57 504 -37 c 0,65,66
 504 -18 504 -18 502 2 c 2,67,-1
 502 29 l 1,68,-1
 502 1081 l 1,69,-1
 502 1108 l 2,70,71
 504 1124 504 1124 504 1143 c 0,72,73
 504 1163 504 1163 504 1186 c 0,74,75
 504 1305 504 1305 507 1364 c 128,-1,76
 510 1423 510 1423 520 1460 c 1,77,-1
 502 1487 l 1,0,1
EndSplineSet
Validated: 9
EndChar

StartChar: asciicircum
Encoding: 34 94 36
Width: 1241
GlyphClass: 2
Flags: W
LayerCount: 2
Fore
SplineSet
244 580 m 1,0,-1
 621 1272 l 1,1,-1
 995 580 l 1,2,-1
 1135 580 l 1,3,-1
 688 1411 l 1,4,-1
 553 1411 l 1,5,-1
 104 580 l 1,6,-1
 244 580 l 1,0,-1
EndSplineSet
Validated: 9
EndChar

StartChar: underscore
Encoding: 35 95 37
Width: 1024
GlyphClass: 2
Flags: W
LayerCount: 2
Fore
SplineSet
1024 -256 m 1,0,-1
 1024 -154 l 1,1,-1
 0 -154 l 1,2,-1
 0 -256 l 1,3,-1
 1024 -256 l 1,0,-1
EndSplineSet
Validated: 9
EndChar

StartChar: grave
Encoding: 36 96 38
Width: 682
GlyphClass: 2
Flags: W
LayerCount: 2
Fore
SplineSet
440 1036 m 1,0,-1
 522 1036 l 1,1,-1
 240 1319 l 2,2,3
 172 1386 172 1386 127 1386 c 0,4,5
 100 1386 100 1386 81.5 1366 c 128,-1,6
 63 1346 63 1346 63 1317 c 256,7,8
 63 1288 63 1288 78.5 1270.5 c 128,-1,9
 94 1253 94 1253 145 1221 c 2,10,-1
 440 1036 l 1,0,-1
EndSplineSet
Validated: 9
EndChar

StartChar: braceleft
Encoding: 37 123 39
Width: 682
GlyphClass: 2
Flags: W
LayerCount: 2
Fore
SplineSet
422 1219 m 2,0,1
 422 1280 422 1280 430 1323 c 128,-1,2
 438 1366 438 1366 458.5 1396.5 c 128,-1,3
 479 1427 479 1427 511 1448.5 c 128,-1,4
 543 1470 543 1470 592 1487 c 1,5,6
 498 1485 498 1485 445.5 1473.5 c 128,-1,7
 393 1462 393 1462 358 1434 c 0,8,9
 315 1399 315 1399 294.5 1338.5 c 128,-1,10
 274 1278 274 1278 274 1184 c 2,11,-1
 274 803 l 2,12,13
 274 748 274 748 267 709 c 128,-1,14
 260 670 260 670 241.5 641 c 128,-1,15
 223 612 223 612 193.5 592.5 c 128,-1,16
 164 573 164 573 119 559 c 1,17,18
 166 543 166 543 196.5 525.5 c 128,-1,19
 227 508 227 508 244.5 480.5 c 128,-1,20
 262 453 262 453 268 412 c 128,-1,21
 274 371 274 371 274 309 c 2,22,-1
 274 -35 l 2,23,24
 274 -141 274 -141 292.5 -204.5 c 128,-1,25
 311 -268 311 -268 352 -303 c 0,26,27
 387 -332 387 -332 439.5 -344 c 128,-1,28
 492 -356 492 -356 592 -358 c 1,29,30
 498 -332 498 -332 460 -272.5 c 128,-1,31
 422 -213 422 -213 422 -92 c 2,32,-1
 422 262 l 2,33,34
 422 336 422 336 415 386 c 128,-1,35
 408 436 408 436 388.5 469 c 128,-1,36
 369 502 369 502 335 522.5 c 128,-1,37
 301 543 301 543 250 559 c 1,38,39
 301 573 301 573 334 593.5 c 128,-1,40
 367 614 367 614 386.5 646 c 128,-1,41
 406 678 406 678 414 724 c 128,-1,42
 422 770 422 770 422 838 c 2,43,-1
 422 1219 l 2,0,1
EndSplineSet
Validated: 9
EndChar

StartChar: bar
Encoding: 38 124 40
Width: 819
GlyphClass: 2
Flags: W
LayerCount: 2
Fore
SplineSet
352 1487 m 1,0,-1
 467 1487 l 1,1,-1
 467 0 l 1,2,-1
 352 0 l 1,3,-1
 352 1487 l 1,0,-1
EndSplineSet
Validated: 1
EndChar

StartChar: braceright
Encoding: 39 125 41
Width: 682
GlyphClass: 2
Flags: W
LayerCount: 2
Fore
SplineSet
408 309 m 2,0,1
 408 371 408 371 414 412 c 128,-1,2
 420 453 420 453 437.5 480.5 c 128,-1,3
 455 508 455 508 485.5 525.5 c 128,-1,4
 516 543 516 543 563 559 c 1,5,6
 518 573 518 573 488.5 592.5 c 128,-1,7
 459 612 459 612 440.5 641 c 128,-1,8
 422 670 422 670 415 709 c 128,-1,9
 408 748 408 748 408 803 c 2,10,-1
 408 1184 l 2,11,12
 408 1360 408 1360 330 1430 c 0,13,14
 293 1458 293 1458 239.5 1471.5 c 128,-1,15
 186 1485 186 1485 90 1487 c 1,16,17
 139 1470 139 1470 171 1448.5 c 128,-1,18
 203 1427 203 1427 223.5 1396.5 c 128,-1,19
 244 1366 244 1366 252 1322 c 128,-1,20
 260 1278 260 1278 260 1219 c 2,21,-1
 260 838 l 2,22,23
 260 770 260 770 268 724 c 128,-1,24
 276 678 276 678 295.5 646 c 128,-1,25
 315 614 315 614 348 593.5 c 128,-1,26
 381 573 381 573 432 559 c 1,27,28
 379 543 379 543 346 522.5 c 128,-1,29
 313 502 313 502 293.5 469 c 128,-1,30
 274 436 274 436 267 386 c 128,-1,31
 260 336 260 336 260 262 c 2,32,-1
 260 -92 l 2,33,34
 260 -213 260 -213 222 -272.5 c 128,-1,35
 184 -332 184 -332 90 -358 c 1,36,37
 188 -356 188 -356 239.5 -346 c 128,-1,38
 291 -336 291 -336 324 -307 c 0,39,40
 369 -272 369 -272 388.5 -207.5 c 128,-1,41
 408 -143 408 -143 408 -35 c 2,42,-1
 408 309 l 2,0,1
EndSplineSet
Validated: 9
EndChar

StartChar: asciitilde
Encoding: 40 126 42
Width: 1241
GlyphClass: 2
Flags: W
LayerCount: 2
Fore
SplineSet
1067 698 m 1,0,1
 971 526 971 526 852 526 c 0,2,3
 838 526 838 526 822.5 529 c 128,-1,4
 807 532 807 532 784.5 539.5 c 128,-1,5
 762 547 762 547 730 560 c 128,-1,6
 698 573 698 573 651 594 c 0,7,8
 596 618 596 618 557 633.5 c 128,-1,9
 518 649 518 649 488.5 658.5 c 128,-1,10
 459 668 459 668 435.5 671 c 128,-1,11
 412 674 412 674 389 674 c 0,12,13
 311 674 311 674 245.5 617.5 c 128,-1,14
 180 561 180 561 104 428 c 1,15,-1
 174 373 l 1,16,17
 236 477 236 477 283 517 c 128,-1,18
 330 557 330 557 391 557 c 0,19,20
 410 557 410 557 425 555 c 128,-1,21
 440 553 440 553 459.5 547 c 128,-1,22
 479 541 479 541 509 528.5 c 128,-1,23
 539 516 539 516 588 496 c 0,24,25
 645 471 645 471 687 454.5 c 128,-1,26
 729 438 729 438 760 429 c 128,-1,27
 791 420 791 420 812.5 416 c 128,-1,28
 834 412 834 412 854 412 c 0,29,30
 932 412 932 412 1001.5 467 c 128,-1,31
 1071 522 1071 522 1137 643 c 1,32,-1
 1067 698 l 1,0,1
EndSplineSet
Validated: 9
EndChar

StartChar: exclamdown
Encoding: 42 161 43
Width: 569
GlyphClass: 2
Flags: W
LayerCount: 2
Fore
SplineSet
236 -461 m 1,0,-1
 389 -383 l 1,1,2
 385 -305 385 -305 382 -257 c 128,-1,3
 379 -209 379 -209 375 -166 c 2,4,-1
 322 459 l 2,5,6
 317 498 317 498 317 508 c 0,7,8
 317 520 317 520 317 541 c 1,9,-1
 297 551 l 1,10,-1
 240 504 l 1,11,-1
 240 453 l 1,12,-1
 190 -117 l 2,13,14
 188 -133 188 -133 186 -153.5 c 128,-1,15
 184 -174 184 -174 180 -215 c 0,16,17
 172 -289 172 -289 169 -331 c 128,-1,18
 166 -373 166 -373 166 -410 c 2,19,-1
 166 -461 l 1,20,-1
 236 -461 l 1,0,-1
283 961 m 256,21,22
 236 961 236 961 201 925 c 128,-1,23
 166 889 166 889 166 842 c 256,24,25
 166 795 166 795 201 759 c 128,-1,26
 236 723 236 723 281 723 c 0,27,28
 330 723 330 723 366.5 758 c 128,-1,29
 403 793 403 793 403 840 c 256,30,31
 403 887 403 887 366.5 924 c 128,-1,32
 330 961 330 961 283 961 c 256,21,22
EndSplineSet
Validated: 9
EndChar

StartChar: brokenbar
Encoding: 43 166 44
Width: 1241
GlyphClass: 2
Flags: W
LayerCount: 2
Fore
SplineSet
563 0 m 1,0,-1
 678 0 l 1,1,-1
 678 598 l 1,2,-1
 563 598 l 1,3,-1
 563 0 l 1,0,-1
563 1487 m 1,4,-1
 563 899 l 1,5,-1
 678 899 l 1,6,-1
 678 1487 l 1,7,-1
 563 1487 l 1,4,-1
EndSplineSet
Validated: 9
EndChar

StartChar: section
Encoding: 44 167 45
Width: 1024
GlyphClass: 2
Flags: W
LayerCount: 2
Fore
SplineSet
825 1067 m 1,0,1
 829 1155 829 1155 834.5 1222.5 c 128,-1,2
 840 1290 840 1290 852 1378 c 1,3,4
 782 1417 782 1417 718.5 1434.5 c 128,-1,5
 655 1452 655 1452 580 1452 c 0,6,7
 483 1452 483 1452 397 1415 c 128,-1,8
 311 1378 311 1378 245.5 1315.5 c 128,-1,9
 180 1253 180 1253 142 1169 c 128,-1,10
 104 1085 104 1085 104 993 c 0,11,12
 104 870 104 870 223 782 c 1,13,14
 53 657 53 657 53 498 c 0,15,16
 53 446 53 446 72.5 400 c 128,-1,17
 92 354 92 354 127 326 c 0,18,19
 152 303 152 303 177.5 286.5 c 128,-1,20
 203 270 203 270 235.5 254 c 128,-1,21
 268 238 268 238 313 221.5 c 128,-1,22
 358 205 358 205 420 184 c 0,23,24
 483 164 483 164 527 148.5 c 128,-1,25
 571 133 571 133 602 121 c 128,-1,26
 633 109 633 109 653.5 97.5 c 128,-1,27
 674 86 674 86 692 74 c 0,28,29
 786 6 786 6 786 -96 c 0,30,31
 786 -209 786 -209 701 -275.5 c 128,-1,32
 616 -342 616 -342 473 -342 c 0,33,34
 377 -342 377 -342 315.5 -315.5 c 128,-1,35
 254 -289 254 -289 190 -221 c 1,36,-1
 180 -37 l 1,37,-1
 115 -37 l 1,38,39
 113 -80 113 -80 111 -117 c 128,-1,40
 109 -154 109 -154 105.5 -191.5 c 128,-1,41
 102 -229 102 -229 99 -269 c 128,-1,42
 96 -309 96 -309 90 -358 c 1,43,44
 252 -449 252 -449 412 -449 c 0,45,46
 508 -449 508 -449 598 -409 c 128,-1,47
 688 -369 688 -369 758.5 -304.5 c 128,-1,48
 829 -240 829 -240 872 -157 c 128,-1,49
 915 -74 915 -74 915 14 c 0,50,51
 915 92 915 92 886.5 142.5 c 128,-1,52
 858 193 858 193 793 227 c 1,53,54
 879 299 879 299 915.5 367.5 c 128,-1,55
 952 436 952 436 952 518 c 0,56,57
 952 575 952 575 933.5 620.5 c 128,-1,58
 915 666 915 666 872 703.5 c 128,-1,59
 829 741 829 741 759.5 774 c 128,-1,60
 690 807 690 807 588 840 c 0,61,62
 518 862 518 862 472 877.5 c 128,-1,63
 426 893 426 893 395.5 905.5 c 128,-1,64
 365 918 365 918 345.5 929 c 128,-1,65
 326 940 326 940 307 952 c 0,66,67
 262 981 262 981 242.5 1017 c 128,-1,68
 223 1053 223 1053 223 1100 c 0,69,70
 223 1153 223 1153 243.5 1198 c 128,-1,71
 264 1243 264 1243 302 1276 c 128,-1,72
 340 1309 340 1309 391 1327.5 c 128,-1,73
 442 1346 442 1346 504 1346 c 0,74,75
 575 1346 575 1346 630.5 1323 c 128,-1,76
 686 1300 686 1300 752 1245 c 1,77,-1
 762 1067 l 1,78,-1
 825 1067 l 1,0,1
276 756 m 1,79,80
 297 748 297 748 314.5 741.5 c 128,-1,81
 332 735 332 735 350.5 728 c 128,-1,82
 369 721 369 721 394.5 714 c 128,-1,83
 420 707 420 707 461 694 c 0,84,85
 514 678 514 678 553 665.5 c 128,-1,86
 592 653 592 653 622.5 642 c 128,-1,87
 653 631 653 631 676.5 619.5 c 128,-1,88
 700 608 700 608 723 594 c 0,89,90
 817 535 817 535 817 436 c 0,91,92
 817 395 817 395 801.5 353 c 128,-1,93
 786 311 786 311 748 252 c 1,94,95
 729 260 729 260 713.5 266 c 128,-1,96
 698 272 698 272 680 279.5 c 128,-1,97
 662 287 662 287 637 294 c 128,-1,98
 612 301 612 301 575 313 c 0,99,100
 467 346 467 346 393 376 c 128,-1,101
 319 406 319 406 274 437.5 c 128,-1,102
 229 469 229 469 208.5 503 c 128,-1,103
 188 537 188 537 188 578 c 0,104,105
 188 631 188 631 208.5 672 c 128,-1,106
 229 713 229 713 276 756 c 1,79,80
EndSplineSet
Validated: 9
EndChar

StartChar: dieresis
Encoding: 45 168 46
Width: 682
GlyphClass: 2
Flags: W
LayerCount: 2
Fore
SplineSet
139 1305 m 0,0,1
 92 1305 92 1305 63.5 1277 c 128,-1,2
 35 1249 35 1249 35 1202 c 256,3,4
 35 1155 35 1155 62.5 1127.5 c 128,-1,5
 90 1100 90 1100 137 1100 c 256,6,7
 184 1100 184 1100 212 1127.5 c 128,-1,8
 240 1155 240 1155 240 1202 c 0,9,10
 240 1247 240 1247 212 1276 c 128,-1,11
 184 1305 184 1305 139 1305 c 0,0,1
547 1305 m 0,12,13
 500 1305 500 1305 471 1277 c 128,-1,14
 442 1249 442 1249 442 1202 c 256,15,16
 442 1155 442 1155 470 1127.5 c 128,-1,17
 498 1100 498 1100 545 1100 c 256,18,19
 592 1100 592 1100 619.5 1127.5 c 128,-1,20
 647 1155 647 1155 647 1202 c 0,21,22
 647 1247 647 1247 619.5 1276 c 128,-1,23
 592 1305 592 1305 547 1305 c 0,12,13
EndSplineSet
Validated: 9
EndChar

StartChar: guillemotleft
Encoding: 46 171 47
Width: 1024
GlyphClass: 2
Flags: W
LayerCount: 2
Fore
SplineSet
266 508 m 1,0,-1
 510 850 l 1,1,-1
 463 877 l 1,2,-1
 102 520 l 1,3,-1
 102 496 l 1,4,-1
 463 145 l 1,5,-1
 510 176 l 1,6,-1
 266 508 l 1,0,-1
678 508 m 1,7,-1
 922 850 l 1,8,-1
 874 877 l 1,9,-1
 514 520 l 1,10,-1
 514 496 l 1,11,-1
 874 145 l 1,12,-1
 922 176 l 1,13,-1
 678 508 l 1,7,-1
EndSplineSet
Validated: 9
EndChar

StartChar: logicalnot
Encoding: 47 172 48
Width: 1241
GlyphClass: 2
Flags: W
LayerCount: 2
Fore
SplineSet
1014 246 m 1,0,-1
 1128 246 l 1,1,-1
 1128 791 l 1,2,-1
 104 791 l 1,3,-1
 104 676 l 1,4,-1
 1014 676 l 1,5,-1
 1014 246 l 1,0,-1
EndSplineSet
Validated: 9
EndChar

StartChar: macron
Encoding: 49 175 49
AltUni2: 0002c9.ffffffff.0
Width: 682
GlyphClass: 2
Flags: W
LayerCount: 2
Fore
SplineSet
662 1102 m 1,0,-1
 662 1210 l 1,1,-1
 23 1210 l 1,2,-1
 23 1102 l 1,3,-1
 662 1102 l 1,0,-1
EndSplineSet
Validated: 9
EndChar

StartChar: degree
Encoding: 50 176 50
Width: 819
GlyphClass: 2
Flags: W
LayerCount: 2
Fore
SplineSet
408 1411 m 0,0,1
 344 1411 344 1411 288.5 1386.5 c 128,-1,2
 233 1362 233 1362 191.5 1321 c 128,-1,3
 150 1280 150 1280 126 1223.5 c 128,-1,4
 102 1167 102 1167 102 1104 c 0,5,6
 102 1040 102 1040 127 984 c 128,-1,7
 152 928 152 928 192.5 887 c 128,-1,8
 233 846 233 846 289.5 821.5 c 128,-1,9
 346 797 346 797 410 797 c 0,10,11
 471 797 471 797 527.5 821.5 c 128,-1,12
 584 846 584 846 626 887 c 128,-1,13
 668 928 668 928 692.5 983 c 128,-1,14
 717 1038 717 1038 717 1100 c 0,15,16
 717 1163 717 1163 692.5 1220.5 c 128,-1,17
 668 1278 668 1278 627 1320 c 128,-1,18
 586 1362 586 1362 528.5 1386.5 c 128,-1,19
 471 1411 471 1411 408 1411 c 0,0,1
408 1329 m 0,20,21
 455 1329 455 1329 496 1310.5 c 128,-1,22
 537 1292 537 1292 567.5 1261.5 c 128,-1,23
 598 1231 598 1231 616.5 1189 c 128,-1,24
 635 1147 635 1147 635 1100 c 0,25,26
 635 1055 635 1055 616.5 1015 c 128,-1,27
 598 975 598 975 567.5 944 c 128,-1,28
 537 913 537 913 496 896 c 128,-1,29
 455 879 455 879 410 879 c 0,30,31
 362 879 362 879 321.5 896 c 128,-1,32
 281 913 281 913 250 944 c 128,-1,33
 219 975 219 975 201.5 1016 c 128,-1,34
 184 1057 184 1057 184 1104 c 256,35,36
 184 1151 184 1151 201.5 1192 c 128,-1,37
 219 1233 219 1233 250 1263.5 c 128,-1,38
 281 1294 281 1294 320.5 1311.5 c 128,-1,39
 360 1329 360 1329 408 1329 c 0,20,21
EndSplineSet
Validated: 9
EndChar

StartChar: plusminus
Encoding: 51 177 51
Width: 1241
GlyphClass: 2
Flags: W
LayerCount: 2
Fore
SplineSet
563 592 m 1,0,-1
 104 592 l 1,1,-1
 104 477 l 1,2,-1
 563 477 l 1,3,-1
 563 199 l 1,4,-1
 678 199 l 1,5,-1
 678 477 l 1,6,-1
 1137 477 l 1,7,-1
 1137 592 l 1,8,-1
 678 592 l 1,9,-1
 678 1049 l 1,10,-1
 563 1049 l 1,11,-1
 563 592 l 1,0,-1
1137 0 m 1,12,-1
 1137 115 l 1,13,-1
 104 115 l 1,14,-1
 104 0 l 1,15,-1
 1137 0 l 1,12,-1
EndSplineSet
Validated: 9
EndChar

StartChar: uni00B2
Encoding: 52 178 52
Width: 614
GlyphClass: 2
Flags: W
LayerCount: 2
Fore
SplineSet
12 596 m 1,0,-1
 12 555 l 1,1,2
 92 557 92 557 140 558 c 128,-1,3
 188 559 188 559 217 559 c 256,4,5
 246 559 246 559 260 559 c 0,6,7
 276 559 276 559 293 559 c 0,8,9
 330 559 330 559 396.5 558 c 128,-1,10
 463 557 463 557 582 555 c 1,11,-1
 580 569 l 2,12,13
 578 586 578 586 578 594 c 256,14,15
 578 602 578 602 578 616 c 0,16,17
 578 629 578 629 578 637 c 0,18,19
 578 647 578 647 580 664 c 2,20,-1
 582 678 l 1,21,22
 518 676 518 676 477 675 c 128,-1,23
 436 674 436 674 396 672 c 128,-1,24
 356 670 356 670 304 669 c 128,-1,25
 252 668 252 668 166 666 c 1,26,-1
 379 887 l 2,27,28
 424 934 424 934 454.5 972 c 128,-1,29
 485 1010 485 1010 503.5 1043.5 c 128,-1,30
 522 1077 522 1077 529.5 1108 c 128,-1,31
 537 1139 537 1139 537 1174 c 0,32,33
 537 1280 537 1280 468 1342.5 c 128,-1,34
 399 1405 399 1405 279 1405 c 0,35,36
 209 1405 209 1405 159 1384.5 c 128,-1,37
 109 1364 109 1364 61 1317 c 1,38,-1
 39 1143 l 1,39,-1
 88 1143 l 1,40,-1
 106 1204 l 2,41,42
 121 1253 121 1253 153.5 1275.5 c 128,-1,43
 186 1298 186 1298 246 1298 c 0,44,45
 324 1298 324 1298 368 1255 c 128,-1,46
 412 1212 412 1212 412 1139 c 0,47,48
 412 1071 412 1071 369 997.5 c 128,-1,49
 326 924 326 924 223 817 c 2,50,-1
 12 596 l 1,0,-1
EndSplineSet
Validated: 9
EndChar

StartChar: uni00B3
Encoding: 53 179 53
Width: 614
GlyphClass: 2
Flags: W
LayerCount: 2
Fore
SplineSet
45 1161 m 1,0,-1
 96 1161 l 1,1,-1
 121 1233 l 2,2,3
 131 1262 131 1262 176 1286.5 c 128,-1,4
 221 1311 221 1311 268 1311 c 0,5,6
 326 1311 326 1311 366 1271 c 128,-1,7
 406 1231 406 1231 406 1178 c 0,8,9
 406 1112 406 1112 360.5 1065 c 128,-1,10
 315 1018 315 1018 254 1018 c 0,11,12
 244 1018 244 1018 229.5 1019 c 128,-1,13
 215 1020 215 1020 190 1022 c 1,14,-1
 174 948 l 1,15,-1
 188 936 l 1,16,17
 223 952 223 952 245.5 957.5 c 128,-1,18
 268 963 268 963 293 963 c 0,19,20
 367 963 367 963 408 918.5 c 128,-1,21
 449 874 449 874 449 795 c 0,22,23
 449 705 449 705 399.5 651.5 c 128,-1,24
 350 598 350 598 266 598 c 0,25,26
 164 598 164 598 106 668 c 0,27,28
 92 686 92 686 82 705.5 c 128,-1,29
 72 725 72 725 55 772 c 1,30,-1
 10 756 l 1,31,32
 31 696 31 696 41 655 c 128,-1,33
 51 614 51 614 55 567 c 1,34,-1
 70 563 l 2,35,36
 117 547 117 547 155 541 c 128,-1,37
 193 535 193 535 227 535 c 0,38,39
 293 535 293 535 355.5 560.5 c 128,-1,40
 418 586 418 586 467 628 c 128,-1,41
 516 670 516 670 545.5 724 c 128,-1,42
 575 778 575 778 575 836 c 0,43,44
 575 985 575 985 395 1022 c 1,45,46
 461 1075 461 1075 490.5 1121 c 128,-1,47
 520 1167 520 1167 520 1221 c 0,48,49
 520 1303 520 1303 455.5 1354 c 128,-1,50
 391 1405 391 1405 287 1405 c 0,51,52
 221 1405 221 1405 176 1386.5 c 128,-1,53
 131 1368 131 1368 82 1321 c 1,54,-1
 45 1161 l 1,0,-1
EndSplineSet
Validated: 9
EndChar

StartChar: acute
Encoding: 54 180 54
Width: 682
GlyphClass: 2
Flags: W
LayerCount: 2
Fore
SplineSet
160 1036 m 1,0,-1
 242 1036 l 1,1,-1
 537 1221 l 2,2,3
 588 1253 588 1253 603 1270.5 c 128,-1,4
 618 1288 618 1288 618 1317 c 256,5,6
 618 1346 618 1346 600 1366 c 128,-1,7
 582 1386 582 1386 555 1386 c 0,8,9
 510 1386 510 1386 442 1319 c 2,10,-1
 160 1036 l 1,0,-1
EndSplineSet
Validated: 9
EndChar

StartChar: mu
Encoding: 55 181 55
AltUni2: 0003bc.ffffffff.0
Width: 1235
GlyphClass: 2
Flags: W
LayerCount: 2
Fore
SplineSet
203 -483 m 1,0,1
 223 -481 223 -481 248.5 -470 c 128,-1,2
 274 -459 274 -459 296.5 -445.5 c 128,-1,3
 319 -432 319 -432 333.5 -417.5 c 128,-1,4
 348 -403 348 -403 348 -393 c 2,5,-1
 348 -387 l 1,6,-1
 307 16 l 1,7,8
 356 -6 356 -6 396 -15.5 c 128,-1,9
 436 -25 436 -25 489 -25 c 0,10,11
 631 -25 631 -25 721 55 c 2,12,-1
 858 182 l 1,13,14
 858 160 858 160 858 141 c 0,15,16
 858 123 858 123 857 102.5 c 128,-1,17
 856 82 856 82 854 56.5 c 128,-1,18
 852 31 852 31 850 -6 c 1,19,20
 901 -4 901 -4 929.5 -3 c 128,-1,21
 958 -2 958 -2 973.5 -1 c 128,-1,22
 989 0 989 0 997 0 c 0,23,24
 1006 0 1006 0 1018 0 c 256,25,26
 1030 0 1030 0 1038 0 c 0,27,28
 1047 0 1047 0 1063 -1 c 128,-1,29
 1079 -2 1079 -2 1108 -3 c 128,-1,30
 1137 -4 1137 -4 1190 -6 c 1,31,-1
 1190 55 l 1,32,-1
 1106 61 l 2,33,34
 1079 63 1079 63 1064 67.5 c 128,-1,35
 1049 72 1049 72 1041.5 87 c 128,-1,36
 1034 102 1034 102 1032 131 c 128,-1,37
 1030 160 1030 160 1030 209 c 2,38,-1
 1030 952 l 1,39,-1
 1012 961 l 1,40,41
 852 895 852 895 692 877 c 1,42,-1
 692 819 l 1,43,-1
 768 819 l 2,44,45
 799 819 799 819 816.5 815 c 128,-1,46
 834 811 834 811 843 795.5 c 128,-1,47
 852 780 852 780 855 750.5 c 128,-1,48
 858 721 858 721 858 670 c 2,49,-1
 858 336 l 2,50,51
 858 301 858 301 837.5 261 c 128,-1,52
 817 221 817 221 782 186 c 0,53,54
 696 100 696 100 580 100 c 0,55,56
 469 100 469 100 418 162 c 0,57,58
 375 211 375 211 375 348 c 2,59,-1
 375 952 l 1,60,-1
 356 961 l 1,61,62
 197 895 197 895 37 877 c 1,63,-1
 37 819 l 1,64,-1
 113 819 l 2,65,66
 143 819 143 819 160.5 815 c 128,-1,67
 178 811 178 811 187.5 795.5 c 128,-1,68
 197 780 197 780 200 750.5 c 128,-1,69
 203 721 203 721 203 670 c 2,70,-1
 203 -483 l 1,0,1
EndSplineSet
Validated: 9
EndChar

StartChar: paragraph
Encoding: 56 182 56
Width: 1286
GlyphClass: 2
Flags: W
LayerCount: 2
Fore
SplineSet
1206 -246 m 1,0,-1
 1120 -240 l 2,1,2
 1085 -238 1085 -238 1063.5 -229.5 c 128,-1,3
 1042 -221 1042 -221 1031 -201.5 c 128,-1,4
 1020 -182 1020 -182 1016 -147.5 c 128,-1,5
 1012 -113 1012 -113 1012 -55 c 2,6,-1
 1012 1176 l 2,7,8
 1012 1227 1012 1227 1017 1259.5 c 128,-1,9
 1022 1292 1022 1292 1036.5 1311.5 c 128,-1,10
 1051 1331 1051 1331 1075.5 1340.5 c 128,-1,11
 1100 1350 1100 1350 1141 1354 c 2,12,-1
 1206 1360 l 1,13,-1
 1206 1421 l 1,14,15
 1098 1415 1098 1415 1022 1413 c 128,-1,16
 946 1411 946 1411 862 1411 c 0,17,18
 827 1411 827 1411 785 1412 c 128,-1,19
 743 1413 743 1413 703.5 1414 c 128,-1,20
 664 1415 664 1415 627 1416 c 128,-1,21
 590 1417 590 1417 565 1419 c 0,22,23
 524 1421 524 1421 492.5 1422 c 128,-1,24
 461 1423 461 1423 444 1423 c 0,25,26
 365 1423 365 1423 297 1399.5 c 128,-1,27
 229 1376 229 1376 181 1335 c 128,-1,28
 133 1294 133 1294 106.5 1237 c 128,-1,29
 80 1180 80 1180 80 1110 c 0,30,31
 80 940 80 940 233 823 c 0,32,33
 309 766 309 766 385 740.5 c 128,-1,34
 461 715 461 715 573 707 c 1,35,-1
 573 -55 l 2,36,37
 573 -113 573 -113 569 -147.5 c 128,-1,38
 565 -182 565 -182 554 -201.5 c 128,-1,39
 543 -221 543 -221 521.5 -229.5 c 128,-1,40
 500 -238 500 -238 465 -240 c 2,41,-1
 379 -246 l 1,42,-1
 379 -307 l 1,43,44
 459 -305 459 -305 518.5 -304 c 128,-1,45
 578 -303 578 -303 625 -302 c 128,-1,46
 672 -301 672 -301 711 -301 c 0,47,48
 752 -301 752 -301 793 -301 c 0,49,50
 831 -301 831 -301 872 -301 c 256,51,52
 913 -301 913 -301 960.5 -302 c 128,-1,53
 1008 -303 1008 -303 1067 -304 c 128,-1,54
 1126 -305 1126 -305 1206 -307 c 1,55,-1
 1206 -246 l 1,0,-1
573 782 m 1,56,57
 444 811 444 811 375.5 887 c 128,-1,58
 307 963 307 963 307 1077 c 0,59,60
 307 1135 307 1135 324.5 1184 c 128,-1,61
 342 1233 342 1233 374 1268 c 128,-1,62
 406 1303 406 1303 449 1323 c 128,-1,63
 492 1343 492 1343 543 1343 c 0,64,65
 547 1343 547 1343 555 1343 c 256,66,67
 563 1343 563 1343 573 1341 c 1,68,-1
 573 782 l 1,56,57
862 1341 m 1,69,-1
 862 -246 l 1,70,-1
 723 -246 l 1,71,-1
 723 1341 l 1,72,-1
 862 1341 l 1,69,-1
EndSplineSet
Validated: 9
EndChar

StartChar: periodcentered
Encoding: 57 183 57
AltUni2: 002219.ffffffff.0
Width: 512
GlyphClass: 2
Flags: W
LayerCount: 2
Fore
SplineSet
254 653 m 256,0,1
 207 653 207 653 172 617.5 c 128,-1,2
 137 582 137 582 137 535 c 0,3,4
 137 487 137 487 172 451.5 c 128,-1,5
 207 416 207 416 252 416 c 0,6,7
 301 416 301 416 338 450.5 c 128,-1,8
 375 485 375 485 375 532 c 0,9,10
 375 580 375 580 338 616.5 c 128,-1,11
 301 653 301 653 254 653 c 256,0,1
EndSplineSet
Validated: 9
EndChar

StartChar: ordmasculine
Encoding: 58 186 58
Width: 682
GlyphClass: 2
Flags: W
LayerCount: 2
Fore
SplineSet
354 1452 m 0,0,1
 281 1452 281 1452 219.5 1429.5 c 128,-1,2
 158 1407 158 1407 114 1366 c 128,-1,3
 70 1325 70 1325 45 1267.5 c 128,-1,4
 20 1210 20 1210 20 1143 c 0,5,6
 20 1012 20 1012 103 932 c 128,-1,7
 186 852 186 852 322 852 c 0,8,9
 393 852 393 852 454.5 876.5 c 128,-1,10
 516 901 516 901 562 942 c 128,-1,11
 608 983 608 983 635 1039.5 c 128,-1,12
 662 1096 662 1096 662 1161 c 0,13,14
 662 1225 662 1225 639 1278 c 128,-1,15
 616 1331 616 1331 575.5 1370 c 128,-1,16
 535 1409 535 1409 478.5 1430.5 c 128,-1,17
 422 1452 422 1452 354 1452 c 0,0,1
326 1411 m 0,18,19
 371 1411 371 1411 410 1389.5 c 128,-1,20
 449 1368 449 1368 477.5 1330 c 128,-1,21
 506 1292 506 1292 522.5 1240 c 128,-1,22
 539 1188 539 1188 539 1128 c 0,23,24
 539 1022 539 1022 488.5 957.5 c 128,-1,25
 438 893 438 893 354 893 c 0,26,27
 260 893 260 893 201.5 975 c 128,-1,28
 143 1057 143 1057 143 1186 c 0,29,30
 143 1296 143 1296 190.5 1353.5 c 128,-1,31
 238 1411 238 1411 326 1411 c 0,18,19
EndSplineSet
Validated: 9
EndChar

StartChar: guillemotright
Encoding: 59 187 59
Width: 1024
GlyphClass: 2
Flags: W
LayerCount: 2
Fore
SplineSet
514 176 m 1,0,-1
 561 145 l 1,1,-1
 922 496 l 1,2,-1
 922 520 l 1,3,-1
 561 877 l 1,4,-1
 514 850 l 1,5,-1
 758 508 l 1,6,-1
 514 176 l 1,0,-1
102 176 m 1,7,-1
 150 145 l 1,8,-1
 510 496 l 1,9,-1
 510 520 l 1,10,-1
 150 877 l 1,11,-1
 102 850 l 1,12,-1
 346 508 l 1,13,-1
 102 176 l 1,7,-1
EndSplineSet
Validated: 9
EndChar

StartChar: questiondown
Encoding: 60 191 60
Width: 909
GlyphClass: 2
Flags: W
LayerCount: 2
Fore
SplineSet
809 -170 m 1,0,-1
 750 -154 l 1,1,-1
 709 -252 l 2,2,3
 692 -293 692 -293 645 -315.5 c 128,-1,4
 598 -338 598 -338 530 -338 c 0,5,6
 420 -338 420 -338 349.5 -275.5 c 128,-1,7
 279 -213 279 -213 279 -115 c 0,8,9
 279 -84 279 -84 286 -55.5 c 128,-1,10
 293 -27 293 -27 311.5 6 c 128,-1,11
 330 39 330 39 360.5 78 c 128,-1,12
 391 117 391 117 436 166 c 0,13,14
 481 217 481 217 512 254 c 128,-1,15
 543 291 543 291 561.5 321.5 c 128,-1,16
 580 352 580 352 587 376.5 c 128,-1,17
 594 401 594 401 594 428 c 0,18,19
 594 520 594 520 504 578 c 1,20,-1
 461 549 l 1,21,22
 485 518 485 518 495.5 496.5 c 128,-1,23
 506 475 506 475 506 451 c 0,24,25
 506 426 506 426 499 403.5 c 128,-1,26
 492 381 492 381 471.5 354.5 c 128,-1,27
 451 328 451 328 413 290 c 128,-1,28
 375 252 375 252 313 197 c 0,29,30
 248 137 248 137 204 90 c 128,-1,31
 160 43 160 43 134.5 3 c 128,-1,32
 109 -37 109 -37 98.5 -76 c 128,-1,33
 88 -115 88 -115 88 -158 c 0,34,35
 88 -225 88 -225 116.5 -282.5 c 128,-1,36
 145 -340 145 -340 194.5 -382 c 128,-1,37
 244 -424 244 -424 311.5 -448.5 c 128,-1,38
 379 -473 379 -473 459 -473 c 0,39,40
 528 -473 528 -473 588.5 -457.5 c 128,-1,41
 649 -442 649 -442 731 -401 c 1,42,-1
 809 -170 l 1,0,-1
494 961 m 0,43,44
 446 961 446 961 411.5 925 c 128,-1,45
 377 889 377 889 377 842 c 256,46,47
 377 795 377 795 411.5 759 c 128,-1,48
 446 723 446 723 492 723 c 0,49,50
 541 723 541 723 577.5 758 c 128,-1,51
 614 793 614 793 614 840 c 256,52,53
 614 887 614 887 577.5 924 c 128,-1,54
 541 961 541 961 494 961 c 0,43,44
EndSplineSet
Validated: 9
EndChar

StartChar: florin
Encoding: 61 402 61
Width: 1024
GlyphClass: 2
Flags: W
LayerCount: 2
Fore
SplineSet
637 745 m 1,0,1
 707 743 707 743 753 740 c 128,-1,2
 799 737 799 737 852 733 c 1,3,4
 856 756 856 756 859 777.5 c 128,-1,5
 862 799 862 799 870 844 c 1,6,-1
 655 836 l 1,7,-1
 711 1143 l 2,8,9
 727 1229 727 1229 749.5 1259.5 c 128,-1,10
 772 1290 772 1290 819 1290 c 0,11,12
 860 1290 860 1290 903 1253 c 0,13,14
 909 1247 909 1247 912 1246 c 128,-1,15
 915 1245 915 1245 920 1241 c 1,16,-1
 940 1257 l 1,17,18
 944 1321 944 1321 950 1361 c 128,-1,19
 956 1401 956 1401 969 1446 c 1,20,21
 608 1432 608 1432 479 836 c 1,22,-1
 260 844 l 1,23,-1
 240 735 l 1,24,25
 266 735 266 735 288.5 736 c 128,-1,26
 311 737 311 737 335.5 738 c 128,-1,27
 360 739 360 739 390 741 c 128,-1,28
 420 743 420 743 461 745 c 1,29,-1
 297 -106 l 2,30,31
 281 -186 281 -186 266.5 -239.5 c 128,-1,32
 252 -293 252 -293 235.5 -323.5 c 128,-1,33
 219 -354 219 -354 197.5 -367.5 c 128,-1,34
 176 -381 176 -381 147 -381 c 0,35,36
 94 -381 94 -381 53 -340 c 1,37,-1
 31 -354 l 1,38,39
 25 -403 25 -403 18.5 -443 c 128,-1,40
 12 -483 12 -483 0 -537 c 1,41,42
 373 -532 373 -532 489 33 c 2,43,-1
 637 745 l 1,0,1
EndSplineSet
Validated: 9
EndChar

StartChar: circumflex
Encoding: 62 710 62
Width: 682
GlyphClass: 2
Flags: W
LayerCount: 2
Fore
SplineSet
279 1386 m 1,0,-1
 23 1044 l 1,1,-1
 94 1044 l 1,2,-1
 342 1255 l 1,3,-1
 590 1044 l 1,4,-1
 662 1044 l 1,5,-1
 406 1386 l 1,6,-1
 279 1386 l 1,0,-1
EndSplineSet
Validated: 9
EndChar

StartChar: tilde
Encoding: 64 732 63
Width: 682
GlyphClass: 2
Flags: W
LayerCount: 2
Fore
SplineSet
621 1311 m 1,0,1
 598 1253 598 1253 570.5 1230.5 c 128,-1,2
 543 1208 543 1208 500 1208 c 0,3,4
 481 1208 481 1208 460.5 1215.5 c 128,-1,5
 440 1223 440 1223 403 1239 c 0,6,7
 362 1260 362 1260 335.5 1272 c 128,-1,8
 309 1284 309 1284 289.5 1290 c 128,-1,9
 270 1296 270 1296 255 1298 c 128,-1,10
 240 1300 240 1300 221 1300 c 0,11,12
 49 1300 49 1300 4 1096 c 1,13,-1
 63 1096 l 1,14,15
 102 1188 102 1188 172 1188 c 0,16,17
 195 1188 195 1188 227.5 1175.5 c 128,-1,18
 260 1163 260 1163 317 1135 c 0,19,20
 365 1112 365 1112 393.5 1104 c 128,-1,21
 422 1096 422 1096 457 1096 c 0,22,23
 500 1096 500 1096 540 1112 c 128,-1,24
 580 1128 580 1128 609.5 1158 c 128,-1,25
 639 1188 639 1188 657.5 1227 c 128,-1,26
 676 1266 676 1266 680 1311 c 1,27,-1
 621 1311 l 1,0,1
EndSplineSet
Validated: 9
EndChar

StartChar: uni0304
Encoding: 65 772 64
Width: 2
GlyphClass: 4
Flags: W
LayerCount: 2
Fore
SplineSet
-205 1638 m 1,0,-1
 -205 2150 l 1,1,-1
 -307 2150 l 1,2,-1
 -307 1638 l 1,3,-1
 -205 1638 l 1,0,-1
-532 1638 m 1,4,-1
 -532 2150 l 1,5,-1
 -635 2150 l 1,6,-1
 -635 1638 l 1,7,-1
 -532 1638 l 1,4,-1
EndSplineSet
Validated: 9
EndChar

StartChar: uni030D
Encoding: 66 781 65
Width: 2
GlyphClass: 4
Flags: W
LayerCount: 2
Fore
SplineSet
-266 1638 m 1,0,-1
 -266 2150 l 1,1,-1
 -369 2150 l 1,2,-1
 -369 1638 l 1,3,-1
 -266 1638 l 1,0,-1
EndSplineSet
Validated: 9
EndChar

StartChar: uni0331
Encoding: 67 817 66
Width: 2
GlyphClass: 4
Flags: W
LayerCount: 2
Fore
SplineSet
-158 -575 m 1,0,-1
 -158 -467 l 1,1,-1
 -797 -467 l 1,2,-1
 -797 -575 l 1,3,-1
 -158 -575 l 1,0,-1
EndSplineSet
Validated: 9
EndChar

StartChar: uni0901
Encoding: 69 2305 67
Width: 0
GlyphClass: 4
Flags: W
AnchorPoint: "Anchor-3" 150 1251 basemark 0
AnchorPoint: "Anchor-1" -330 1246 mark 0
AnchorPoint: "Anchor-0" -317 1248 mark 0
LayerCount: 2
Fore
SplineSet
-250 1681 m 1,0,-1
 -284 1633 l 2,1,2
 -301 1614 -301 1614 -343 1604 c 0,3,4
 -356 1604 -356 1604 -439 1690 c 2,5,-1
 -467 1719 l 2,6,7
 -473 1728 -473 1728 -477 1746 c 1,8,9
 -477 1772 -477 1772 -433 1818 c 0,10,11
 -372 1881 -372 1881 -336 1881 c 0,12,13
 -317 1881 -317 1881 -292 1862 c 2,14,-1
 -263 1835 l 2,15,16
 -208 1784 -208 1784 -208 1751 c 0,17,18
 -208 1731 -208 1731 -225 1711 c 2,19,-1
 -250 1681 l 1,0,-1
46 1717 m 0,20,21
 -11 1571 -11 1571 -80 1496 c 0,22,23
 -182 1385 -182 1385 -330 1385 c 0,24,25
 -446 1385 -446 1385 -558 1484 c 0,26,27
 -651 1566 -651 1566 -711 1688 c 0,28,29
 -736 1739 -736 1739 -736 1765 c 256,30,31
 -736 1791 -736 1791 -719 1791 c 0,32,33
 -696 1791 -696 1791 -664 1742 c 0,34,35
 -590 1627 -590 1627 -531 1579 c 0,36,37
 -447 1511 -447 1511 -336 1511 c 256,38,39
 -225 1511 -225 1511 -124 1597 c 0,40,41
 -42 1667 -42 1667 -17 1738 c 0,42,43
 2 1791 2 1791 38 1791 c 0,44,45
 59 1791 59 1791 59 1763 c 0,46,47
 59 1750 59 1750 46 1717 c 0,20,21
EndSplineSet
Validated: 1
Ligature2: "vowels" uni093D uni200D uni0901
Substitution2: "Single Substitution lookup 27 subtable" glyph85
EndChar

StartChar: uni0902
Encoding: 70 2306 68
Width: 0
GlyphClass: 4
Flags: W
AnchorPoint: "Anchor-3" -50 1251 basemark 0
AnchorPoint: "Anchor-1" -315 1276 mark 0
AnchorPoint: "Anchor-0" -315 1237 mark 0
LayerCount: 2
Fore
SplineSet
-172 1540 m 1,0,-1
 -236 1462 l 1,1,-1
 -288 1404 l 1,2,3
 -310 1392 -310 1392 -322 1392 c 0,4,5
 -338 1392 -338 1392 -406 1472 c 2,6,-1
 -469 1544 l 1,7,-1
 -469 1581 l 1,8,-1
 -394 1683 l 2,9,10
 -366 1721 -366 1721 -338 1737 c 1,11,12
 -310 1737 -310 1737 -172 1581 c 1,13,-1
 -170 1560 l 1,14,-1
 -172 1540 l 1,0,-1
EndSplineSet
Validated: 1
Ligature2: "vowels" uni093D uni200D uni0902
Substitution2: "Single Substitution lookup 28 subtable" U02E0
EndChar

StartChar: uni0903
Encoding: 71 2307 69
Width: 700
GlyphClass: 2
Flags: W
LayerCount: 2
Fore
SplineSet
497 861 m 1,0,-1
 447 799 l 1,1,-1
 377 723 l 2,2,3
 365 714 365 714 348 711 c 0,4,5
 332 711 332 711 264 789 c 2,6,-1
 198 865 l 1,7,-1
 198 899 l 1,8,9
 296 1057 296 1057 330 1057 c 0,10,11
 363 1057 363 1057 497 899 c 1,12,-1
 502 879 l 1,13,-1
 497 861 l 1,0,-1
497 342 m 1,14,-1
 434 263 l 1,15,-1
 377 203 l 2,16,17
 363 192 363 192 348 192 c 0,18,19
 334 192 334 192 264 271 c 2,20,-1
 198 346 l 1,21,-1
 198 381 l 1,22,-1
 275 483 l 2,23,24
 312 532 312 532 330 537 c 1,25,26
 363 537 363 537 497 381 c 1,27,-1
 502 361 l 1,28,-1
 497 342 l 1,14,-1
EndSplineSet
Validated: 1
Ligature2: "vowels" uni093D uni200D uni0903
EndChar

StartChar: uni0904
Encoding: 72 2308 70
Width: 1476
GlyphClass: 2
Flags: W
AnchorPoint: "Anchor-7" 896 3 basechar 0
AnchorPoint: "Anchor-2" 1391 1235 basechar 0
AnchorPoint: "Anchor-1" 1445 1399 basechar 0
LayerCount: 2
Fore
SplineSet
1476 1169 m 1,0,-1
 1337 1169 l 1,1,-1
 1337 39 l 2,2,3
 1337 1 1337 1 1319 -1 c 0,4,5
 1295 -1 1295 -1 1190 125 c 0,6,7
 1165 149 1165 149 1165 179 c 2,8,-1
 1165 594 l 1,9,-1
 1130 603 l 1,10,-1
 1087 597 l 1,11,-1
 1043 594 l 1,12,-1
 1020 588 l 2,13,14
 1005 588 1005 588 943 621 c 128,-1,15
 881 654 881 654 843 654 c 1,16,-1
 882 559 l 2,17,18
 900 515 900 515 900 456 c 0,19,20
 900 300 900 300 785 239 c 0,21,22
 717 203 717 203 636 203 c 0,23,24
 527 203 527 203 443 255 c 0,25,26
 343 317 343 317 291 370 c 0,27,28
 247 416 247 416 178 523 c 0,29,30
 165 542 165 542 133 592 c 0,31,32
 82 672 82 672 44 764 c 1,33,-1
 39 793 l 2,34,35
 39 816 39 816 63 816 c 0,36,37
 108 817 108 817 128 777 c 0,38,39
 230 576 230 576 260 538 c 0,40,41
 370 398 370 398 531 398 c 0,42,43
 619 398 619 398 682 442 c 0,44,45
 754 492 754 492 754 576 c 0,46,47
 754 655 754 655 681 724 c 1,48,-1
 669 731 l 1,49,50
 594 677 594 677 443 677 c 1,51,-1
 361 762 l 2,52,53
 318 807 318 807 316 836 c 1,54,-1
 321 851 l 1,55,56
 347 862 347 862 377 865 c 1,57,-1
 430 862 l 1,58,-1
 486 858 l 2,59,60
 554 853 554 853 621 918 c 0,61,62
 671 967 671 967 671 1046 c 0,63,64
 671 1082 671 1082 654 1135 c 1,65,66
 607 1168 607 1168 544 1168 c 0,67,68
 466 1168 466 1168 388 1131 c 2,69,-1
 260 1070 l 1,70,71
 236 1070 236 1070 195 1131 c 2,72,-1
 128 1231 l 1,73,-1
 122 1245 l 1,74,75
 122 1256 122 1256 157 1267 c 0,76,77
 273 1315 273 1315 430 1312 c 2,78,-1
 486 1311 l 1,79,80
 551 1301 551 1301 600 1269 c 0,81,82
 812 1130 812 1130 812 956 c 0,83,84
 812 881 812 881 763 816 c 0,85,86
 745 792 745 792 745 780 c 0,87,88
 745 770 745 770 763 744 c 2,89,-1
 788 708 l 1,90,-1
 864 706 l 2,91,92
 986 703 986 703 1067 731 c 0,93,94
 1145 758 1145 758 1165 800 c 1,95,-1
 1165 1169 l 1,96,-1
 937 1169 l 1,97,-1
 814 1325 l 1,98,-1
 1476 1325 l 1,99,-1
 1476 1169 l 1,0,-1
1272 1508 m 0,100,101
 1273 1495 1273 1495 1275.5 1478.5 c 128,-1,102
 1278 1462 1278 1462 1279 1444.5 c 128,-1,103
 1280 1427 1280 1427 1277 1409.5 c 128,-1,104
 1274 1392 1274 1392 1265 1376 c 1,105,106
 1221 1352 1221 1352 1162 1492 c 0,107,108
 1122 1586 1122 1586 938 1580 c 1,109,110
 759 1570 759 1570 748 1578 c 0,111,112
 743 1581 743 1581 734 1589 c 128,-1,113
 725 1597 725 1597 713.5 1606 c 128,-1,114
 702 1615 702 1615 691 1624.5 c 128,-1,115
 680 1634 680 1634 671 1640 c 0,116,117
 629 1678 629 1678 612.5 1736.5 c 128,-1,118
 596 1795 596 1795 601 1868 c 1,119,120
 608 1898 608 1898 618 1900 c 128,-1,121
 628 1902 628 1902 641.5 1887 c 128,-1,122
 655 1872 655 1872 671.5 1844.5 c 128,-1,123
 688 1817 688 1817 708 1788 c 0,124,125
 752 1731 752 1731 867 1729 c 0,126,127
 1050 1729 1050 1729 1135 1690 c 1,128,129
 1251 1654 1251 1654 1272 1508 c 0,100,101
EndSplineSet
Validated: 33
EndChar

StartChar: uni0905
Encoding: 73 2309 71
Width: 1476
GlyphClass: 2
Flags: W
AnchorPoint: "Anchor-7" 740 -5 basechar 0
AnchorPoint: "Anchor-2" 1235 1235 basechar 0
AnchorPoint: "Anchor-1" 1241 1243 basechar 0 {17-17 1} {}
LayerCount: 2
Fore
SplineSet
1476 1169 m 1,0,-1
 1337 1169 l 1,1,-1
 1337 39 l 2,2,3
 1337 1 1337 1 1319 -1 c 0,4,5
 1295 -1 1295 -1 1190 125 c 0,6,7
 1165 149 1165 149 1165 179 c 2,8,-1
 1165 594 l 1,9,-1
 1130 603 l 1,10,-1
 1087 597 l 1,11,-1
 1043 594 l 1,12,-1
 1020 588 l 2,13,14
 1005 588 1005 588 943 621 c 128,-1,15
 881 654 881 654 843 654 c 1,16,-1
 882 559 l 2,17,18
 900 515 900 515 900 456 c 0,19,20
 900 300 900 300 785 239 c 0,21,22
 717 203 717 203 636 203 c 0,23,24
 527 203 527 203 443 255 c 0,25,26
 343 317 343 317 291 370 c 0,27,28
 247 416 247 416 178 523 c 0,29,30
 165 542 165 542 133 592 c 0,31,32
 82 672 82 672 44 764 c 1,33,-1
 39 793 l 2,34,35
 39 816 39 816 63 816 c 0,36,37
 108 817 108 817 128 777 c 0,38,39
 230 576 230 576 260 538 c 0,40,41
 370 398 370 398 531 398 c 0,42,43
 619 398 619 398 682 442 c 0,44,45
 754 492 754 492 754 576 c 0,46,47
 754 655 754 655 681 724 c 1,48,-1
 669 731 l 1,49,50
 594 677 594 677 443 677 c 1,51,-1
 361 762 l 2,52,53
 318 807 318 807 316 836 c 1,54,-1
 321 851 l 1,55,56
 347 862 347 862 377 865 c 1,57,-1
 430 862 l 1,58,-1
 486 858 l 2,59,60
 554 853 554 853 621 918 c 0,61,62
 671 967 671 967 671 1046 c 0,63,64
 671 1082 671 1082 654 1135 c 1,65,66
 607 1168 607 1168 544 1168 c 0,67,68
 466 1168 466 1168 388 1131 c 2,69,-1
 260 1070 l 1,70,71
 236 1070 236 1070 195 1131 c 2,72,-1
 128 1231 l 1,73,-1
 122 1245 l 1,74,75
 122 1256 122 1256 157 1267 c 0,76,77
 273 1315 273 1315 430 1312 c 2,78,-1
 486 1311 l 1,79,80
 551 1301 551 1301 600 1269 c 0,81,82
 812 1130 812 1130 812 956 c 0,83,84
 812 881 812 881 763 816 c 0,85,86
 745 792 745 792 745 780 c 0,87,88
 745 770 745 770 763 744 c 2,89,-1
 788 708 l 1,90,-1
 864 706 l 2,91,92
 986 703 986 703 1067 731 c 0,93,94
 1145 758 1145 758 1165 800 c 1,95,-1
 1165 1169 l 1,96,-1
 937 1169 l 1,97,-1
 814 1325 l 1,98,-1
 1476 1325 l 1,99,-1
 1476 1169 l 1,0,-1
EndSplineSet
Validated: 33
Substitution2: "'aalt' Access All Alternates lookup 1 subtable" uni094E
EndChar

StartChar: uni0906
Encoding: 74 2310 72
Width: 1973
GlyphClass: 2
Flags: W
AnchorPoint: "Anchor-7" 1468 -18 basechar 0
AnchorPoint: "Anchor-2" 1729 1235 basechar 0
AnchorPoint: "Anchor-1" 1729 1243 basechar 0 {11-17 -1,0,0,0,0,0,1} {}
LayerCount: 2
Fore
SplineSet
1336 1168 m 1,0,-1
 1337 41 l 2,1,2
 1337 3 1337 3 1319 1 c 0,3,4
 1295 1 1295 1 1190 128 c 0,5,6
 1165 152 1165 152 1165 182 c 2,7,-1
 1165 593 l 1,8,-1
 1130 602 l 1,9,-1
 1087 596 l 1,10,-1
 1043 593 l 1,11,-1
 1020 587 l 2,12,13
 1005 587 1005 587 943 620 c 128,-1,14
 881 653 881 653 843 653 c 1,15,-1
 882 558 l 2,16,17
 900 514 900 514 900 455 c 0,18,19
 900 299 900 299 785 238 c 0,20,21
 717 202 717 202 636 202 c 0,22,23
 527 202 527 202 443 254 c 0,24,25
 343 316 343 316 291 369 c 0,26,27
 247 415 247 415 178 522 c 0,28,29
 165 541 165 541 133 591 c 0,30,31
 82 671 82 671 44 763 c 1,32,-1
 39 792 l 2,33,34
 39 815 39 815 63 815 c 0,35,36
 108 816 108 816 128 776 c 0,37,38
 230 575 230 575 260 537 c 0,39,40
 370 397 370 397 531 397 c 0,41,42
 619 397 619 397 682 441 c 0,43,44
 754 491 754 491 754 575 c 0,45,46
 754 654 754 654 681 723 c 1,47,-1
 669 730 l 1,48,49
 594 676 594 676 443 676 c 1,50,-1
 361 761 l 2,51,52
 318 806 318 806 316 835 c 1,53,-1
 321 850 l 1,54,55
 347 861 347 861 377 864 c 1,56,-1
 430 861 l 1,57,-1
 486 857 l 2,58,59
 554 852 554 852 621 917 c 0,60,61
 671 966 671 966 671 1045 c 0,62,63
 671 1081 671 1081 654 1134 c 1,64,65
 607 1167 607 1167 544 1167 c 0,66,67
 466 1167 466 1167 388 1130 c 2,68,-1
 260 1069 l 1,69,70
 236 1069 236 1069 195 1130 c 2,71,-1
 128 1230 l 1,72,-1
 122 1244 l 1,73,74
 122 1255 122 1255 157 1266 c 0,75,76
 273 1314 273 1314 430 1311 c 2,77,-1
 486 1310 l 1,78,79
 551 1300 551 1300 600 1268 c 0,80,81
 812 1129 812 1129 812 955 c 0,82,83
 812 880 812 880 763 815 c 0,84,85
 745 791 745 791 745 779 c 0,86,87
 745 769 745 769 763 743 c 2,88,-1
 788 707 l 1,89,-1
 864 705 l 2,90,91
 986 702 986 702 1067 730 c 0,92,93
 1145 757 1145 757 1165 799 c 1,94,-1
 1165 1168 l 1,95,-1
 937 1168 l 1,96,-1
 814 1325 l 1,97,-1
 1973 1325 l 1,98,-1
 1973 1168 l 1,99,-1
 1819 1168 l 1,100,-1
 1819 54 l 2,101,102
 1819 0 1819 0 1806 0 c 0,103,104
 1787 0 1787 0 1664 126 c 0,105,106
 1642 146 1642 146 1638 178 c 1,107,-1
 1638 1168 l 1,108,-1
 1336 1168 l 1,0,-1
EndSplineSet
Validated: 33
Substitution2: "'aalt' Access All Alternates lookup 1 subtable" uni093E
EndChar

StartChar: uni0907
Encoding: 75 2311 73
Width: 899
GlyphClass: 2
Flags: W
AnchorPoint: "Anchor-7" 506 -122 basechar 0
AnchorPoint: "Anchor-2" 624 1235 basechar 0
AnchorPoint: "Anchor-1" 630 1258 basechar 0
LayerCount: 2
Fore
SplineSet
899 1169 m 1,0,-1
 713 1169 l 1,1,-1
 721 1050 l 1,2,-1
 737 889 l 1,3,4
 722 839 722 839 657 843 c 2,5,-1
 548 850 l 1,6,-1
 390 859 l 2,7,8
 320 863 320 863 261 844 c 0,9,10
 189 821 189 821 189 762 c 0,11,12
 189 732 189 732 208 695 c 1,13,-1
 255 691 l 1,14,-1
 367 699 l 1,15,-1
 487 706 l 2,16,17
 520 708 520 708 581 695 c 0,18,19
 623 686 623 686 651 660 c 0,20,21
 782 539 782 539 782 418 c 0,22,23
 782 335 782 335 739 278 c 0,24,25
 710 240 710 240 609 159 c 1,26,-1
 703 75 l 2,27,28
 794 -6 794 -6 889 -62 c 1,29,30
 911 -85 911 -85 912 -110 c 0,31,32
 913 -136 913 -136 885 -153 c 0,33,34
 861 -167 861 -167 833 -167 c 0,35,36
 780 -167 780 -167 737 -126 c 1,37,38
 695 -97 695 -97 657 -50 c 0,39,40
 539 98 539 98 515 118 c 1,41,42
 467 101 467 101 410 101 c 0,43,44
 308 101 308 101 218 148 c 0,45,46
 109 205 109 205 109 298 c 1,47,-1
 114 337 l 1,48,49
 135 425 135 425 247 425 c 0,50,51
 360 425 360 425 428 370 c 0,52,53
 457 347 457 347 494 347 c 0,54,55
 546 347 546 347 582.5 382 c 128,-1,56
 619 417 619 417 627 469 c 2,57,-1
 636 525 l 1,58,59
 636 592 636 592 557 592 c 1,60,-1
 459 546 l 2,61,62
 416 526 416 526 366 526 c 0,63,64
 260 526 260 526 127 660 c 0,65,66
 31 757 31 757 31 844 c 0,67,68
 31 908 31 908 77 955 c 0,69,70
 116 995 116 995 147 998 c 2,71,-1
 248 1008 l 1,72,-1
 344 1011 l 1,73,-1
 423 1008 l 1,74,-1
 482 1004 l 2,75,76
 521 1001 521 1001 545 1022 c 1,77,-1
 545 1169 l 1,78,-1
 0 1169 l 1,79,-1
 0 1325 l 1,80,-1
 899 1325 l 1,81,-1
 899 1169 l 1,0,-1
EndSplineSet
Validated: 33
Substitution2: "'aalt' Access All Alternates lookup 1 subtable" uni093F
EndChar

StartChar: uni0908
Encoding: 76 2312 74
Width: 900
GlyphClass: 2
Flags: W
AnchorPoint: "Anchor-7" 467 -161 basechar 0
AnchorPoint: "Anchor-2" 975 1235 basechar 0
AnchorPoint: "Anchor-1" 823 1269 basechar 0 {12-17 -1,0,0,0,0,1} {}
LayerCount: 2
Fore
SplineSet
913 -110 m 0,0,1
 913 -171 913 -171 833 -167 c 0,2,3
 789 -165 789 -165 760 -145 c 0,4,5
 750 -138 750 -138 738 -125 c 2,6,-1
 518 119 l 1,7,8
 463 101 463 101 411 101 c 0,9,10
 309 101 309 101 219 148 c 0,11,12
 109 205 109 205 109 298 c 1,13,-1
 115 337 l 1,14,15
 144 425 144 425 247 425 c 0,16,17
 309 425 309 425 353 404 c 1,18,19
 404 394 404 394 433 366 c 1,20,21
 458 348 458 348 496 348 c 0,22,23
 602 348 602 348 628 471 c 0,24,25
 628 482 628 482 633 491 c 2,26,-1
 638 525 l 1,27,28
 638 592 638 592 556 592 c 1,29,30
 494 559 494 559 459 546 c 0,31,32
 407 526 407 526 366 526 c 256,33,34
 325 526 325 526 256 556 c 1,35,36
 213 580 213 580 127 661 c 0,37,38
 32 750 32 750 32 844 c 0,39,40
 32 909 32 909 78 957 c 0,41,42
 115 996 115 996 160 1001 c 0,43,44
 185 1007 185 1007 243 1009 c 2,45,-1
 345 1012 l 1,46,-1
 424 1008 l 1,47,-1
 483 1004 l 2,48,49
 515 1002 515 1002 545 1022 c 1,50,-1
 545 1169 l 1,51,-1
 0 1169 l 1,52,-1
 0 1325 l 1,53,-1
 608 1325 l 1,54,-1
 423 1569 l 2,55,56
 377 1634 377 1634 358 1679 c 0,57,58
 323 1761 323 1761 323 1835 c 0,59,60
 323 1941 323 1941 377 2003 c 0,61,62
 434 2069 434 2069 538 2069 c 0,63,64
 645 2069 645 2069 759 1974 c 0,65,66
 877 1875 877 1875 877 1770 c 1,67,68
 869 1758 869 1758 864 1749 c 2,69,-1
 852 1732 l 1,70,-1
 839 1747 l 1,71,72
 758 1881 758 1881 659 1881 c 0,73,74
 625 1881 625 1881 599 1873 c 1,75,76
 577 1862 577 1862 536 1834 c 1,77,78
 503 1770 503 1770 503 1711 c 0,79,80
 503 1596 503 1596 595 1477 c 0,81,82
 662 1391 662 1391 749 1325 c 1,83,-1
 900 1325 l 1,84,-1
 900 1169 l 1,85,-1
 715 1169 l 1,86,-1
 718 1111 l 1,87,-1
 738 890 l 1,88,89
 720 842 720 842 658 842 c 1,90,-1
 525 854 l 1,91,-1
 391 859 l 2,92,93
 191 866 191 866 191 762 c 0,94,95
 194 731 194 731 209 697 c 1,96,-1
 256 692 l 1,97,-1
 371 700 l 1,98,-1
 490 706 l 2,99,100
 563 710 563 710 610 685 c 0,101,102
 650 665 650 665 705 605 c 0,103,104
 731 577 731 577 742 558 c 0,105,106
 782 490 782 490 782 417 c 0,107,108
 782 319 782 319 716 249 c 0,109,110
 681 212 681 212 612 160 c 1,111,112
 645 129 645 129 667 106 c 0,113,114
 677 98 677 98 705 74 c 0,115,116
 812 -16 812 -16 889 -62 c 1,117,118
 913 -90 913 -90 913 -110 c 0,0,1
EndSplineSet
Validated: 33
Substitution2: "'aalt' Access All Alternates lookup 1 subtable" uni0940
EndChar

StartChar: uni0909
Encoding: 77 2313 75
Width: 1168
GlyphClass: 2
Flags: W
AnchorPoint: "Anchor-7" 580 -18 basechar 0
AnchorPoint: "Anchor-2" 832 1235 basechar 0
AnchorPoint: "Anchor-1" 839 1234 basechar 0
LayerCount: 2
Fore
SplineSet
1167 1169 m 1,0,-1
 886 1169 l 1,1,2
 974 1017 974 1017 974 903 c 0,3,4
 974 845 974 845 947 795 c 0,5,6
 926 756 926 756 817 646 c 1,7,8
 915 548 915 548 953 488 c 0,9,10
 1026 377 1026 377 1026 273 c 1,11,12
 1010 152 1010 152 923.5 82 c 128,-1,13
 837 12 837 12 714 12 c 0,14,15
 588 12 588 12 462 88 c 0,16,17
 420 114 420 114 378 150 c 0,18,19
 156 341 156 341 8 744 c 1,20,-1
 2 771 l 1,21,22
 2 798 2 798 29 798 c 0,23,24
 80 798 80 798 107 739 c 2,25,-1
 206 526 l 2,26,27
 266 396 266 396 362 314 c 0,28,29
 474 220 474 220 603 220 c 0,30,31
 643 220 643 220 685 229 c 0,32,33
 835 263 835 263 835 423 c 0,34,35
 835 492 835 492 803 546 c 0,36,37
 767 612 767 612 704 612 c 1,38,-1
 665 603 l 2,39,40
 617 591 617 591 578 591 c 0,41,42
 479 591 479 591 457 646 c 0,43,44
 449 664 449 664 402 718 c 0,45,46
 360 767 360 767 360 791 c 0,47,48
 360 804 360 804 368 814 c 1,49,50
 390 826 390 826 419 826 c 1,51,52
 490 809 490 809 553 809 c 0,53,54
 664 809 664 809 735 857 c 0,55,56
 819 913 819 913 819 1018 c 0,57,58
 819 1080 819 1080 783 1169 c 1,59,-1
 0 1169 l 1,60,-1
 0 1325 l 1,61,-1
 1167 1325 l 1,62,-1
 1167 1169 l 1,0,-1
EndSplineSet
Validated: 1
Substitution2: "'aalt' Access All Alternates lookup 1 subtable" uni0941
EndChar

StartChar: uni090A
Encoding: 78 2314 76
Width: 1490
GlyphClass: 2
Flags: W
AnchorPoint: "Anchor-7" 844 -18 basechar 0
AnchorPoint: "Anchor-2" 845 1235 basechar 0
AnchorPoint: "Anchor-1" 843 1245 basechar 0
LayerCount: 2
Fore
SplineSet
1490 1168 m 1,0,-1
 878 1168 l 1,1,2
 969 990 969 990 969 900 c 0,3,4
 969 805 969 805 866 702 c 1,5,-1
 828 672 l 1,6,7
 805 660 805 660 805 654 c 1,8,-1
 814 646 l 1,9,-1
 838 632 l 1,10,-1
 904 664 l 2,11,12
 925 674 925 674 977 696 c 0,13,14
 1065 731 1065 731 1156 731 c 0,15,16
 1306 731 1306 731 1402 612 c 0,17,18
 1490 502 1490 502 1490 349 c 0,19,20
 1490 250 1490 250 1452 159 c 0,21,22
 1433 123 1433 123 1409 119 c 1,23,24
 1378 119 1378 119 1321 183 c 1,25,-1
 1264 230 l 2,26,27
 1235 254 1235 254 1235 296 c 2,28,-1
 1238 332 l 1,29,30
 1266 371 1266 371 1266 428 c 0,31,32
 1266 512 1266 512 1220 572 c 0,33,34
 1170 636 1170 636 1088 636 c 0,35,36
 1004 636 1004 636 904 566 c 1,37,38
 1007 436 1007 436 1007 310 c 0,39,40
 1007 148 1007 148 875 72 c 0,41,42
 794 26 794 26 706 26 c 0,43,44
 559 26 559 26 398 156 c 0,45,46
 261 267 261 267 174 415 c 2,47,-1
 71 590 l 1,48,-1
 9 714 l 2,49,50
 3 727 3 727 -1 757 c 1,51,52
 -1 801 -1 801 35 801 c 0,53,54
 67 801 67 801 111 736 c 1,55,-1
 188 571 l 2,56,57
 285 362 285 362 438 278 c 0,58,59
 524 231 524 231 605 231 c 0,60,61
 730 231 730 231 798 349 c 0,62,63
 820 386 820 386 820 435 c 0,64,65
 820 533 820 533 715 636 c 1,66,67
 607 608 607 608 548 608 c 0,68,69
 494 608 494 608 468 636 c 1,70,-1
 421 711 l 1,71,-1
 390 751 l 2,72,73
 372 774 372 774 372 819 c 1,74,-1
 421 823 l 1,75,-1
 566 817 l 2,76,77
 692 812 692 812 752 891 c 0,78,79
 807 965 807 965 807 1036 c 0,80,81
 807 1095 807 1095 780 1168 c 1,82,-1
 0 1168 l 1,83,-1
 0 1325 l 1,84,-1
 1490 1325 l 1,85,-1
 1490 1168 l 1,0,-1
EndSplineSet
Validated: 33
Substitution2: "'aalt' Access All Alternates lookup 1 subtable" uni0942
EndChar

StartChar: uni090B
Encoding: 79 2315 77
Width: 1566
GlyphClass: 2
Flags: W
AnchorPoint: "Anchor-7" 792 -5 basechar 0
AnchorPoint: "Anchor-2" 793 1235 basechar 0
AnchorPoint: "Anchor-1" 790 1243 basechar 0 {17-17 1} {}
LayerCount: 2
Fore
SplineSet
1566 1169 m 1,0,-1
 874 1169 l 1,1,-1
 874 880 l 1,2,3
 880 830 880 830 921 797.5 c 128,-1,4
 962 765 962 765 1013 768 c 2,5,-1
 1051 770 l 2,6,7
 1064 771 1064 771 1089 783 c 1,8,9
 1105 817 1105 817 1109 844 c 1,10,-1
 1102 904 l 1,11,12
 1102 957 1102 957 1147 993 c 0,13,14
 1189 1025 1189 1025 1244 1025 c 0,15,16
 1318 1025 1318 1025 1370 956 c 0,17,18
 1418 892 1418 892 1418 815 c 0,19,20
 1418 734 1418 734 1356 665 c 1,21,-1
 1329 645 l 1,22,-1
 1322 625 l 1,23,-1
 1333 589 l 1,24,-1
 1355 544 l 1,25,-1
 1387 465 l 1,26,-1
 1400 441 l 1,27,-1
 1409 421 l 1,28,29
 1409 398 1409 398 1321 380 c 0,30,31
 1265 370 1265 370 1210 360 c 1,32,33
 1136 327 1136 327 1136 228 c 0,34,35
 1136 195 1136 195 1161 177 c 1,36,37
 1191 163 1191 163 1255 163 c 0,38,39
 1301 163 1301 163 1347 186 c 2,40,-1
 1441 233 l 1,41,-1
 1470 239 l 1,42,43
 1499 239 1499 239 1511 221 c 0,44,45
 1531 190 1531 190 1555 130 c 1,46,-1
 1550 105 l 2,47,48
 1544 92 1544 92 1515 72 c 0,49,50
 1427 9 1427 9 1329 9 c 0,51,52
 1164 9 1164 9 1044 190 c 0,53,54
 991 270 991 270 991 347 c 0,55,56
 991 429 991 429 1083 474 c 0,57,58
 1132 498 1132 498 1255 521 c 1,59,60
 1271 535 1271 535 1271 560 c 0,61,62
 1271 582 1271 582 1261 604 c 0,63,64
 1255 609 1255 609 1241 609 c 2,65,-1
 1201 605 l 1,66,-1
 1156 602 l 2,67,68
 1042 594 1042 594 928 714 c 0,69,70
 917 725 917 725 903 727 c 0,71,72
 876 727 876 727 877 681 c 2,73,-1
 878 60 l 2,74,75
 879 6 879 6 867 2 c 0,76,77
 856 2 856 2 742 118 c 0,78,79
 705 150 705 150 706 197 c 2,80,-1
 706 549 l 2,81,82
 707 568 707 568 697 569 c 0,83,84
 687 569 687 569 666 551 c 2,85,-1
 471 387 l 2,86,87
 412 337 412 337 321 278 c 1,88,89
 307 278 307 278 194 311 c 2,90,-1
 115 334 l 2,91,92
 87 342 87 342 86 363 c 0,93,94
 85 383 85 383 117 401 c 2,95,-1
 231 465 l 2,96,97
 265 483 265 483 352 535 c 2,98,-1
 617 699 l 2,99,100
 664 728 664 728 664 763 c 0,101,102
 664 779 664 779 650 793 c 0,103,104
 642 805 642 805 617 817 c 0,105,106
 543 853 543 853 451 853 c 0,107,108
 381 853 381 853 310 826 c 1,109,-1
 254 793 l 1,110,111
 194 750 194 750 178 750 c 1,112,-1
 167 745 l 1,113,114
 150 745 150 745 99 817 c 2,115,-1
 19 931 l 2,116,117
 3 954 3 954 3 967 c 0,118,119
 3 983 3 983 21 989 c 2,120,-1
 70 996 l 1,121,-1
 382 1001 l 2,122,123
 413 1001 413 1001 467 992 c 0,124,125
 487 989 487 989 532 980 c 1,126,127
 554 966 554 966 603 909 c 2,128,-1
 643 862 l 2,129,130
 664 838 664 838 686 833 c 0,131,132
 702 833 702 833 702 869 c 2,133,-1
 702 1169 l 1,134,-1
 0 1169 l 1,135,-1
 0 1325 l 1,136,-1
 1566 1325 l 1,137,-1
 1566 1169 l 1,0,-1
EndSplineSet
Validated: 33
Substitution2: "'aalt' Access All Alternates lookup 1 subtable" uni0943
EndChar

StartChar: uni090C
Encoding: 80 2316 78
Width: 1276
GlyphClass: 2
Flags: W
AnchorPoint: "Anchor-7" 662 -18 basechar 0
AnchorPoint: "Anchor-2" 780 1235 basechar 0
AnchorPoint: "Anchor-1" 788 1245 basechar 0 {12-17 -1,0,0,0,0,1} {}
LayerCount: 2
Fore
SplineSet
1276 1167 m 1,0,-1
 847 1167 l 1,1,-1
 847 954 l 1,2,3
 947 918 947 918 1018 822.5 c 128,-1,4
 1089 727 1089 727 1089 622 c 0,5,6
 1089 551 1089 551 1056 502 c 0,7,8
 1037 474 1037 474 974 428 c 0,9,10
 907 379 907 379 881 346 c 0,11,12
 834 286 834 286 834 223 c 0,13,14
 834 156 834 156 897 156 c 0,15,16
 981 156 981 156 1097 252 c 1,17,-1
 1130 274 l 2,18,19
 1141 280 1141 280 1161 283 c 0,20,21
 1188 283 1188 283 1224 256 c 0,22,23
 1274 218 1274 218 1274 191 c 0,24,25
 1274 172 1274 172 1243 141 c 0,26,27
 1137 34 1137 34 1004 34 c 0,28,29
 905 34 905 34 794 121 c 0,30,31
 677 213 677 213 677 309 c 1,32,33
 685 391 685 391 738 441 c 1,34,-1
 847 520 l 2,35,36
 916 570 916 570 942 607 c 0,37,38
 979 660 979 660 979 723 c 0,39,40
 979 770 979 770 938 801 c 0,41,42
 900 829 900 829 851 829 c 0,43,44
 724 829 724 829 611 629 c 0,45,46
 591 594 591 594 579 592 c 1,47,-1
 553 609 l 1,48,-1
 498 659 l 2,49,50
 472 683 472 683 472 727 c 0,51,52
 472 744 472 744 482.5 765.5 c 128,-1,53
 493 787 493 787 493 794 c 0,54,55
 493 830 493 830 387 834 c 0,56,57
 300 837 300 837 240 781.5 c 128,-1,58
 180 726 180 726 180 640 c 0,59,60
 180 542 180 542 280 461 c 0,61,62
 301 444 301 444 417 396 c 0,63,64
 456 380 456 380 472 352 c 1,65,-1
 487 313 l 1,66,67
 487 291 487 291 461 291 c 1,68,-1
 432 298 l 1,69,70
 336 339 336 339 271 383 c 0,71,72
 231 410 231 410 123 502 c 0,73,74
 23 587 23 587 23 727 c 0,75,76
 23 830 23 830 98 897 c 0,77,78
 170 962 170 962 274 962 c 0,79,80
 368 962 368 962 446 910 c 2,81,-1
 537 849 l 1,82,83
 583 903 583 903 651 936 c 1,84,-1
 711 954 l 1,85,-1
 711 1167 l 1,86,-1
 1 1167 l 1,87,-1
 1 1325 l 1,88,-1
 1276 1325 l 1,89,-1
 1276 1167 l 1,0,-1
EndSplineSet
Validated: 33
Substitution2: "'aalt' Access All Alternates lookup 1 subtable" uni0962
EndChar

StartChar: uni090E
Encoding: 82 2318 80
Width: 989
GlyphClass: 2
Flags: W
AnchorPoint: "Anchor-7" 571 -70 basechar 0
AnchorPoint: "Anchor-2" 897 1235 basechar 0
AnchorPoint: "Anchor-1" 974 1377 basechar 0 {12-17 1,0,0,0,0,1} {}
LayerCount: 2
Fore
SplineSet
1140 -141 m 0,0,1
 1125 -159 1125 -159 1068 -159 c 0,2,3
 1008 -159 1008 -159 965 -137 c 0,4,5
 910 -110 910 -110 910 -56 c 1,6,7
 957 -41 957 -41 957 22 c 1,8,9
 946 79 946 79 757 205 c 2,10,-1
 381 455 l 2,11,12
 172 594 172 594 112 693 c 0,13,14
 99 714 99 714 98 777 c 2,15,-1
 95 954 l 1,16,-1
 97 1169 l 1,17,-1
 0 1169 l 1,18,-1
 0 1325 l 1,19,-1
 989 1325 l 1,20,-1
 989 1169 l 1,21,-1
 872 1169 l 1,22,-1
 877 659 l 2,23,24
 878 569 878 569 850 536 c 0,25,26
 803 481 803 481 754 481 c 0,27,28
 743 481 743 481 679 530 c 2,29,-1
 504 663 l 1,30,31
 504 688 504 688 522 693 c 2,32,-1
 559 696 l 1,33,-1
 586 696 l 1,34,-1
 636 701 l 2,35,36
 657 706 657 706 682 729 c 1,37,38
 682 766 682 766 702 1089 c 0,39,40
 705 1138 705 1138 705 1169 c 1,41,-1
 275 1169 l 1,42,-1
 286 729 l 1,43,-1
 306 631 l 2,44,45
 316 582 316 582 373 545 c 2,46,-1
 902 202 l 2,47,48
 1012 130 1012 130 1043 105 c 0,49,50
 1163 5 1163 5 1163 -84 c 0,51,52
 1163 -119 1163 -119 1140 -141 c 0,0,1
779 1514 m 0,53,54
 780 1501 780 1501 782.5 1484.5 c 128,-1,55
 785 1468 785 1468 786 1450.5 c 128,-1,56
 787 1433 787 1433 784 1415.5 c 128,-1,57
 781 1398 781 1398 772 1382 c 1,58,59
 728 1358 728 1358 669 1498 c 0,60,61
 629 1592 629 1592 445 1586 c 1,62,63
 266 1576 266 1576 254 1584 c 0,64,65
 250 1587 250 1587 241 1595 c 128,-1,66
 232 1603 232 1603 220.5 1612 c 128,-1,67
 209 1621 209 1621 198 1630.5 c 128,-1,68
 187 1640 187 1640 178 1646 c 0,69,70
 136 1684 136 1684 119.5 1742.5 c 128,-1,71
 103 1801 103 1801 108 1874 c 1,72,73
 115 1904 115 1904 125 1906 c 128,-1,74
 135 1908 135 1908 148.5 1893 c 128,-1,75
 162 1878 162 1878 178.5 1850.5 c 128,-1,76
 195 1823 195 1823 215 1794 c 0,77,78
 259 1737 259 1737 374 1735 c 0,79,80
 557 1735 557 1735 642 1696 c 1,81,82
 758 1660 758 1660 779 1514 c 0,53,54
EndSplineSet
Validated: 33
EndChar

StartChar: uni090F
Encoding: 83 2319 81
Width: 987
GlyphClass: 2
Flags: W
AnchorPoint: "Anchor-7" 532 -83 basechar 0
AnchorPoint: "Anchor-2" 793 1235 basechar 0
AnchorPoint: "Anchor-1" 790 1258 basechar 0 {11-11 -1} {}
LayerCount: 2
Fore
SplineSet
1139 -141 m 0,0,1
 1124 -159 1124 -159 1067 -159 c 0,2,3
 1008 -159 1008 -159 965 -137 c 0,4,5
 910 -109 910 -109 910 -56 c 1,6,7
 956 -41 956 -41 956 22 c 1,8,9
 945 79 945 79 757 204 c 2,10,-1
 382 453 l 2,11,12
 174 591 174 591 113 690 c 0,13,14
 101 709 101 709 100 775 c 2,15,-1
 97 951 l 1,16,-1
 98 1168 l 1,17,-1
 0 1168 l 1,18,-1
 0 1325 l 1,19,-1
 987 1325 l 1,20,-1
 987 1168 l 1,21,-1
 872 1168 l 1,22,-1
 877 657 l 2,23,24
 878 566 878 566 850 534 c 0,25,26
 838 520 838 520 804 496 c 0,27,28
 775 480 775 480 754 480 c 0,29,30
 742 480 742 480 679 528 c 2,31,-1
 505 660 l 1,32,33
 505 685 505 685 523 690 c 2,34,-1
 560 694 l 1,35,-1
 586 694 l 1,36,-1
 636 699 l 2,37,38
 658 704 658 704 682 727 c 1,39,40
 682 797 682 797 703 1085 c 0,41,42
 706 1132 706 1132 706 1168 c 1,43,-1
 276 1168 l 1,44,-1
 288 727 l 1,45,-1
 307 629 l 2,46,47
 316 580 316 580 374 543 c 2,48,-1
 901 201 l 2,49,50
 1022 122 1022 122 1043 105 c 0,51,52
 1162 6 1162 6 1162 -84 c 0,53,54
 1162 -119 1162 -119 1139 -141 c 0,0,1
EndSplineSet
Validated: 33
Substitution2: "'aalt' Access All Alternates lookup 1 subtable" uni0947
EndChar

StartChar: uni0910
Encoding: 84 2320 82
Width: 987
GlyphClass: 2
Flags: W
AnchorPoint: "Anchor-7" 532 -109 basechar 0
AnchorPoint: "Anchor-2" 910 1235 basechar 0
AnchorPoint: "Anchor-1" 914 1403 basechar 0 {11-13 -1,0,-1} {}
LayerCount: 2
Fore
SplineSet
1140 -141 m 0,0,1
 1125 -159 1125 -159 1068 -159 c 0,2,3
 1009 -159 1009 -159 966 -137 c 0,4,5
 911 -109 911 -109 911 -56 c 1,6,7
 957 -41 957 -41 957 22 c 1,8,9
 946 80 946 80 758 205 c 2,10,-1
 382 454 l 2,11,12
 175 591 175 591 113 691 c 0,13,14
 101 710 101 710 100 776 c 2,15,-1
 97 952 l 1,16,-1
 98 1169 l 1,17,-1
 0 1169 l 1,18,-1
 0 1325 l 1,19,-1
 987 1325 l 1,20,-1
 987 1169 l 1,21,-1
 872 1169 l 1,22,-1
 877 658 l 2,23,24
 878 567 878 567 851 535 c 0,25,26
 805 481 805 481 754 481 c 0,27,28
 743 481 743 481 680 529 c 2,29,-1
 505 662 l 1,30,31
 505 686 505 686 524 691 c 2,32,-1
 560 695 l 1,33,-1
 587 695 l 1,34,-1
 637 700 l 2,35,36
 658 705 658 705 683 728 c 1,37,38
 683 767 683 767 703 1087 c 0,39,40
 706 1135 706 1135 706 1169 c 1,41,-1
 276 1169 l 1,42,-1
 288 728 l 1,43,-1
 308 630 l 2,44,45
 318 580 318 580 374 544 c 2,46,-1
 902 201 l 2,47,48
 1017 126 1017 126 1043 105 c 0,49,50
 1163 6 1163 6 1163 -84 c 0,51,52
 1163 -119 1163 -119 1140 -141 c 0,0,1
749 1485 m 2,53,54
 796 1429 796 1429 796 1395 c 0,55,56
 796 1378 796 1378 779 1375 c 0,57,58
 746 1375 746 1375 704 1429 c 2,59,-1
 563 1609 l 2,60,61
 533 1647 533 1647 477 1680 c 0,62,63
 446 1694 446 1694 417 1694 c 1,64,-1
 374 1688 l 1,65,-1
 330 1681 l 1,66,-1
 302 1676 l 1,67,-1
 273 1674 l 2,68,69
 226 1671 226 1671 152 1773 c 2,70,-1
 118 1820 l 2,71,72
 91 1857 91 1857 91 1873 c 0,73,74
 90 1903 90 1903 162 1903 c 0,75,76
 400 1903 400 1903 583 1684 c 2,77,-1
 749 1485 l 2,53,54
EndSplineSet
Validated: 33
Substitution2: "'aalt' Access All Alternates lookup 1 subtable" uni0948
EndChar

StartChar: uni0912
Encoding: 86 2322 84
Width: 1966
GlyphClass: 2
Flags: W
AnchorPoint: "Anchor-7" 1448 -14 basechar 0
AnchorPoint: "Anchor-2" 1898 1235 basechar 0
AnchorPoint: "Anchor-1" 1942 1453 basechar 0 {11-11 -1} {}
LayerCount: 2
Fore
SplineSet
1336 1169 m 1,0,-1
 1338 41 l 2,1,2
 1338 3 1338 3 1320 1 c 0,3,4
 1296 1 1296 1 1190 128 c 0,5,6
 1165 152 1165 152 1165 182 c 2,7,-1
 1165 593 l 1,8,-1
 1130 602 l 1,9,-1
 1087 596 l 1,10,-1
 1043 593 l 1,11,-1
 1020 587 l 2,12,13
 1005 587 1005 587 943 620 c 128,-1,14
 881 653 881 653 843 653 c 1,15,-1
 882 558 l 2,16,17
 900 514 900 514 900 455 c 0,18,19
 900 299 900 299 785 238 c 0,20,21
 717 202 717 202 636 202 c 0,22,23
 527 202 527 202 443 254 c 0,24,25
 343 316 343 316 291 369 c 0,26,27
 247 415 247 415 178 522 c 0,28,29
 165 541 165 541 133 591 c 0,30,31
 82 671 82 671 44 763 c 1,32,-1
 39 792 l 2,33,34
 39 815 39 815 63 815 c 0,35,36
 108 816 108 816 128 776 c 0,37,38
 230 575 230 575 260 537 c 0,39,40
 370 397 370 397 531 397 c 0,41,42
 619 397 619 397 682 441 c 0,43,44
 754 491 754 491 754 575 c 0,45,46
 754 654 754 654 681 723 c 1,47,-1
 669 730 l 1,48,49
 594 676 594 676 443 676 c 1,50,-1
 361 761 l 2,51,52
 318 806 318 806 316 835 c 1,53,-1
 321 850 l 1,54,55
 347 861 347 861 377 864 c 1,56,-1
 430 861 l 1,57,-1
 486 857 l 2,58,59
 554 852 554 852 621 917 c 0,60,61
 671 966 671 966 671 1045 c 0,62,63
 671 1081 671 1081 654 1134 c 1,64,65
 607 1167 607 1167 544 1167 c 0,66,67
 466 1167 466 1167 388 1130 c 2,68,-1
 260 1069 l 1,69,70
 236 1069 236 1069 195 1130 c 2,71,-1
 128 1230 l 1,72,-1
 122 1244 l 1,73,74
 122 1255 122 1255 157 1266 c 0,75,76
 273 1314 273 1314 430 1311 c 2,77,-1
 486 1310 l 1,78,79
 551 1300 551 1300 600 1268 c 0,80,81
 812 1129 812 1129 812 955 c 0,82,83
 812 880 812 880 763 815 c 0,84,85
 745 791 745 791 745 779 c 0,86,87
 745 769 745 769 763 743 c 2,88,-1
 788 707 l 1,89,-1
 864 705 l 2,90,91
 986 702 986 702 1067 730 c 0,92,93
 1145 757 1145 757 1165 799 c 1,94,-1
 1165 1169 l 1,95,-1
 937 1169 l 1,96,-1
 814 1325 l 1,97,-1
 1966 1325 l 1,98,-1
 1966 1169 l 1,99,-1
 1818 1169 l 1,100,-1
 1818 54 l 2,101,102
 1817 4 1817 4 1806 0 c 1,103,104
 1791 0 1791 0 1664 126 c 0,105,106
 1642 146 1642 146 1638 178 c 1,107,-1
 1638 1169 l 1,108,-1
 1336 1169 l 1,0,-1
1805 1520 m 0,109,110
 1806 1507 1806 1507 1808.5 1490.5 c 128,-1,111
 1811 1474 1811 1474 1812 1456.5 c 128,-1,112
 1813 1439 1813 1439 1810 1421.5 c 128,-1,113
 1807 1404 1807 1404 1798 1388 c 1,114,115
 1754 1364 1754 1364 1695 1504 c 0,116,117
 1655 1598 1655 1598 1471 1592 c 1,118,119
 1292 1582 1292 1582 1280 1590 c 0,120,121
 1276 1593 1276 1593 1267 1601 c 128,-1,122
 1258 1609 1258 1609 1246.5 1618 c 128,-1,123
 1235 1627 1235 1627 1224 1636.5 c 128,-1,124
 1213 1646 1213 1646 1204 1652 c 0,125,126
 1162 1690 1162 1690 1145.5 1748.5 c 128,-1,127
 1129 1807 1129 1807 1134 1880 c 1,128,129
 1141 1910 1141 1910 1151 1912 c 128,-1,130
 1161 1914 1161 1914 1174.5 1899 c 128,-1,131
 1188 1884 1188 1884 1204.5 1856.5 c 128,-1,132
 1221 1829 1221 1829 1241 1800 c 0,133,134
 1285 1743 1285 1743 1400 1741 c 0,135,136
 1583 1741 1583 1741 1668 1702 c 1,137,138
 1784 1666 1784 1666 1805 1520 c 0,109,110
EndSplineSet
Validated: 33
EndChar

StartChar: uni0913
Encoding: 87 2323 85
Width: 1966
GlyphClass: 2
Flags: W
AnchorPoint: "Anchor-7" 1455 -18 basechar 0
AnchorPoint: "Anchor-2" 1898 1235 basechar 0
AnchorPoint: "Anchor-1" 1903 1429 basechar 0 {11-17 -1,0,0,0,0,0,1} {}
LayerCount: 2
Fore
SplineSet
1777 1502 m 2,0,1
 1824 1446 1824 1446 1824 1412 c 0,2,3
 1824 1395 1824 1395 1807 1392 c 0,4,5
 1774 1392 1774 1392 1732 1446 c 2,6,-1
 1591 1626 l 2,7,8
 1561 1664 1561 1664 1505 1697 c 0,9,10
 1474 1711 1474 1711 1445 1711 c 1,11,-1
 1402 1705 l 1,12,-1
 1358 1698 l 1,13,-1
 1330 1693 l 1,14,-1
 1301 1691 l 2,15,16
 1254 1688 1254 1688 1180 1790 c 2,17,-1
 1146 1837 l 2,18,19
 1119 1874 1119 1874 1119 1890 c 0,20,21
 1118 1920 1118 1920 1190 1920 c 0,22,23
 1428 1920 1428 1920 1611 1701 c 2,24,-1
 1777 1502 l 2,0,1
1337 1168 m 1,25,-1
 1338 41 l 2,26,27
 1338 3 1338 3 1320 1 c 0,28,29
 1296 1 1296 1 1191 128 c 0,30,31
 1166 152 1166 152 1166 182 c 2,32,-1
 1165 593 l 1,33,-1
 1130 602 l 1,34,-1
 1087 596 l 1,35,-1
 1043 593 l 1,36,-1
 1020 587 l 2,37,38
 1005 587 1005 587 943 620 c 128,-1,39
 881 653 881 653 843 653 c 1,40,-1
 882 558 l 2,41,42
 900 514 900 514 900 455 c 0,43,44
 900 299 900 299 785 238 c 0,45,46
 717 202 717 202 636 202 c 0,47,48
 527 202 527 202 443 254 c 0,49,50
 343 316 343 316 291 369 c 0,51,52
 247 415 247 415 178 522 c 0,53,54
 165 541 165 541 133 591 c 0,55,56
 82 671 82 671 44 763 c 1,57,-1
 39 792 l 2,58,59
 39 815 39 815 63 815 c 0,60,61
 108 816 108 816 128 776 c 0,62,63
 230 575 230 575 260 537 c 0,64,65
 370 397 370 397 531 397 c 0,66,67
 619 397 619 397 682 441 c 0,68,69
 754 491 754 491 754 575 c 0,70,71
 754 654 754 654 681 723 c 1,72,-1
 669 730 l 1,73,74
 594 676 594 676 443 676 c 1,75,-1
 361 761 l 2,76,77
 318 806 318 806 316 835 c 1,78,-1
 321 850 l 1,79,80
 347 861 347 861 377 864 c 1,81,-1
 430 861 l 1,82,-1
 486 857 l 2,83,84
 554 852 554 852 621 917 c 0,85,86
 671 966 671 966 671 1045 c 0,87,88
 671 1081 671 1081 654 1134 c 1,89,90
 607 1167 607 1167 544 1167 c 0,91,92
 466 1167 466 1167 388 1130 c 2,93,-1
 260 1069 l 1,94,95
 236 1069 236 1069 195 1130 c 2,96,-1
 128 1230 l 1,97,-1
 122 1244 l 1,98,99
 122 1255 122 1255 157 1266 c 0,100,101
 273 1314 273 1314 430 1311 c 2,102,-1
 486 1310 l 1,103,104
 551 1300 551 1300 600 1268 c 0,105,106
 812 1129 812 1129 812 955 c 0,107,108
 812 880 812 880 763 815 c 0,109,110
 745 791 745 791 745 779 c 0,111,112
 745 769 745 769 763 743 c 2,113,-1
 788 707 l 1,114,-1
 864 705 l 2,115,116
 986 702 986 702 1067 730 c 0,117,118
 1145 757 1145 757 1165 799 c 1,119,-1
 1165 1168 l 1,120,-1
 937 1168 l 1,121,-1
 814 1325 l 1,122,-1
 1966 1325 l 1,123,-1
 1966 1168 l 1,124,-1
 1819 1168 l 1,125,-1
 1818 54 l 2,126,127
 1820 0 1820 0 1800 0 c 0,128,129
 1790 0 1790 0 1664 126 c 0,130,131
 1642 146 1642 146 1638 178 c 1,132,-1
 1638 1168 l 1,133,-1
 1337 1168 l 1,25,-1
EndSplineSet
Validated: 33
Substitution2: "'aalt' Access All Alternates lookup 1 subtable" uni094B
EndChar

StartChar: uni0914
Encoding: 88 2324 86
Width: 1973
GlyphClass: 2
Flags: W
AnchorPoint: "Anchor-7" 1468 -18 basechar 0
AnchorPoint: "Anchor-2" 1950 1235 basechar 0
AnchorPoint: "Anchor-1" 2040 1271 basechar 0 {11-17 -1,0,0,0,0,0,1} {}
LayerCount: 2
Fore
SplineSet
1337 1169 m 1,0,-1
 1338 41 l 2,1,2
 1338 3 1338 3 1320 1 c 0,3,4
 1296 1 1296 1 1189 128 c 0,5,6
 1164 152 1164 152 1164 182 c 2,7,-1
 1165 593 l 1,8,-1
 1130 602 l 1,9,-1
 1087 596 l 1,10,-1
 1043 593 l 1,11,-1
 1020 587 l 2,12,13
 1005 587 1005 587 943 620 c 128,-1,14
 881 653 881 653 843 653 c 1,15,-1
 882 558 l 2,16,17
 900 514 900 514 900 455 c 0,18,19
 900 299 900 299 785 238 c 0,20,21
 717 202 717 202 636 202 c 0,22,23
 527 202 527 202 443 254 c 0,24,25
 343 316 343 316 291 369 c 0,26,27
 247 415 247 415 178 522 c 0,28,29
 165 541 165 541 133 591 c 0,30,31
 82 671 82 671 44 763 c 1,32,-1
 39 792 l 2,33,34
 39 815 39 815 63 815 c 0,35,36
 108 816 108 816 128 776 c 0,37,38
 230 575 230 575 260 537 c 0,39,40
 370 397 370 397 531 397 c 0,41,42
 619 397 619 397 682 441 c 0,43,44
 754 491 754 491 754 575 c 0,45,46
 754 654 754 654 681 723 c 1,47,-1
 669 730 l 1,48,49
 594 676 594 676 443 676 c 1,50,-1
 361 761 l 2,51,52
 318 806 318 806 316 835 c 1,53,-1
 321 850 l 1,54,55
 347 861 347 861 377 864 c 1,56,-1
 430 861 l 1,57,-1
 486 857 l 2,58,59
 554 852 554 852 621 917 c 0,60,61
 671 966 671 966 671 1045 c 0,62,63
 671 1081 671 1081 654 1134 c 1,64,65
 607 1167 607 1167 544 1167 c 0,66,67
 466 1167 466 1167 388 1130 c 2,68,-1
 260 1069 l 1,69,70
 236 1069 236 1069 195 1130 c 2,71,-1
 128 1230 l 1,72,-1
 122 1244 l 1,73,74
 122 1255 122 1255 157 1266 c 0,75,76
 273 1314 273 1314 430 1311 c 2,77,-1
 486 1310 l 1,78,79
 551 1300 551 1300 600 1268 c 0,80,81
 812 1134 812 1134 812 955 c 0,82,83
 812 880 812 880 763 815 c 0,84,85
 745 791 745 791 745 779 c 0,86,87
 745 769 745 769 763 743 c 2,88,-1
 788 707 l 1,89,-1
 864 705 l 2,90,91
 986 702 986 702 1067 730 c 0,92,93
 1145 757 1145 757 1165 799 c 1,94,-1
 1165 1169 l 1,95,-1
 937 1169 l 1,96,-1
 814 1325 l 1,97,-1
 1973 1325 l 1,98,-1
 1973 1169 l 1,99,-1
 1818 1169 l 1,100,-1
 1818 54 l 2,101,102
 1818 11 1818 11 1807 7 c 1,103,104
 1792 7 1792 7 1664 126 c 0,105,106
 1642 146 1642 146 1638 178 c 1,107,-1
 1638 1169 l 1,108,-1
 1337 1169 l 1,0,-1
1870 1423 m 1,109,110
 1870 1392 1870 1392 1855 1392 c 0,111,112
 1845 1392 1845 1392 1837 1399 c 2,113,-1
 1818 1423 l 1,114,115
 1784 1479 1784 1479 1726 1629 c 0,116,117
 1688 1726 1688 1726 1631 1778 c 1,118,-1
 1455 1804 l 2,119,120
 1381 1815 1381 1815 1347 1865 c 2,121,-1
 1277 1969 l 2,122,123
 1264 1988 1264 1988 1261 2006 c 0,124,125
 1261 2039 1261 2039 1304 2039 c 0,126,127
 1602 2039 1602 2039 1765 1695 c 0,128,129
 1789 1643 1789 1643 1870 1423 c 1,109,110
1659 1423 m 1,130,-1
 1665 1402 l 1,131,132
 1665 1380 1665 1380 1647 1380 c 0,133,134
 1621 1380 1621 1380 1586 1423 c 2,135,-1
 1478 1555 l 2,136,137
 1427 1617 1427 1617 1363 1638 c 1,138,-1
 1341 1643 l 1,139,-1
 1313 1646 l 2,140,141
 1286 1646 1286 1646 1241 1632 c 1,142,-1
 1179 1620 l 1,143,144
 1101 1620 1101 1620 1001 1739 c 0,145,146
 962 1785 962 1785 959 1806 c 0,147,148
 959 1826 959 1826 1001 1827 c 2,149,-1
 1042 1828 l 2,150,151
 1289 1834 1289 1834 1504 1603 c 2,152,-1
 1600 1500 l 2,153,154
 1635 1463 1635 1463 1659 1423 c 1,130,-1
EndSplineSet
Validated: 33
Substitution2: "'aalt' Access All Alternates lookup 1 subtable" uni094C
EndChar

StartChar: uni0915
Encoding: 89 2325 87
Width: 1340
GlyphClass: 2
Flags: W
AnchorPoint: "Anchor-2" 596 620 basechar 0
AnchorPoint: "Anchor-10" 830 1260 basechar 0
AnchorPoint: "Anchor-9" 900 1235 basechar 0
AnchorPoint: "Anchor-8" 830 1248 basechar 0
AnchorPoint: "Anchor-6" 698 125 basechar 0 {17-17 1} {}
AnchorPoint: "Anchor-5" 702 -13 basechar 0
AnchorPoint: "Anchor-0" 712 1248 basechar 0
LayerCount: 2
Fore
SplineSet
1340 1168 m 1,0,-1
 777 1168 l 1,1,-1
 777 805 l 1,2,3
 823 840 823 840 926 857 c 1,4,5
 1015 857 1015 857 1121 754 c 0,6,7
 1239 640 1239 640 1254 540 c 2,8,-1
 1263 480 l 1,9,-1
 1266 421 l 2,10,11
 1270 344 1270 344 1242 257 c 0,12,13
 1213 163 1213 163 1162 113 c 1,14,-1
 1146 106 l 1,15,16
 1117 106 1117 106 1065 156 c 2,17,-1
 1014 205 l 1,18,-1
 971 241 l 2,19,20
 955 259 955 259 951 277 c 1,21,22
 951 299 951 299 994 324 c 0,23,24
 1137 407 1137 407 1137 579 c 0,25,26
 1137 642 1137 642 1119 668 c 0,27,28
 1092 707 1092 707 1023 707 c 0,29,30
 890 707 890 707 784 614 c 1,31,-1
 789 50 l 2,32,33
 789 12 789 12 769 7 c 0,34,35
 754 7 754 7 660 77 c 0,36,37
 632 98 632 98 608 128 c 0,38,39
 589 158 589 158 590 191 c 2,40,-1
 595 455 l 1,41,42
 572 451 572 451 494 414 c 0,43,44
 437 387 437 387 399 387 c 0,45,46
 277 387 277 387 157 530 c 0,47,48
 101 597 101 597 84 630 c 0,49,50
 57 683 57 683 57 752 c 0,51,52
 57 954 57 954 329 954 c 0,53,54
 384 954 384 954 415 941 c 0,55,56
 446 932 446 932 501 886 c 2,57,-1
 543 851 l 2,58,59
 562 835 562 835 588 835 c 1,60,-1
 604 839 l 1,61,-1
 604 1168 l 1,62,-1
 0 1168 l 1,63,-1
 0 1325 l 1,64,-1
 1340 1325 l 1,65,-1
 1340 1168 l 1,0,-1
604 667 m 1,66,-1
 604 781 l 1,67,-1
 509 800 l 1,68,-1
 420 806 l 2,69,70
 335 812 335 812 271 761 c 0,71,72
 204 708 204 708 204 624 c 0,73,74
 204 539 204 539 280 539 c 0,75,76
 415 539 415 539 500 593 c 0,77,78
 512 601 512 601 534 616 c 2,79,-1
 604 667 l 1,66,-1
EndSplineSet
Validated: 1048609
EndChar

StartChar: uni0916
Encoding: 90 2326 88
Width: 1505
GlyphClass: 2
Flags: W
AnchorPoint: "Anchor-2" 1195 634 mark 0
AnchorPoint: "Anchor-6" 1272 131 basechar 0
AnchorPoint: "Anchor-5" 754 -13 basechar 0
AnchorPoint: "Anchor-0" 1301 1248 basechar 0
LayerCount: 2
Fore
SplineSet
1504 1168 m 1,0,-1
 1380 1168 l 1,1,-1
 1380 76 l 2,2,3
 1380 2 1380 2 1362 2 c 0,4,5
 1349 2 1349 2 1319 31 c 2,6,-1
 1272 76 l 2,7,8
 1241 105 1241 105 1195 168 c 1,9,10
 1176 210 1176 210 1178 249 c 2,11,-1
 1182 316 l 1,12,-1
 1187 359 l 1,13,-1
 1186 389 l 2,14,15
 1185 416 1185 416 1177 440 c 1,16,-1
 1085 407 l 2,17,18
 1026 386 1026 386 967 386 c 1,19,20
 869 397 869 397 805 445 c 0,21,22
 784 461 784 461 690 564 c 0,23,24
 609 653 609 653 609 744 c 0,25,26
 609 810 609 810 649.5 870 c 128,-1,27
 690 930 690 930 751 948 c 0,28,29
 805 964 805 964 899 964 c 0,30,31
 980 964 980 964 1032 936 c 1,32,-1
 1169 833 l 1,33,34
 1189 833 1189 833 1193 1054 c 2,35,-1
 1195 1168 l 1,36,-1
 461 1168 l 1,37,38
 483 1045 483 1045 483 946 c 0,39,40
 483 836 483 836 459 743 c 2,41,-1
 418 584 l 1,42,-1
 385 440 l 1,43,44
 468 320 468 320 603 253 c 0,45,46
 722 194 722 194 829 89 c 0,47,48
 845 69 845 69 848 45 c 0,49,50
 848 4 848 4 794 4 c 0,51,52
 761 4 761 4 679 63 c 0,53,54
 655 80 655 80 584 139 c 0,55,56
 520 192 520 192 371 328 c 2,57,-1
 221 465 l 2,58,59
 148 531 148 531 86 658 c 0,60,61
 54 723 54 723 54 788 c 0,62,63
 54 840 54 840 81 856 c 1,64,-1
 99 860 l 1,65,66
 123 860 123 860 177 843 c 128,-1,67
 231 826 231 826 257 826 c 0,68,69
 296 826 296 826 305 922 c 0,70,71
 306 933 306 933 306 1044 c 2,72,-1
 306 1168 l 1,73,-1
 0 1168 l 1,74,-1
 0 1325 l 1,75,-1
 1504 1325 l 1,76,-1
 1504 1168 l 1,0,-1
1184 637 m 1,77,-1
 1184 772 l 1,78,79
 1115 817 1115 817 1000 817 c 0,80,81
 912 817 912 817 839 770 c 0,82,83
 755 716 755 716 755 637 c 0,84,85
 755 603 755 603 773 565 c 1,86,87
 800 552 800 552 832 543 c 1,88,-1
 894 536 l 1,89,-1
 958 541 l 2,90,91
 983 543 983 543 1040 565 c 2,92,-1
 1115 594 l 2,93,94
 1139 603 1139 603 1184 637 c 1,77,-1
EndSplineSet
Validated: 33
EndChar

StartChar: uni0917
Encoding: 91 2327 89
Width: 1211
GlyphClass: 2
Flags: W
AnchorPoint: "Anchor-2" 912 561 basechar 0
AnchorPoint: "Anchor-6" 1001 143 basechar 0
AnchorPoint: "Anchor-5" 559 -13 basechar 0
AnchorPoint: "Anchor-0" 1005 1248 basechar 0
LayerCount: 2
Fore
SplineSet
1211 1169 m 1,0,-1
 1105 1169 l 1,1,-1
 1105 59 l 2,2,3
 1105 -1 1105 -1 1076 -2 c 0,4,5
 1049 0 1049 0 929 155 c 1,6,7
 910 193 910 193 910 247 c 2,8,-1
 910 1169 l 1,9,-1
 439 1169 l 1,10,-1
 500 891 l 2,11,12
 529 760 529 760 529 660 c 0,13,14
 529 525 529 525 464 445 c 0,15,16
 418 389 418 389 347 389 c 1,17,18
 246 400 246 400 154 528 c 0,19,20
 71 643 71 643 60 750 c 1,21,22
 60 830 60 830 114 830 c 0,23,24
 150 830 150 830 199 797 c 0,25,26
 233 774 233 774 256 774 c 0,27,28
 332 773 332 773 332 979 c 0,29,30
 332 1040 332 1040 323 1097 c 2,31,-1
 312 1169 l 1,32,-1
 0 1169 l 1,33,-1
 0 1325 l 1,34,-1
 1211 1325 l 1,35,-1
 1211 1169 l 1,0,-1
EndSplineSet
Validated: 1048609
EndChar

StartChar: uni0918
Encoding: 92 2328 90
Width: 1197
GlyphClass: 2
Flags: W
AnchorPoint: "Anchor-2" 909 536 mark 0
AnchorPoint: "Anchor-6" 1001 117 basechar 0 {12-17 -1,0,0,0,0,1} {}
AnchorPoint: "Anchor-5" 552 -5 basechar 0
AnchorPoint: "Anchor-0" 990 1248 basechar 0 {12-17 -1,0,0,0,0,1} {}
LayerCount: 2
Fore
SplineSet
1198 1169 m 1,0,-1
 1085 1169 l 1,1,-1
 1085 20 l 2,2,3
 1085 8 1085 8 1065 1 c 1,4,5
 1040 6 1040 6 972.5 69.5 c 128,-1,6
 905 133 905 133 905 168 c 2,7,-1
 905 330 l 1,8,-1
 909 339 l 1,9,10
 909 350 909 350 891 350 c 0,11,12
 875 350 875 350 866 345 c 2,13,-1
 756 287 l 1,14,15
 669 253 669 253 597 253 c 0,16,17
 433 253 433 253 282 408 c 0,18,19
 179 514 179 514 179 628 c 0,20,21
 179 739 179 739 282 804 c 1,22,23
 274 836 274 836 188 885 c 0,24,25
 95 938 95 938 90 948 c 0,26,27
 76 985 76 985 78 1019 c 2,28,-1
 81 1076 l 1,29,-1
 85 1129 l 2,30,31
 87 1156 87 1156 76 1169 c 1,32,-1
 0 1169 l 1,33,-1
 0 1325 l 1,34,-1
 1198 1325 l 1,35,-1
 1198 1169 l 1,0,-1
920 1169 m 1,36,-1
 292 1169 l 1,37,38
 254 1107 254 1107 254 1029 c 0,39,40
 254 972 254 972 277 914 c 0,41,42
 306 840 306 840 355 840 c 1,43,-1
 402 853 l 2,44,45
 426 860 426 860 467 865 c 0,46,47
 482 867 482 867 503 867 c 0,48,49
 565 867 565 867 595 842 c 1,50,-1
 638 786 l 2,51,52
 673 740 673 740 673 716 c 0,53,54
 673 694 673 694 626 694 c 2,55,-1
 593 694 l 1,56,-1
 563 700 l 1,57,58
 483 700 483 700 409 650 c 0,59,60
 327 594 327 594 327 518 c 0,61,62
 327 468 327 468 364 431 c 0,63,64
 377 415 377 415 404 408 c 2,65,-1
 467 401 l 1,66,67
 580 401 580 401 705 457 c 0,68,69
 838 518 838 518 896 606 c 0,70,71
 921 651 921 651 921 743 c 2,72,-1
 920 1169 l 1,36,-1
EndSplineSet
Validated: 33
EndChar

StartChar: uni0919
Encoding: 93 2329 91
Width: 1476
GlyphClass: 2
Flags: W
AnchorPoint: "Anchor-6" 721 -45 basechar 0
AnchorPoint: "Anchor-5" 718 -13 basechar 0
AnchorPoint: "Anchor-0" 926 1248 basechar 0
LayerCount: 2
Fore
SplineSet
1411 662 m 1,0,1
 1405 626 1405 626 1372 588 c 2,2,-1
 1293 497 l 1,3,-1
 1238 493 l 1,4,-1
 1174 564 l 1,5,-1
 1125 601 l 1,6,-1
 1119 619 l 1,7,-1
 1117 639 l 1,8,-1
 1121 658 l 1,9,-1
 1191 746 l 2,10,11
 1222 785 1222 785 1251 802 c 1,12,13
 1284 802 1284 802 1293 793 c 2,14,-1
 1370 711 l 1,15,-1
 1411 662 l 1,0,1
1475 1169 m 1,16,-1
 1010 1169 l 1,17,-1
 1006 1101 l 1,18,-1
 1006 1053 l 2,19,20
 1008 1042 1008 1042 1012 1018 c 2,21,-1
 1030 895 l 1,22,23
 1030 844 1030 844 1000 793 c 1,24,-1
 960 782 l 1,25,-1
 907 781 l 1,26,-1
 809 782 l 1,27,-1
 680 788 l 2,28,29
 547 794 547 794 495 714 c 0,30,31
 483 699 483 699 483 669 c 0,32,33
 483 584 483 584 592 584 c 0,34,35
 611 584 611 584 672 597 c 0,36,37
 772 619 772 619 828 619 c 0,38,39
 926 619 926 619 1025 518 c 0,40,41
 1104 438 1104 438 1113 384 c 2,42,-1
 1121 344 l 1,43,-1
 1123 303 l 2,44,45
 1133 102 1133 102 880 49 c 1,46,-1
 783 42 l 2,47,48
 630 31 630 31 470 150 c 0,49,50
 335 250 335 250 239 429 c 2,51,-1
 133 625 l 2,52,53
 102 683 102 683 71 829 c 2,54,-1
 67 849 l 1,55,56
 67 884 67 884 106 884 c 0,57,58
 134 884 134 884 155 853 c 1,59,-1
 217 646 l 2,60,61
 242 562 242 562 292 493 c 0,62,63
 382 370 382 370 451 318 c 0,64,65
 539 252 539 252 670 235 c 1,66,-1
 727 233 l 2,67,68
 824 230 824 230 893 263 c 0,69,70
 981 305 981 305 981 394 c 0,71,72
 981 427 981 427 968 466 c 1,73,74
 961 473 961 473 940 483 c 2,75,-1
 896 497 l 1,76,-1
 880 493 l 1,77,78
 762 423 762 423 689 423 c 0,79,80
 602 423 602 423 493 515 c 0,81,82
 344 641 344 641 344 791 c 0,83,84
 344 877 344 877 410 913 c 0,85,86
 435 926 435 926 480 936 c 1,87,-1
 574 944 l 1,88,-1
 734 938 l 2,89,90
 794 936 794 936 828 954 c 0,91,92
 853 971 853 971 851 1024 c 2,93,-1
 846 1169 l 1,94,-1
 0 1169 l 1,95,-1
 0 1325 l 1,96,-1
 1475 1325 l 1,97,-1
 1475 1169 l 1,16,-1
EndSplineSet
Validated: 33
EndChar

StartChar: uni091A
Encoding: 94 2330 92
Width: 1296
GlyphClass: 2
Flags: W
AnchorPoint: "Anchor-2" 992 585 mark 0
AnchorPoint: "Anchor-6" 1092 130 basechar 0 {17-17 84} {}
AnchorPoint: "Anchor-5" 637 -13 basechar 0
AnchorPoint: "Anchor-0" 1089 1248 basechar 0
LayerCount: 2
Fore
SplineSet
1296 1169 m 5,0,-1
 1187 1169 l 5,1,-1
 1187 62 l 6,2,3
 1188 -3 1188 -3 1172 -5 c 4,4,5
 1156 -5 1156 -5 1036 111 c 4,6,7
 998 149 998 149 998 217 c 6,8,-1
 999 371 l 6,9,10
 999 398 999 398 974 400 c 5,11,-1
 951 395 l 5,12,13
 883 361 883 361 814 361 c 4,14,15
 669 361 669 361 545 485 c 6,16,-1
 472 558 l 5,17,18
 420 620 420 620 420 709 c 6,19,-1
 420 757 l 5,20,21
 425 778 425 778 427 789 c 5,22,23
 357 789 357 789 327 780 c 5,24,25
 299 777 299 777 237 753 c 5,26,-1
 193 744 l 5,27,28
 160 744 160 744 134 775 c 5,29,-1
 98 842 l 5,30,-1
 49 902 l 6,31,32
 33 922 33 922 33 940 c 4,33,34
 33 964 33 964 82 963 c 6,35,-1
 763 952 l 6,36,37
 810 951 810 951 884.5 902.5 c 132,-1,38
 959 854 959 854 987 854 c 5,39,-1
 987 1169 l 5,40,-1
 0 1169 l 5,41,-1
 0 1325 l 5,42,-1
 1296 1325 l 5,43,-1
 1296 1169 l 5,0,-1
997 807 m 5,44,-1
 910 820 l 5,45,-1
 841 828 l 5,46,47
 803 828 803 828 768 819 c 4,48,49
 745 813 745 813 683 783 c 4,50,51
 636 760 636 760 605 703 c 4,52,53
 576 650 576 650 576 595 c 4,54,55
 576 563 576 563 592 544 c 4,56,57
 628 511 628 511 697 511 c 4,58,59
 883 511 883 511 994 658 c 5,60,-1
 997 807 l 5,44,-1
EndSplineSet
Validated: 33
EndChar

StartChar: uni091B
Encoding: 95 2331 93
Width: 1299
GlyphClass: 2
Flags: W
AnchorPoint: "Anchor-6" 704 -85 basechar 0 {17-17 1} {}
AnchorPoint: "Anchor-5" 670 -8 basechar 0
AnchorPoint: "Anchor-0" 928 1248 basechar 0 {17-17 1} {}
LayerCount: 2
Fore
SplineSet
1299 1168 m 1,0,-1
 1001 1168 l 1,1,-1
 1001 964 l 1,2,3
 1101 909 1101 909 1158 813 c 0,4,5
 1230 691 1230 691 1230 562 c 0,6,7
 1230 494 1230 494 1224 471 c 2,8,-1
 1211 421 l 2,9,10
 1182 309 1182 309 1076 202 c 0,11,12
 931 55 931 55 778 41 c 2,13,-1
 723 36 l 1,14,-1
 690 34 l 2,15,16
 543 25 543 25 395 114 c 0,17,18
 261 194 261 194 222 307 c 0,19,20
 217 322 217 322 213 361 c 0,21,22
 213 399 213 399 228 421 c 2,23,-1
 264 475 l 1,24,25
 155 548 155 548 107 606 c 0,26,27
 49 676 49 676 49 746 c 0,28,29
 49 786 49 786 72 838 c 0,30,31
 104 911 104 911 226 944 c 0,32,33
 300 964 300 964 385 964 c 1,34,-1
 444 898 l 1,35,-1
 507 824 l 1,36,37
 507 802 507 802 400 786 c 0,38,39
 334 776 334 776 306 763 c 0,40,41
 233 729 233 729 233 646 c 0,42,43
 233 554 233 554 306 518 c 1,44,45
 375 557 375 557 453 567 c 0,46,47
 468 569 468 569 507 569 c 1,48,-1
 597 502 l 2,49,50
 639 471 639 471 641 434 c 1,51,52
 529 416 529 416 480 390 c 0,53,54
 396 347 396 347 396 259 c 0,55,56
 396 201 396 201 459 169 c 0,57,58
 509 143 509 143 573 143 c 0,59,60
 609 143 609 143 641 153 c 0,61,62
 763 191 763 191 830 243 c 0,63,64
 884 285 884 285 974 399 c 1,65,-1
 809 509 l 2,66,67
 707 577 707 577 675 694 c 1,68,-1
 667 746 l 1,69,70
 667 822 667 822 723 883 c 0,71,72
 773 938 773 938 851 964 c 1,73,-1
 851 1168 l 1,74,-1
 0 1168 l 1,75,-1
 0 1325 l 1,76,-1
 1299 1325 l 1,77,-1
 1299 1168 l 1,0,-1
1100 657 m 2,78,-1
 1107 710 l 1,79,80
 1107 776 1107 776 1054 813 c 0,81,82
 1043 818 1043 818 1019 822 c 1,83,84
 917 822 917 822 868 710 c 1,85,86
 858 675 858 675 855 641 c 0,87,88
 855 569 855 569 899.5 519.5 c 128,-1,89
 944 470 944 470 1016 463 c 1,90,-1
 1076 566 l 1,91,92
 1093 604 1093 604 1100 657 c 2,78,-1
EndSplineSet
Validated: 33
EndChar

StartChar: uni091C
Encoding: 96 2332 94
Width: 1375
GlyphClass: 2
Flags: W
AnchorPoint: "Anchor-2" 1080 363 mark 0
AnchorPoint: "Anchor-6" 1170 117 basechar 0 {17-17 1} {}
AnchorPoint: "Anchor-5" 676 -13 basechar 0
AnchorPoint: "Anchor-0" 1166 1248 basechar 0 {12-17 -1,0,0,0,0,1} {}
LayerCount: 2
Fore
SplineSet
1375 1169 m 1,0,-1
 1273 1166 l 1,1,-1
 1273 46 l 2,2,3
 1273 3.2 1273 3.2 1257 0 c 0,4,5
 1252 -1 1252 -1 1118 105 c 0,6,7
 1078 137 1078 137 1078 172 c 2,8,-1
 1078 696 l 1,9,-1
 806 698 l 2,10,11
 781 698 781 698 736 687 c 1,12,13
 696 681 696 681 694 667 c 1,14,-1
 699 646 l 1,15,-1
 759 535 l 2,16,17
 792 474 792 474 792 383 c 0,18,19
 792 219 792 219 625 199 c 1,20,21
 521 199 521 199 435 245 c 0,22,23
 338 296 338 296 205 467 c 0,24,25
 141.866666667 548.171428571 141.866666667 548.171428571 94 661 c 2,26,-1
 38 793 l 1,27,-1
 35 812 l 1,28,29
 35 855 35 855 65 855 c 0,30,31
 101.613207547 855 101.613207547 855 126 800 c 2,32,-1
 173 694 l 2,33,34
 226 575 226 575 272 529 c 0,35,36
 343 459 343 459 373 438 c 0,37,38
 427 401 427 401 491 401 c 0,39,40
 643 401 643 401 643 558 c 1,41,42
 636 638 636 638 444 830 c 2,43,-1
 435 839 l 1,44,-1
 434 848 l 2,45,46
 433 857 433 857 455 868 c 1,47,-1
 489 875 l 1,48,-1
 1078 862 l 1,49,-1
 1078 1169 l 1,50,-1
 0 1169 l 1,51,-1
 0 1325 l 1,52,-1
 1375 1325 l 1,53,-1
 1375 1169 l 1,0,-1
EndSplineSet
Validated: 524321
EndChar

StartChar: uni091D
Encoding: 97 2333 95
Width: 1345
GlyphClass: 2
Flags: W
AnchorPoint: "Anchor-6" 1313 117 basechar 0
AnchorPoint: "Anchor-5" 689 -208 basechar 0
AnchorPoint: "Anchor-0" 1132 1248 basechar 0 {11-17 -1,1,0,0,0,0,1} {}
LayerCount: 2
Fore
SplineSet
1345 1168 m 1,0,-1
 1230 1168 l 1,1,-1
 1230 58 l 2,2,3
 1230 1 1230 1 1213 1 c 0,4,5
 1198 1 1198 1 1180 14 c 2,6,-1
 1126 56 l 2,7,8
 1049 112 1049 112 1050 166 c 2,9,-1
 1056 491 l 2,10,11
 1056 502 1056 502 1038 502 c 0,12,13
 1017 502 1017 502 992 493 c 1,14,-1
 938 485 l 1,15,16
 893 485 893 485 838 529 c 0,17,18
 816 547 816 547 764 547 c 1,19,20
 811 469 811 469 811 385 c 0,21,22
 811 256 811 256 691 176 c 1,23,-1
 668 155 l 2,24,25
 658 146 658 146 658 134 c 0,26,27
 658 123 658 123 666 116 c 2,28,-1
 795 9 l 2,29,30
 863 -48 863 -48 954 -107 c 0,31,32
 972 -119 972 -119 973 -141 c 0,33,34
 974 -172 974 -172 947.5 -193 c 128,-1,35
 921 -214 921 -214 889 -214 c 0,36,37
 808 -214 808 -214 717 -102 c 0,38,39
 579 68 579 68 543 103 c 1,40,-1
 454 85 l 1,41,-1
 378 82 l 2,42,43
 241 77 241 77 182 164 c 0,44,45
 143 222 143 222 143 281 c 0,46,47
 143 352 143 352 208 385 c 0,48,49
 253 408 253 408 302 408 c 0,50,51
 360 408 360 408 412 375 c 2,52,-1
 523 304 l 1,53,54
 584 316 584 316 631.5 372.5 c 128,-1,55
 679 429 679 429 679 491 c 1,56,-1
 675 520 l 1,57,58
 662 571 662 571 590 583 c 1,59,60
 483 527 483 527 398 527 c 0,61,62
 297 527 297 527 201 608 c 0,63,64
 63 725 63 725 63 835 c 0,65,66
 63 911 63 911 145 969 c 0,67,68
 174 990 174 990 253 989 c 2,69,-1
 380 988 l 1,70,-1
 466 986 l 2,71,72
 507 985 507 985 521 982 c 2,73,-1
 558 984 l 2,74,75
 586 988 586 988 590 998 c 2,76,-1
 601 1025 l 1,77,-1
 603 1168 l 1,78,-1
 0 1168 l 1,79,-1
 0 1325 l 1,80,-1
 1345 1325 l 1,81,-1
 1345 1168 l 1,0,-1
1046 675 m 1,82,-1
 1046 1168 l 1,83,-1
 773 1168 l 1,84,-1
 773 924 l 2,85,86
 773 872 773 872 763 857 c 0,87,88
 750 838 750 838 702 828 c 1,89,-1
 666 826 l 1,90,-1
 590 829 l 1,91,-1
 512 835 l 1,92,-1
 474 833 l 1,93,-1
 366 838 l 2,94,95
 317 840 317 840 278 821 c 0,96,97
 211 788 211 788 211 730 c 0,98,99
 211 692 211 692 246 668 c 0,100,101
 257 663 257 663 284 659 c 0,102,103
 303 659 303 659 407 692 c 0,104,105
 458 708 458 708 493 708 c 1,106,-1
 523 704 l 2,107,108
 644 688 644 688 671 637 c 0,109,110
 694 594 694 594 784 594 c 0,111,112
 922 594 922 594 1046 675 c 1,82,-1
EndSplineSet
Validated: 33
EndChar

StartChar: uni091E
Encoding: 98 2334 96
Width: 1318
GlyphClass: 2
Flags: W
AnchorPoint: "Anchor-6" 1105 104 basechar 0
AnchorPoint: "Anchor-5" 624 -13 basechar 0
AnchorPoint: "Anchor-0" 1122 1248 basechar 0 {12-17 1,0,0,0,0,1} {}
LayerCount: 2
Fore
SplineSet
1318 1169 m 1,0,-1
 1203 1169 l 1,1,-1
 1204 77 l 2,2,3
 1205 -3 1205 -3 1190 -3 c 0,4,5
 1178 -3 1178 -3 1118.5 49 c 128,-1,6
 1059 101 1059 101 1042 132 c 0,7,8
 1032 150 1032 150 1032 180 c 2,9,-1
 1032 585 l 1,10,-1
 918 582 l 2,11,12
 877 581 877 581 854 596 c 1,13,-1
 814 632 l 2,14,15
 803 642 803 642 789 646 c 0,16,17
 776 646 776 646 776 608 c 0,18,19
 776 591 776 591 780 580 c 2,20,-1
 784 548 l 1,21,22
 784 433 784 433 703.5 358 c 128,-1,23
 623 283 623 283 507 283 c 0,24,25
 389 283 389 283 261 383 c 0,26,27
 154 467 154 467 89 585 c 0,28,29
 68 623 68 623 61 646 c 2,30,-1
 52 697 l 1,31,32
 52 726 52 726 70 728 c 0,33,34
 94 728 94 728 133 660 c 0,35,36
 160 613 160 613 187 566 c 1,37,38
 229 512 229 512 288 487 c 0,39,40
 365 454 365 454 432 454 c 0,41,42
 599 454 599 454 651 632 c 1,43,-1
 658 683 l 1,44,45
 658 776 658 776 557 776 c 0,46,47
 501 776 501 776 448 744 c 0,48,49
 412 722 412 722 384 722 c 0,50,51
 359 722 359 722 327 749 c 1,52,-1
 274 804 l 1,53,54
 233 839 233 839 230 846 c 0,55,56
 208 872 208 872 204 893 c 1,57,58
 204 946 204 946 341 946 c 0,59,60
 614 946 614 946 752 699 c 1,61,-1
 793 697 l 2,62,63
 832 695 832 695 865 700 c 0,64,65
 978 715 978 715 1031 749 c 1,66,-1
 1031 1169 l 1,67,-1
 0 1169 l 1,68,-1
 0 1325 l 1,69,-1
 1318 1325 l 1,70,-1
 1318 1169 l 1,0,-1
EndSplineSet
Validated: 33
EndChar

StartChar: uni091F
Encoding: 99 2335 97
Width: 1068
GlyphClass: 2
Flags: W
AnchorPoint: "Anchor-10" 830 1260 basechar 0
AnchorPoint: "Anchor-9" 900 1235 basechar 0
AnchorPoint: "Anchor-8" 830 1248 basechar 0
AnchorPoint: "Anchor-6" 588 -145 basechar 0
AnchorPoint: "Anchor-5" 585 -13 basechar 0
AnchorPoint: "Anchor-0" 590 1248 basechar 0
LayerCount: 2
Fore
SplineSet
1068 1169 m 1,0,-1
 666 1169 l 1,1,2
 744 1096 744 1096 741 974 c 2,3,-1
 737 834 l 1,4,-1
 741 764 l 2,5,6
 744 696 744 696 697 668 c 0,7,8
 681 657 681 657 610 642 c 0,9,10
 435 610 435 610 359 560 c 0,11,12
 258 493 258 493 240 359 c 1,13,14
 240 284 240 284 312 235 c 0,15,16
 377 191 377 191 456 191 c 0,17,18
 524 191 524 191 617 231 c 0,19,20
 696 264 696 264 773 298 c 1,21,22
 833 319 833 319 901 332 c 1,23,-1
 984 271 l 2,24,25
 1034 233 1034 233 1034 209 c 0,26,27
 1034 193 1034 193 1018 179 c 0,28,29
 828 17 828 17 588 17 c 0,30,31
 468 17 468 17 369 69 c 0,32,33
 291 110 291 110 191 211 c 0,34,35
 58 347 58 347 58 494 c 0,36,37
 58 705 58 705 363 781 c 2,38,-1
 448 802 l 2,39,40
 504 816 504 816 540 871 c 1,41,-1
 551 911 l 1,42,-1
 555 974 l 2,43,44
 559 1017 559 1017 549 1085 c 0,45,46
 543 1131 543 1131 524 1169 c 1,47,-1
 0 1169 l 1,48,-1
 0 1325 l 1,49,-1
 1068 1325 l 1,50,-1
 1068 1169 l 1,0,-1
EndSplineSet
Validated: 33
EndChar

StartChar: uni0920
Encoding: 100 2336 98
Width: 1078
GlyphClass: 2
Flags: W
AnchorPoint: "Anchor-10" 830 1260 basechar 0
AnchorPoint: "Anchor-9" 900 1235 basechar 0
AnchorPoint: "Anchor-8" 830 1248 basechar 0
AnchorPoint: "Anchor-6" 598 -132 basechar 0
AnchorPoint: "Anchor-5" 549 -5 basechar 0
AnchorPoint: "Anchor-0" 528 1248 basechar 0 {11-13 -1,0,-1} {}
LayerCount: 2
Fore
SplineSet
1078 1169 m 1,0,-1
 596 1169 l 1,1,2
 660 957 660 957 660 893 c 0,3,4
 660 861 660 861 649 833 c 1,5,6
 643 800 643 800 622 766 c 1,7,8
 813 672 813 672 895 590 c 0,9,10
 1002 484 1002 484 1002 345 c 0,11,12
 1002 188 1002 188 877 96 c 0,13,14
 766 17 766 17 601 17 c 0,15,16
 405 17 405 17 219 175 c 0,17,18
 42 326 42 326 42 465 c 0,19,20
 42 682 42 682 301 779 c 0,21,22
 406 818 406 818 457 886 c 1,23,24
 500 957 500 957 500 1024 c 1,25,-1
 494 1088 l 1,26,-1
 474 1169 l 1,27,-1
 0 1169 l 1,28,-1
 0 1325 l 1,29,-1
 1078 1325 l 1,30,-1
 1078 1169 l 1,0,-1
763 324 m 0,31,32
 801 371 801 371 801 436 c 0,33,34
 801 541 801 541 721 624 c 128,-1,35
 641 707 641 707 537 707 c 1,36,-1
 367 600 l 2,37,38
 243 520 243 520 243 385 c 0,39,40
 243 299 243 299 293 239 c 0,41,42
 345 175 345 175 430 175 c 0,43,44
 552 175 552 175 618 202 c 0,45,46
 691 234 691 234 763 324 c 0,31,32
EndSplineSet
Validated: 1
EndChar

StartChar: uni0921
Encoding: 101 2337 99
Width: 1180
GlyphClass: 2
Flags: W
AnchorPoint: "Anchor-6" 711 -94 basechar 0 {17-17 1} {}
AnchorPoint: "Anchor-5" 585 -13 basechar 0
AnchorPoint: "Anchor-0" 897 1248 basechar 0 {17-17 1} {}
LayerCount: 2
Fore
SplineSet
1179 1168 m 1,0,-1
 985 1168 l 1,1,-1
 985 1066 l 2,2,3
 985 957 985 957 1015 837 c 1,4,5
 1015 797 1015 797 990 778 c 1,6,7
 959 762 959 762 920 764 c 2,8,-1
 822 770 l 1,9,-1
 686 778 l 2,10,11
 469 792 469 792 469 623 c 1,12,13
 477 573 477 573 567 573 c 0,14,15
 581 574 581 574 692 584 c 2,16,-1
 822 595 l 2,17,18
 932 604 932 604 1029 500 c 0,19,20
 1118 405 1118 405 1118 285 c 0,21,22
 1118 134 1118 134 977 64 c 0,23,24
 901 27 901 27 802 27 c 0,25,26
 685 27 685 27 574 71 c 0,27,28
 451 120 451 120 383 204 c 0,29,30
 327 272 327 272 211 421 c 0,31,32
 188 451 188 451 140 553 c 0,33,34
 113 607 113 607 53 757 c 2,35,-1
 45 778 l 1,36,-1
 43 801 l 1,37,38
 43 849 43 849 82 849 c 0,39,40
 129 849 129 849 156 784 c 0,41,42
 175 737 175 737 200 644 c 0,43,44
 223 562 223 562 247 521 c 0,45,46
 345 364 345 364 446 292 c 0,47,48
 566 208 566 208 744 208 c 0,49,50
 828 208 828 208 904 256 c 0,51,52
 990 310 990 310 990 388 c 0,53,54
 990 438 990 438 946 461 c 0,55,56
 921 474 921 474 899 474 c 0,57,58
 876 474 876 474 822 445 c 0,59,60
 759 411 759 411 724 409 c 2,61,-1
 682 407 l 2,62,63
 520 398 520 398 372 613 c 0,64,65
 326 679 326 679 326 750 c 0,66,67
 326 832 326 832 381 885 c 128,-1,68
 436 938 436 938 517 934 c 2,69,-1
 715 924 l 2,70,71
 759 922 759 922 809 935 c 1,72,-1
 809 1168 l 1,73,-1
 0 1168 l 1,74,-1
 0 1325 l 1,75,-1
 1179 1325 l 1,76,-1
 1179 1168 l 1,0,-1
EndSplineSet
Validated: 33
EndChar

StartChar: uni0922
Encoding: 102 2338 100
Width: 1033
GlyphClass: 2
Flags: W
AnchorPoint: "Anchor-10" 830 1260 basechar 0
AnchorPoint: "Anchor-9" 900 1235 basechar 0
AnchorPoint: "Anchor-8" 830 1248 basechar 0
AnchorPoint: "Anchor-6" 627 -107 basechar 0
AnchorPoint: "Anchor-5" 529 -4 basechar 0
AnchorPoint: "Anchor-0" 715 1243 basechar 0 {11-11 -1} {}
LayerCount: 2
Fore
SplineSet
1033 1169 m 1,0,-1
 810 1169 l 2,1,2
 793 1169 793 1169 793 1133 c 2,3,-1
 799 1079 l 1,4,-1
 810 1017 l 1,5,-1
 821 941 l 1,6,-1
 830 856 l 1,7,8
 830 792 830 792 798 768 c 0,9,10
 769 748 769 748 702 750 c 2,11,-1
 576 755 l 2,12,13
 433 759 433 759 338 693 c 0,14,15
 232 618 232 618 232 480 c 0,16,17
 232 247 232 247 434 191 c 1,18,19
 458 191 458 191 458 214 c 2,20,-1
 455 256 l 1,21,-1
 446 355 l 1,22,23
 446 442 446 442 484 489 c 0,24,25
 550 572 550 572 659 572 c 0,26,27
 826 572 826 572 909 436 c 0,28,29
 959 355 959 355 959 264 c 0,30,31
 959 86 959 86 786 25 c 1,32,33
 731 12 731 12 687 12 c 0,34,35
 635 12 635 12 578 23 c 1,36,37
 546 23 546 23 476 52 c 0,38,39
 411 79 411 79 382.5 99.5 c 128,-1,40
 354 120 354 120 296 177 c 0,41,42
 201 271 201 271 140 389 c 0,43,44
 72 521 72 521 72 639 c 0,45,46
 72 830 72 830 243 890 c 0,47,48
 311 915 311 915 386 912 c 2,49,-1
 553 905 l 1,50,-1
 606 912 l 1,51,52
 621 930 621 930 630 968 c 2,53,-1
 641 1012 l 1,54,-1
 641 1042 l 1,55,-1
 636 1169 l 1,56,-1
 0 1169 l 1,57,-1
 0 1325 l 1,58,-1
 1033 1325 l 1,59,-1
 1033 1169 l 1,0,-1
769 421 m 0,60,61
 665 421 665 421 603 363 c 0,62,63
 519 284 519 284 519 222 c 0,64,65
 519 193 519 193 536 177 c 0,66,67
 542 171 542 171 566 171 c 0,68,69
 697 171 697 171 780 225 c 0,70,71
 818 251 818 251 839 275 c 0,72,73
 868 304 868 304 868 339 c 0,74,75
 868 421 868 421 769 421 c 0,60,61
EndSplineSet
Validated: 33
EndChar

StartChar: uni0923
Encoding: 103 2339 101
Width: 1336
GlyphClass: 2
Flags: W
AnchorPoint: "Anchor-6" 1093 129 basechar 0 {17-17 1} {}
AnchorPoint: "Anchor-5" 624 -13 basechar 0
AnchorPoint: "Anchor-0" 1115 1248 basechar 0 {11-17 -1,0,0,0,0,0,1} {}
LayerCount: 2
Fore
SplineSet
1336 1170 m 1,0,-1
 1202 1170 l 1,1,-1
 1202 48 l 2,2,3
 1202 -3 1202 -3 1187 -3 c 0,4,5
 1163 -3 1163 -3 1088 70 c 0,6,7
 1043 114 1043 114 1028 152 c 0,8,9
 1015 187 1015 187 1015 253 c 2,10,-1
 1015 1170 l 1,11,-1
 761 1170 l 1,12,-1
 761 653 l 2,13,14
 761 521 761 521 735 458 c 0,15,16
 702 378 702 378 611 353 c 1,17,-1
 577 348 l 1,18,-1
 545 346 l 2,19,20
 469 341 469 341 389 394 c 2,21,-1
 287 461 l 2,22,23
 189 526 189 526 145 578 c 0,24,25
 84 651 84 651 84 745 c 2,26,-1
 84 1170 l 1,27,-1
 0 1170 l 1,28,-1
 0 1325 l 1,29,-1
 1336 1325 l 1,30,-1
 1336 1170 l 1,0,-1
574 752 m 1,31,-1
 574 1170 l 1,32,-1
 278 1170 l 1,33,-1
 278 627 l 2,34,35
 278 568 278 568 307 541 c 1,36,37
 345 514 345 514 386 514 c 0,38,39
 411 514 411 514 423 518 c 2,40,-1
 472 534 l 2,41,42
 559 563 559 563 565 635 c 2,43,-1
 574 752 l 1,31,-1
EndSplineSet
Validated: 33
EndChar

StartChar: uni0924
Encoding: 104 2340 102
Width: 1111
GlyphClass: 2
Flags: W
AnchorPoint: "Anchor-2" 974 648 mark 0
AnchorPoint: "Anchor-6" 878 117 basechar 0
AnchorPoint: "Anchor-5" 536 -5 basechar 0
AnchorPoint: "Anchor-0" 891 1248 basechar 0 {11-17 -1,0,0,0,0,0,1} {}
LayerCount: 2
Fore
SplineSet
1112 1169 m 1,0,-1
 988 1169 l 1,1,-1
 988 62 l 2,2,3
 988 -5 988 -5 976 -7 c 0,4,5
 969 -7 969 -7 885 62 c 2,6,-1
 822 114 l 1,7,8
 794 144 794 144 794 182 c 2,9,-1
 797 714 l 1,10,-1
 498 714 l 1,11,12
 248 684 248 684 248 465 c 0,13,14
 248 324 248 324 349 239 c 2,15,-1
 436 166 l 2,16,17
 525 91 525 91 538 64 c 0,18,19
 549 41 549 41 552 16 c 0,20,21
 552 -8 552 -8 529 -9 c 0,22,23
 504 -10 504 -10 458 22 c 0,24,25
 359 90 359 90 303 164 c 2,26,-1
 173 335 l 2,27,28
 79 459 79 459 79 607 c 0,29,30
 79 729 79 729 182 809 c 0,31,32
 269 876 269 876 374 878 c 2,33,-1
 486 880 l 1,34,-1
 792 877 l 1,35,-1
 792 1169 l 1,36,-1
 0 1169 l 1,37,-1
 0 1325 l 1,38,-1
 1112 1325 l 1,39,-1
 1112 1169 l 1,0,-1
EndSplineSet
Validated: 33
EndChar

StartChar: uni0925
Encoding: 105 2341 103
Width: 1181
GlyphClass: 2
Flags: W
AnchorPoint: "Anchor-2" 873 555 mark 0
AnchorPoint: "Anchor-6" 952 114 basechar 0 {17-17 1} {}
AnchorPoint: "Anchor-5" 559 0 basechar 0
AnchorPoint: "Anchor-0" 987 1248 basechar 0 {17-17 1} {}
LayerCount: 2
Fore
SplineSet
1181 1169 m 1,0,-1
 1070 1169 l 1,1,-1
 1070 77 l 2,2,3
 1070 0 1070 0 1045 -1 c 0,4,5
 1024 -2 1024 -2 894 118 c 1,6,7
 867 150 867 150 867 203 c 2,8,-1
 867 345 l 2,9,10
 864 365 864 365 855 384 c 1,11,12
 708 292 708 292 600 292 c 0,13,14
 403 292 403 292 259 459 c 2,15,-1
 149 587 l 1,16,-1
 64 696 l 1,17,-1
 58 708 l 1,18,19
 58 726 58 726 102 744 c 0,20,21
 137 758 137 758 162 762 c 0,22,23
 276 778 276 778 338 825 c 2,24,-1
 371 850 l 1,25,26
 368 855 368 855 364 857 c 0,27,28
 356 862 356 862 336 871 c 0,29,30
 209 926 209 926 167 954 c 0,31,32
 51 1031 51 1031 51 1142 c 0,33,34
 51 1226 51 1226 120 1277 c 0,35,36
 182 1324 182 1324 269 1324 c 0,37,38
 480 1324 480 1324 591 1106 c 0,39,40
 644 1002 644 1002 644 923 c 0,41,42
 644 781 644 781 486 688 c 1,43,-1
 331 621 l 2,44,45
 305 610 305 610 295 599 c 0,46,47
 289 590 289 590 286 574 c 0,48,49
 286 556 286 556 304 530 c 0,50,51
 329 501 329 501 375 477 c 1,52,53
 418 461 418 461 470 461 c 0,54,55
 578 461 578 461 692 522 c 0,56,57
 778 568 778 568 809 592 c 0,58,59
 862 633 862 633 882 685 c 1,60,-1
 882 1169 l 1,61,-1
 706 1169 l 1,62,-1
 584 1325 l 1,63,-1
 1181 1325 l 1,64,-1
 1181 1169 l 1,0,-1
506 1061 m 0,65,66
 506 1114 506 1114 466 1151 c 128,-1,67
 426 1188 426 1188 373 1188 c 0,68,69
 323 1188 323 1188 291 1152.5 c 128,-1,70
 259 1117 259 1117 259 1066 c 0,71,72
 259 953 259 953 425 907 c 1,73,74
 506 951 506 951 506 1061 c 0,65,66
EndSplineSet
Validated: 33
EndChar

StartChar: uni0926
Encoding: 106 2342 104
Width: 996
GlyphClass: 2
Flags: W
AnchorPoint: "Anchor-2" 680 336 mark 0
AnchorPoint: "Anchor-10" 830 1260 basechar 0
AnchorPoint: "Anchor-9" 900 1235 basechar 0
AnchorPoint: "Anchor-8" 830 1248 basechar 0
AnchorPoint: "Anchor-6" 452 -90 basechar 0 {17-17 1} {}
AnchorPoint: "Anchor-5" 499 -83 basechar 0
AnchorPoint: "Anchor-0" 737 1248 basechar 0 {11-17 -1,0,0,0,0,0,1} {}
LayerCount: 2
Fore
SplineSet
996 1169 m 1,0,-1
 820 1169 l 1,1,2
 807 1136 807 1136 807 1109 c 0,3,4
 807 1083 807 1083 825 987 c 0,5,6
 836 929 836 929 836 899 c 2,7,-1
 836 869 l 1,8,9
 831 839 831 839 809 773 c 1,10,11
 791 766 791 766 754 767 c 2,12,-1
 593 771 l 2,13,14
 360 777 360 777 273 674 c 0,15,16
 209 598 209 598 209 509 c 0,17,18
 209 415 209 415 271.5 347.5 c 128,-1,19
 334 280 334 280 428 280 c 1,20,-1
 479 285 l 2,21,22
 508 291 508 291 534 306 c 0,23,24
 547 316 547 316 546 345 c 2,25,-1
 544 400 l 2,26,27
 540 521 540 521 683 544 c 1,28,29
 751 544 751 544 814.5 482 c 128,-1,30
 878 420 878 420 878 352 c 0,31,32
 878 317 878 317 863 285 c 0,33,34
 857 271 857 271 816 231 c 0,35,36
 779 195 779 195 779 182 c 1,37,-1
 793 151 l 1,38,39
 820 111 820 111 898 16 c 0,40,41
 1011 -122 1011 -122 1011 -189 c 0,42,43
 1011 -227 1011 -227 982 -264 c 0,44,45
 965 -280 965 -280 940 -280 c 0,46,47
 897 -280 897 -280 830 -239 c 0,48,49
 758 -195 758 -195 758 -156 c 0,50,51
 758 -126 758 -126 786.5 -101 c 128,-1,52
 815 -76 815 -76 818 -60 c 0,53,54
 818 -16 818 -16 720 120 c 1,55,-1
 702 139 l 2,56,57
 687 151 687 151 662 155 c 1,58,-1
 637 151 l 1,59,-1
 577 146 l 2,60,61
 565 145 565 145 551 145 c 0,62,63
 411 145 411 145 248 274 c 0,64,65
 75 411 75 411 53 609 c 1,66,67
 53 763 53 763 161 844 c 0,68,69
 258 918 258 918 417 916 c 2,70,-1
 520 915 l 2,71,72
 596 914 596 914 612 921 c 0,73,74
 641 933 641 933 657 993 c 1,75,-1
 657 1169 l 1,76,-1
 0 1169 l 1,77,-1
 0 1325 l 1,78,-1
 996 1325 l 1,79,-1
 996 1169 l 1,0,-1
EndSplineSet
Validated: 33
EndChar

StartChar: uni0927
Encoding: 107 2343 105
Width: 1180
GlyphClass: 2
Flags: W
AnchorPoint: "Anchor-2" 872 522 mark 0
AnchorPoint: "Anchor-6" 958 138 basechar 0
AnchorPoint: "Anchor-5" 572 -13 basechar 0
AnchorPoint: "Anchor-0" 976 1243 basechar 0
LayerCount: 2
Fore
SplineSet
1180 1169 m 1,0,-1
 1064 1169 l 1,1,-1
 1064 68 l 2,2,3
 1064 -3 1064 -3 1051 -3 c 0,4,5
 1037 -3 1037 -3 951 79 c 0,6,7
 893 134 893 134 880 169 c 1,8,9
 871 206 871 206 871 358 c 1,10,-1
 764 304 l 2,11,12
 683 263 683 263 594 263 c 0,13,14
 495 263 495 263 431 293 c 0,15,16
 374 319 374 319 298 394 c 0,17,18
 182 507 182 507 182 639 c 0,19,20
 182 696 182 696 213 731 c 2,21,-1
 275 801 l 1,22,23
 259 829 259 829 221 858 c 1,24,-1
 175 885 l 2,25,26
 153 898 153 898 144 906 c 0,27,28
 109 929 109 929 91 981 c 1,29,30
 79 1046 79 1046 79 1101 c 2,31,-1
 79 1123 l 2,32,33
 79 1169 79 1169 0 1169 c 1,34,-1
 0 1325 l 1,35,-1
 232 1325 l 1,36,-1
 327 1169 l 1,37,-1
 282 1169 l 1,38,-1
 253 1078 l 2,39,40
 244 1049 244 1049 244 1007 c 0,41,42
 244 911 244 911 337 838 c 1,43,44
 423 871 423 871 489 871 c 0,45,46
 557 871 557 871 607 811 c 2,47,-1
 636 776 l 2,48,49
 657 751 657 751 657 737 c 0,50,51
 657 711 657 711 591 711 c 0,52,53
 485 711 485 711 415 669 c 0,54,55
 331 618 331 618 331 519 c 0,56,57
 331 400 331 400 457 406 c 2,58,-1
 500 408 l 2,59,60
 617 413 617 413 739 486 c 0,61,62
 844 549 844 549 891 622 c 1,63,-1
 891 1169 l 1,64,-1
 543 1169 l 1,65,-1
 441 1325 l 1,66,-1
 1180 1325 l 1,67,-1
 1180 1169 l 1,0,-1
EndSplineSet
Validated: 33
EndChar

StartChar: uni0928
Encoding: 108 2344 106
Width: 1093
GlyphClass: 2
Flags: W
AnchorPoint: "Anchor-2" 804 446 mark 0
AnchorPoint: "Anchor-6" 897 130 basechar 0
AnchorPoint: "Anchor-5" 526 -5 basechar 0
AnchorPoint: "Anchor-0" 924 1248 basechar 0
LayerCount: 2
Fore
SplineSet
1093 1168 m 1,0,-1
 1004 1168 l 1,1,-1
 1004 75 l 2,2,3
 1005 1 1005 1 980 0 c 0,4,5
 954 -1 954 -1 883 73 c 2,6,-1
 832 130 l 2,7,8
 806 159 806 159 801 188 c 1,9,-1
 802 639 l 1,10,-1
 489 639 l 2,11,12
 454 639 454 639 424 614 c 0,13,14
 404 598 404 598 400 566 c 1,15,-1
 404 548 l 1,16,17
 434 455 434 455 434 401 c 0,18,19
 434 336 434 336 402 325 c 1,20,-1
 342 318 l 1,21,22
 282 318 282 318 223 364 c 1,23,-1
 158 428 l 2,24,25
 59 525 59 525 59 634 c 0,26,27
 59 816 59 816 324 808 c 1,28,-1
 823 807 l 1,29,-1
 823 1168 l 1,30,-1
 0 1168 l 1,31,-1
 0 1325 l 1,32,-1
 1093 1325 l 1,33,-1
 1093 1168 l 1,0,-1
EndSplineSet
Validated: 33
EndChar

StartChar: uni092A
Encoding: 110 2346 108
Width: 1009
GlyphClass: 2
Flags: W
AnchorPoint: "Anchor-2" 695 629 mark 0
AnchorPoint: "Anchor-6" 813 116 basechar 0
AnchorPoint: "Anchor-5" 481 0 basechar 0
AnchorPoint: "Anchor-0" 818 1248 basechar 0
LayerCount: 2
Fore
SplineSet
1010 1169 m 1,0,-1
 898 1168 l 1,1,-1
 898 70 l 2,2,3
 898 -6 898 -6 875 -6 c 0,4,5
 855.595744681 -6 855.595744681 -6 818 25 c 2,6,-1
 761 72 l 2,7,8
 693.580149586 128.350919749 693.580149586 128.350919749 695 232 c 2,9,-1
 696 305 l 1,10,-1
 705 370 l 1,11,-1
 703 404 l 2,12,13
 701 430 701 430 695 454 c 1,14,-1
 626 439 l 1,15,-1
 578 436 l 1,16,-1
 535 436 l 2,17,18
 447 436 447 436 383 468 c 0,19,20
 357 481 357 481 267 552 c 0,21,22
 189 613 189 613 167 637 c 0,23,24
 118 688 118 688 103 749 c 1,25,-1
 103 1169 l 1,26,-1
 0 1169 l 1,27,-1
 0 1325 l 1,28,-1
 1010 1325 l 1,29,-1
 1010 1169 l 1,0,-1
719 715 m 1,30,-1
 719 1169 l 1,31,-1
 279 1169 l 1,32,-1
 279 688 l 1,33,34
 285 638 285 638 315 613 c 1,35,36
 349 591 349 591 399 591 c 1,37,-1
 460 597 l 1,38,-1
 521 613 l 2,39,40
 587 630 587 630 621 647 c 0,41,42
 674 673 674 673 719 715 c 1,30,-1
EndSplineSet
Validated: 524321
EndChar

StartChar: uni092B
Encoding: 111 2347 109
Width: 1353
GlyphClass: 2
Flags: W
AnchorPoint: "Anchor-2" 593 679 mark 0
AnchorPoint: "Anchor-10" 830 1260 basechar 0
AnchorPoint: "Anchor-9" 900 1235 basechar 0
AnchorPoint: "Anchor-8" 830 1248 basechar 0
AnchorPoint: "Anchor-6" 702 117 basechar 0 {13-13 1} {}
AnchorPoint: "Anchor-5" 702 0 basechar 0
AnchorPoint: "Anchor-0" 682 1248 basechar 0 {13-13 1} {}
LayerCount: 2
Fore
SplineSet
1353 1169 m 1,0,-1
 773 1169 l 1,1,-1
 774 794 l 1,2,3
 851 818 851 818 908 818 c 0,4,5
 1017 818 1017 818 1102 738 c 0,6,7
 1132 710 1132 710 1221 581 c 0,8,9
 1288 484 1288 484 1288 309 c 0,10,11
 1288 118 1288 118 1215 21 c 0,12,13
 1207 10 1207 10 1193 10 c 0,14,15
 1171 10 1171 10 1128 58 c 2,16,-1
 1086 105 l 1,17,-1
 1036 154 l 2,18,19
 1008 187 1008 187 1008 204 c 0,20,21
 1008 216 1008 216 1022 231 c 0,22,23
 1096 309 1096 309 1116 352 c 0,24,25
 1141 405 1141 405 1141 502 c 0,26,27
 1141 650 1141 650 1045 655 c 2,28,-1
 1006 657 l 2,29,30
 937 661 937 661 880 637 c 2,31,-1
 780 597 l 1,32,-1
 780 30 l 2,33,34
 780 -4 780 -4 762 -6 c 0,35,36
 745 -6 745 -6 705 21 c 0,37,38
 646 62 646 62 634 85 c 1,39,40
 590 134 590 134 591 187 c 2,41,-1
 592 504 l 1,42,43
 449 504 449 504 369.5 534.5 c 128,-1,44
 290 565 290 565 182 659 c 0,45,46
 63 763 63 763 63 863 c 2,47,-1
 63 1169 l 1,48,-1
 0 1169 l 1,49,-1
 0 1325 l 1,50,-1
 1353 1325 l 1,51,-1
 1353 1169 l 1,0,-1
590 721 m 1,52,-1
 590 1169 l 1,53,-1
 244 1169 l 1,54,-1
 244 865 l 2,55,56
 243 803 243 803 259 735 c 0,57,58
 279 650 279 650 366 650 c 0,59,60
 418 650 418 650 487 674 c 0,61,62
 523 686 523 686 590 721 c 1,52,-1
EndSplineSet
Validated: 33
EndChar

StartChar: uni092C
Encoding: 112 2348 110
Width: 1041
GlyphClass: 2
Flags: W
AnchorPoint: "Anchor-2" 733 542 mark 0
AnchorPoint: "Anchor-6" 819 130 basechar 0 {13-13 1} {}
AnchorPoint: "Anchor-5" 468 -26 basechar 0
AnchorPoint: "Anchor-0" 823 1248 basechar 0 {11-11 1} {}
LayerCount: 2
Fore
SplineSet
1041 1169 m 1,0,-1
 912 1169 l 1,1,-1
 913 20 l 1,2,3
 906 0 906 0 901 0 c 0,4,5
 880 0 880 0 755 123 c 0,6,7
 732 151 732 151 732 187 c 2,8,-1
 732 368 l 1,9,-1
 708 388 l 1,10,11
 588 306 588 306 460 306 c 0,12,13
 377 306 377 306 307 352 c 0,14,15
 64 511 64 511 64 731 c 0,16,17
 64 850 64 850 178 911 c 0,18,19
 270 960 270 960 399 960 c 0,20,21
 483 960 483 960 603.5 893 c 128,-1,22
 724 826 724 826 735 826 c 1,23,-1
 735 1169 l 1,24,-1
 0 1169 l 1,25,-1
 0 1325 l 1,26,-1
 1041 1325 l 1,27,-1
 1041 1169 l 1,0,-1
735 760 m 1,28,29
 728 780 728 780 636 795 c 0,30,31
 567 806 567 806 522 806 c 0,32,33
 451 806 451 806 415 789 c 1,34,-1
 472 692 l 1,35,-1
 581 527 l 1,36,37
 627 538 627 538 683 579 c 0,38,39
 712 600 712 600 732 622 c 1,40,-1
 735 760 l 1,28,29
517 497 m 1,41,42
 500 532 500 532 465 594 c 0,43,44
 461 601 461 601 447 623 c 2,45,-1
 352 772 l 1,46,47
 213 707 213 707 213 572 c 1,48,49
 223 466 223 466 352 466 c 0,50,51
 424 466 424 466 517 497 c 1,41,42
EndSplineSet
Validated: 1
EndChar

StartChar: uni092D
Encoding: 113 2349 111
Width: 1198
GlyphClass: 2
Flags: W
AnchorPoint: "Anchor-2" 905 499 mark 0
AnchorPoint: "Anchor-6" 991 118 basechar 0 {17-17 1} {}
AnchorPoint: "Anchor-5" 585 -13 basechar 0
AnchorPoint: "Anchor-0" 990 1248 basechar 0 {11-17 -1,0,0,0,0,0,1} {}
LayerCount: 2
Fore
SplineSet
1198 1169 m 1,0,-1
 1081 1169 l 1,1,-1
 1081 39 l 2,2,3
 1081 -3 1081 -3 1066 -3 c 0,4,5
 1047 -3 1047 -3 1011 39 c 1,6,-1
 936 101 l 2,7,8
 898 132 898 132 903 204 c 1,9,-1
 903 559 l 1,10,-1
 523 559 l 1,11,12
 501 551 501 551 501 511 c 0,13,14
 501 338 501 338 404 338 c 0,15,16
 358 338 358 338 286 417 c 2,17,-1
 220 489 l 2,18,19
 119 599 119 599 119 647 c 0,20,21
 119 726 119 726 191 731 c 2,22,-1
 266 736 l 2,23,24
 284 737 284 737 289 740 c 2,25,-1
 305 747 l 1,26,-1
 313 794 l 1,27,-1
 313 1002 l 1,28,-1
 304 1080 l 2,29,30
 304 1111 304 1111 275 1129 c 1,31,-1
 236 1133 l 2,32,33
 202 1133 202 1133 162 1118 c 0,34,35
 104 1096 104 1096 78 1092 c 1,36,37
 28 1093 28 1093 0 1169 c 1,38,-1
 0 1325 l 1,39,-1
 122 1325 l 2,40,41
 242 1325 242 1325 360 1183 c 1,42,43
 443 1090 443 1090 469 1033 c 1,44,45
 482 1026 482 1026 483 888 c 0,46,47
 485 744 485 744 496 729 c 1,48,-1
 903 729 l 1,49,-1
 903 1169 l 1,50,-1
 643 1169 l 1,51,-1
 509 1325 l 1,52,-1
 1198 1325 l 1,53,-1
 1198 1169 l 1,0,-1
EndSplineSet
Validated: 33
EndChar

StartChar: uni092E
Encoding: 114 2350 112
Width: 1205
GlyphClass: 2
Flags: W
AnchorPoint: "Anchor-2" 877 470 mark 0
AnchorPoint: "Anchor-6" 975 117 basechar 0
AnchorPoint: "Anchor-5" 572 0 basechar 0
AnchorPoint: "Anchor-0" 970 1248 basechar 0
LayerCount: 2
Fore
SplineSet
1205 1169 m 1,0,-1
 1064 1169 l 1,1,-1
 1064 56 l 1,2,3
 1068 -6 1068 -6 1041 0 c 1,4,5
 1016 -6 1016 -6 948.5 67 c 128,-1,6
 881 140 881 140 873 176 c 1,7,-1
 873 529 l 1,8,-1
 470 529 l 1,9,10
 435 512 435 512 438 480 c 2,11,-1
 442 432 l 1,12,-1
 442 407 l 2,13,14
 442 390 442 390 438 372 c 1,15,16
 438 347 438 347 407 330 c 0,17,18
 380 315 380 315 353 315 c 0,19,20
 299 315 299 315 242 379 c 2,21,-1
 151 482 l 1,22,23
 62 557 62 557 62 626 c 0,24,25
 62 712 62 712 149 712 c 2,26,-1
 187 712 l 1,27,-1
 216 714 l 1,28,-1
 245 724 l 1,29,-1
 245 1169 l 1,30,-1
 0 1169 l 1,31,-1
 0 1325 l 1,32,-1
 1205 1325 l 1,33,-1
 1205 1169 l 1,0,-1
879 706 m 1,34,-1
 879 1169 l 1,35,-1
 429 1169 l 1,36,-1
 429 706 l 1,37,-1
 879 706 l 1,34,-1
EndSplineSet
Validated: 33
EndChar

StartChar: uni092F
Encoding: 115 2351 113
Width: 1142
GlyphClass: 2
Flags: W
AnchorPoint: "Anchor-2" 823 603 mark 0
AnchorPoint: "Anchor-6" 903 134 basechar 0 {13-13 1} {}
AnchorPoint: "Anchor-5" 553 -5 basechar 0
AnchorPoint: "Anchor-0" 924 1248 basechar 0 {13-13 1} {}
LayerCount: 2
Fore
SplineSet
1142 1169 m 1,0,-1
 1016 1169 l 1,1,-1
 1017 23 l 2,2,3
 1017 2 1017 2 1008 0 c 0,4,5
 997 0 997 0 962 29 c 1,6,-1
 856 137 l 2,7,8
 830 163 830 163 822 185 c 1,9,-1
 815 246 l 1,10,-1
 819 320 l 1,11,-1
 822 396 l 2,12,13
 823 425 823 425 806 425 c 0,14,15
 796 425 796 425 781 415 c 0,16,17
 703 362 703 362 582 362 c 0,18,19
 363 362 363 362 185 629 c 2,20,-1
 119 728 l 2,21,22
 59 818 59 818 55 841 c 1,23,24
 55 869 55 869 82 875 c 1,25,-1
 156 878 l 2,26,27
 266 882 266 882 314 912 c 0,28,29
 380 951 380 951 380 1051 c 0,30,31
 380 1126 380 1126 350 1169 c 1,32,-1
 0 1169 l 1,33,-1
 0 1325 l 1,34,-1
 1142 1325 l 1,35,-1
 1142 1169 l 1,0,-1
830 1169 m 1,36,-1
 445 1169 l 1,37,38
 445 1124 445 1124 460 1055 c 2,39,-1
 484 942 l 1,40,-1
 498 857 l 1,41,42
 498 776 498 776 372 721 c 1,43,-1
 288 703 l 2,44,45
 258 697 258 697 258 669 c 0,46,47
 257 611 257 611 341 567 c 0,48,49
 413 529 413 529 476 529 c 0,50,51
 603 529 603 529 710 600 c 0,52,53
 829 679 829 679 830 796 c 2,54,-1
 830 1169 l 1,36,-1
EndSplineSet
Validated: 33
EndChar

StartChar: uni0930
Encoding: 116 2352 114
Width: 835
GlyphClass: 2
Flags: W
AnchorPoint: "Anchor-10" 830 1260 basechar 0
AnchorPoint: "Anchor-9" 900 1235 basechar 0
AnchorPoint: "Anchor-8" 830 1248 basechar 0
AnchorPoint: "Anchor-6" 494 0 basechar 0
AnchorPoint: "Anchor-5" 463 -5 basechar 0
AnchorPoint: "Anchor-0" 479 1248 basechar 0
LayerCount: 2
Fore
SplineSet
835 1169 m 1,0,-1
 567 1169 l 1,1,2
 567 1139 567 1139 569 1108 c 0,3,4
 571 1086 571 1086 575 1028 c 2,5,-1
 584 889 l 2,6,7
 586 858 586 858 586 839 c 0,8,9
 586 646 586 646 490 507 c 0,10,11
 451 450 451 450 451 402 c 0,12,13
 451 363 451 363 476 336 c 0,14,15
 551 253 551 253 623 204 c 2,16,-1
 782 95 l 2,17,18
 835 59 835 59 835 -1 c 0,19,20
 835 -50 835 -50 794 -50 c 0,21,22
 768 -50 768 -50 738 -25 c 2,23,-1
 561 122 l 1,24,-1
 388 274 l 2,25,26
 317 336 317 336 226 448 c 0,27,28
 215 461 215 461 180 510 c 0,29,30
 143 556 143 556 81 656 c 0,31,32
 73 673 73 673 68 689 c 2,33,-1
 59 747 l 1,34,35
 59 859 59 859 145 859 c 0,36,37
 173 859 173 859 230 833.5 c 128,-1,38
 287 808 287 808 316 808 c 0,39,40
 340 808 340 808 355 816 c 1,41,42
 398 879 398 879 398 994 c 0,43,44
 398 1061 398 1061 388 1115 c 0,45,46
 386 1144 386 1144 378 1169 c 1,47,-1
 0 1169 l 1,48,-1
 0 1325 l 1,49,-1
 835 1325 l 1,50,-1
 835 1169 l 1,0,-1
EndSplineSet
Validated: 1
EndChar

StartChar: uni0932
Encoding: 118 2354 116
Width: 1377
GlyphClass: 2
Flags: W
AnchorPoint: "Anchor-6" 928 12 basechar 0
AnchorPoint: "Anchor-5" 741 -13 basechar 0
AnchorPoint: "Anchor-0" 979 1248 basechar 0
LayerCount: 2
Fore
SplineSet
1377 1169 m 1,0,-1
 1060 1169 l 1,1,-1
 1060 867 l 1,2,3
 1154 832 1154 832 1206 779 c 0,4,5
 1256 730 1256 730 1298 636 c 128,-1,6
 1340 542 1340 542 1340 458 c 0,7,8
 1340 350 1340 350 1276 254 c 0,9,10
 1216 165 1216 165 1117 110 c 0,11,12
 1087 93 1087 93 1066 93 c 0,13,14
 1047 93 1047 93 1026 108 c 2,15,-1
 980 148 l 1,16,-1
 945 186 l 2,17,18
 935 201 935 201 932 222 c 0,19,20
 932 245 932 245 956 264 c 0,21,22
 1085 363 1085 363 1112 395 c 0,23,24
 1193 488 1193 488 1193 609 c 0,25,26
 1193 668 1193 668 1150.5 701.5 c 128,-1,27
 1108 735 1108 735 1048 735 c 1,28,29
 930 722 930 722 838 586 c 2,30,-1
 740 442 l 1,31,32
 698 442 698 442 664 478 c 2,33,-1
 623 520 l 1,34,35
 590 544 590 544 590 586 c 0,36,37
 590 609 590 609 603 632 c 128,-1,38
 616 655 616 655 618 669 c 0,39,40
 618 699 618 699 562 716 c 0,41,42
 521 729 521 729 480 729 c 0,43,44
 383 729 383 729 313.5 662 c 128,-1,45
 244 595 244 595 244 500 c 0,46,47
 244 364 244 364 383 257 c 1,48,-1
 469 208 l 1,49,-1
 623 132 l 2,50,51
 710 89 710 89 710 40 c 0,52,53
 710 15 710 15 674 15 c 0,54,55
 646 15 646 15 612 28 c 1,56,-1
 521 77 l 1,57,-1
 218 264 l 1,58,59
 42 406 42 406 42 603 c 0,60,61
 42 727 42 727 129 806.5 c 128,-1,62
 216 886 216 886 341 886 c 0,63,64
 440 886 440 886 525 844 c 0,65,66
 587 814 587 814 671 744 c 1,67,68
 715 800 715 800 771 827 c 2,69,-1
 889 886 l 1,70,-1
 890 1169 l 1,71,-1
 0 1169 l 1,72,-1
 0 1325 l 1,73,-1
 1377 1325 l 1,74,-1
 1377 1169 l 1,0,-1
EndSplineSet
Validated: 1
EndChar

StartChar: uni0933
Encoding: 119 2355 117
Width: 1472
GlyphClass: 2
Flags: W
AnchorPoint: "Anchor-6" 820 47 basechar 0
AnchorPoint: "Anchor-5" 749 -2 basechar 0
AnchorPoint: "Anchor-0" 1012 1248 basechar 0 {11-11 -1} {}
LayerCount: 2
Fore
SplineSet
1472 1168 m 1,0,-1
 1097 1168 l 1,1,-1
 1097 869 l 1,2,3
 1183 869 1183 869 1295 739 c 0,4,5
 1420 591 1420 591 1420 418 c 0,6,7
 1420 271 1420 271 1340 177 c 0,8,9
 1255 79 1255 79 1109 79 c 0,10,11
 1004 79 1004 79 911 162 c 0,12,13
 852 213 852 213 777 316 c 1,14,15
 657 113 657 113 493 113 c 0,16,17
 345 113 345 113 201 247 c 0,18,19
 46 392 46 392 46 570 c 0,20,21
 46 884 46 884 361 884 c 0,22,23
 451 884 451 884 555 810 c 0,24,25
 642 748 642 748 705 660 c 1,26,27
 755 781 755 781 849 840 c 0,28,29
 879 858 879 858 930 874 c 1,30,-1
 930 1168 l 1,31,-1
 0 1168 l 1,32,-1
 0 1325 l 1,33,-1
 1472 1325 l 1,34,-1
 1472 1168 l 1,0,-1
1265 536 m 1,35,36
 1265 720 1265 720 1111 720 c 0,37,38
 1013 720 1013 720 925 613 c 0,39,40
 853 524 853 524 817 404 c 1,41,42
 850 324 850 324 897 293 c 0,43,44
 933 269 933 269 1010 269 c 0,45,46
 1111 269 1111 269 1186 353 c 0,47,48
 1255 431 1255 431 1265 536 c 1,35,36
670 575 m 1,49,50
 607 709 607 709 469 709 c 0,51,52
 372 709 372 709 299 616 c 0,53,54
 231 530 231 530 231 430 c 0,55,56
 231 252 231 252 369 252 c 0,57,58
 405 252 405 252 460 269 c 1,59,60
 538 340 538 340 574 396 c 0,61,62
 601 437 601 437 670 575 c 1,49,50
EndSplineSet
Validated: 1
EndChar

StartChar: uni0935
Encoding: 121 2357 119
Width: 1044
GlyphClass: 2
Flags: W
AnchorPoint: "Anchor-2" 717 555 mark 0
AnchorPoint: "Anchor-6" 778 125 basechar 0
AnchorPoint: "Anchor-5" 481 0 basechar 0
AnchorPoint: "Anchor-0" 795 1248 basechar 0
LayerCount: 2
Fore
SplineSet
1044 1169 m 1,0,-1
 892 1169 l 1,1,-1
 893 48 l 2,2,3
 893 -1 893 -1 873 -1 c 0,4,5
 854 -1 854 -1 783 71 c 128,-1,6
 712 143 712 143 715 289 c 2,7,-1
 717 381 l 1,8,-1
 699 387 l 1,9,10
 682 383 682 383 676 379 c 2,11,-1
 653 365 l 1,12,13
 554 318 554 318 461 318 c 0,14,15
 305 318 305 318 197 448 c 0,16,17
 78 592 78 592 78 718 c 0,18,19
 78 900 78 900 264 944 c 0,20,21
 324 958 324 958 414 958 c 0,22,23
 489 958 489 958 552 919 c 2,24,-1
 711 821 l 1,25,-1
 711 1169 l 1,26,-1
 0 1169 l 1,27,-1
 0 1325 l 1,28,-1
 1044 1325 l 1,29,-1
 1044 1169 l 1,0,-1
713 617 m 1,30,-1
 713 776 l 1,31,32
 615 809 615 809 511 809 c 0,33,34
 243 809 243 809 222 583 c 1,35,36
 222 479 222 479 351 479 c 0,37,38
 375 479 375 479 427 489 c 0,39,40
 521 507 521 507 574 530 c 0,41,42
 634 556 634 556 713 617 c 1,30,-1
EndSplineSet
Validated: 33
EndChar

StartChar: uni0936
Encoding: 122 2358 120
Width: 1407
GlyphClass: 2
Flags: W
AnchorPoint: "Anchor-2" 598 333 mark 0
AnchorPoint: "Anchor-6" 1170 117 basechar 0 {13-13 1} {}
AnchorPoint: "Anchor-5" 650 -13 basechar 0
AnchorPoint: "Anchor-0" 1166 1248 basechar 0 {13-13 1} {}
LayerCount: 2
Fore
SplineSet
1408 1169 m 1,0,-1
 1271 1169 l 1,1,-1
 1271 74 l 2,2,3
 1271 2 1271 2 1259 0 c 1,4,-1
 1103 135 l 1,5,6
 1071 170 1071 170 1071 230 c 2,7,-1
 1071 1169 l 1,8,-1
 537 1169 l 1,9,-1
 537 1021 l 1,10,11
 651 978 651 978 739 880 c 0,12,13
 838 770 838 770 838 657 c 0,14,15
 838 556 838 556 751 452 c 0,16,17
 692 382 692 382 598 326 c 1,18,19
 635 265 635 265 811 156 c 0,20,21
 879 114 879 114 885 91 c 1,22,23
 885 -9 885 -9 820 -9 c 256,24,25
 755 -9 755 -9 706 39 c 0,26,27
 670 74 670 74 646 105 c 2,28,-1
 532 252 l 2,29,30
 515 274 515 274 484 274 c 2,31,-1
 452 270 l 1,32,33
 404 259 404 259 362 259 c 0,34,35
 255 259 255 259 184 353 c 0,36,37
 153 394 153 394 153 450 c 0,38,39
 153 517 153 517 194 555.5 c 128,-1,40
 235 594 235 594 302 594 c 0,41,42
 372 594 372 594 427 546 c 0,43,44
 475 504 475 504 507 498 c 1,45,46
 572 536 572 536 620.5 614 c 128,-1,47
 669 692 669 692 669 766 c 0,48,49
 669 838 669 838 612 875 c 1,50,51
 500 875 500 875 427 856 c 1,52,-1
 182 760 l 1,53,54
 161 760 161 760 128 797 c 2,55,-1
 61 873 l 2,56,57
 39 898 39 898 39 918 c 0,58,59
 39 953 39 953 141 981 c 2,60,-1
 215 1001 l 1,61,-1
 360 1026 l 1,62,-1
 360 1169 l 1,63,-1
 0 1169 l 1,64,-1
 0 1325 l 1,65,-1
 1408 1325 l 1,66,-1
 1408 1169 l 1,0,-1
EndSplineSet
Validated: 1
EndChar

StartChar: uni0937
Encoding: 123 2359 121
Width: 1023
GlyphClass: 2
Flags: W
AnchorPoint: "Anchor-2" 726 596 mark 0
AnchorPoint: "Anchor-6" 842 128 basechar 0
AnchorPoint: "Anchor-5" 507 -26 basechar 0
AnchorPoint: "Anchor-0" 824 1248 basechar 0 {11-11 -1} {}
LayerCount: 2
Fore
SplineSet
1023 1169 m 1,0,-1
 911 1169 l 1,1,-1
 911 26 l 2,2,3
 911 -1 911 -1 897 -3 c 0,4,5
 882 -3 882 -3 846 31 c 0,6,7
 768 105 768 105 751 132 c 0,8,9
 726 171 726 171 726 227 c 2,10,-1
 726 422 l 1,11,12
 696 422 696 422 608 405 c 0,13,14
 577 399 577 399 552 399 c 0,15,16
 405 399 405 399 251 548 c 0,17,18
 168 628 168 628 124 717 c 1,19,20
 114 754 114 754 110 886 c 1,21,-1
 111 1169 l 1,22,-1
 0 1169 l 1,23,-1
 0 1325 l 1,24,-1
 1023 1325 l 1,25,-1
 1023 1169 l 1,0,-1
737 804 m 1,26,-1
 737 1169 l 1,27,-1
 291 1169 l 1,28,-1
 291 1101 l 1,29,-1
 737 804 l 1,26,-1
737 701 m 1,30,-1
 291 994 l 1,31,-1
 291 685 l 2,32,33
 293 624 293 624 313 599 c 0,34,35
 336 569 336 569 394 569 c 0,36,37
 534 569 534 569 680 644 c 2,38,-1
 719 664 l 1,39,40
 733 676 733 676 737 701 c 1,30,-1
EndSplineSet
Validated: 1
EndChar

StartChar: uni0938
Encoding: 124 2360 122
Width: 1274
GlyphClass: 2
Flags: W
AnchorPoint: "Anchor-2" 990 758 mark 0
AnchorPoint: "Anchor-6" 1079 117 basechar 0
AnchorPoint: "Anchor-5" 702 0 basechar 0
AnchorPoint: "Anchor-0" 1089 1248 basechar 0
LayerCount: 2
Fore
SplineSet
1274 1170 m 1,0,-1
 1167 1170 l 1,1,-1
 1168 54 l 2,2,3
 1168 37 1168 37 1164 22 c 1,4,5
 1164 6 1164 6 1151 4 c 0,6,7
 1130 4 1130 4 1088 52 c 1,8,9
 1051 85 1051 85 1039 99 c 0,10,11
 986 157 986 157 987 257 c 2,12,-1
 990 582 l 1,13,14
 912 559 912 559 855 561 c 2,15,-1
 776 564 l 2,16,17
 683 568 683 568 642 586 c 0,18,19
 620 596 620 596 562 651 c 0,20,21
 541 671 541 671 519 680 c 1,22,-1
 469 688 l 1,23,24
 456 645 456 645 435 609 c 2,25,-1
 369 494 l 1,26,-1
 348 454 l 1,27,-1
 342 420 l 1,28,29
 342 370 342 370 445 272 c 1,30,-1
 562 181 l 2,31,32
 667 99 667 99 676 24 c 0,33,34
 676 -3 676 -3 646 -3 c 0,35,36
 602 -3 602 -3 559 36 c 0,37,38
 443 140 443 140 376 222 c 2,39,-1
 221 411 l 2,40,41
 51 618 51 618 51 756 c 0,42,43
 51 866 51 866 122 866 c 1,44,45
 162 861 162 861 194 841 c 1,46,47
 232 824 232 824 255 816 c 1,48,49
 287 816 287 816 314 864 c 0,50,51
 328 897 328 897 331 920 c 2,52,-1
 331 1170 l 1,53,-1
 0 1170 l 1,54,-1
 0 1325 l 1,55,-1
 1274 1325 l 1,56,-1
 1274 1170 l 1,0,-1
990 1170 m 1,57,-1
 498 1170 l 1,58,-1
 498 756 l 1,59,60
 521 733 521 733 588 731 c 2,61,-1
 729 727 l 2,62,63
 895 722 895 722 990 781 c 1,64,-1
 990 1170 l 1,57,-1
EndSplineSet
Validated: 33
EndChar

StartChar: uni0939
Encoding: 125 2361 123
Width: 1029
GlyphClass: 2
Flags: W
AnchorPoint: "Anchor-2" 601 156 mark 0
AnchorPoint: "Anchor-10" 830 1260 basechar 0
AnchorPoint: "Anchor-9" 900 1235 basechar 0
AnchorPoint: "Anchor-8" 830 1248 basechar 0
AnchorPoint: "Anchor-6" 533 -130 basechar 0
AnchorPoint: "Anchor-5" 507 -117 basechar 0
AnchorPoint: "Anchor-0" 682 1248 basechar 0
LayerCount: 2
Fore
SplineSet
1029 1169 m 1,0,-1
 750 1169 l 1,1,2
 750 1120 750 1120 761 1029 c 2,3,-1
 773 930 l 2,4,5
 773 904 773 904 767 886 c 0,6,7
 765 881 765 881 757 874 c 1,8,-1
 688 865 l 1,9,-1
 631 863 l 1,10,-1
 441 875 l 2,11,12
 376 879 376 879 321 855 c 0,13,14
 252 824 252 824 252 764 c 0,15,16
 252 733 252 733 271 702 c 1,17,-1
 308 702 l 2,18,19
 316 704 316 704 336 709 c 0,20,21
 440 729 440 729 488 729 c 0,22,23
 614 729 614 729 710 662 c 0,24,25
 808 592 808 592 844 473 c 0,26,27
 856 433 856 433 856 391 c 0,28,29
 856 298 856 298 790 240 c 0,30,31
 755 209 755 209 723 209 c 0,32,33
 699 209 699 209 674 220 c 2,34,-1
 624 242 l 1,35,-1
 488 278 l 1,36,37
 451 294 451 294 451 318 c 1,38,-1
 457 335 l 1,39,40
 577 347 577 347 618 368 c 0,41,42
 703 412 703 412 703 535 c 0,43,44
 703 626 703 626 599 626 c 0,45,46
 551 626 551 626 478 601 c 0,47,48
 253 524 253 524 253 367 c 0,49,50
 253 173 253 173 534 85 c 2,51,-1
 719 27 l 1,52,-1
 900 -9 l 2,53,54
 1002 -29 1002 -29 1035 -48 c 0,55,56
 1074 -70 1074 -70 1075 -92 c 0,57,58
 1076 -123 1076 -123 1001 -123 c 1,59,60
 820 -93 820 -93 627 -32 c 0,61,62
 272 80 272 80 145 227 c 0,63,64
 70 314 70 314 70 453 c 0,65,66
 70 518 70 518 113 568 c 0,67,68
 133 591 133 591 218 659 c 1,69,70
 216 671 216 671 142 743 c 0,71,72
 73 810 73 810 73 881 c 0,73,74
 73 1016 73 1016 328 1009 c 2,75,-1
 465 1005 l 2,76,77
 600 1001 600 1001 609 1074 c 1,78,-1
 609 1169 l 1,79,-1
 0 1169 l 1,80,-1
 0 1325 l 1,81,-1
 1029 1325 l 1,82,-1
 1029 1169 l 1,0,-1
EndSplineSet
Validated: 33
EndChar

StartChar: uni093C
Encoding: 126 2364 124
Width: 0
GlyphClass: 2
Flags: W
LayerCount: 2
Fore
SplineSet
-924 -48 m 1,0,-1
 -972 -108 l 1,1,-1
 -1012 -152 l 1,2,3
 -1028 -161 -1028 -161 -1037 -161 c 0,4,5
 -1050 -161 -1050 -161 -1101 -100 c 2,6,-1
 -1148 -45 l 1,7,-1
 -1148 -18 l 1,8,-1
 -1092 59 l 2,9,10
 -1071 88 -1071 88 -1050 100 c 1,11,12
 -1028 100 -1028 100 -924 -18 c 1,13,-1
 -922 -33 l 1,14,-1
 -924 -48 l 1,0,-1
EndSplineSet
Validated: 1
EndChar

StartChar: uni093D
Encoding: 127 2365 125
Width: 1000
GlyphClass: 2
Flags: W
LayerCount: 2
Fore
SplineSet
892 371 m 0,0,1
 892 255 892 255 798 178 c 0,2,3
 693 91 693 91 568 100 c 2,4,-1
 510 104 l 2,5,6
 401 111 401 111 283 192 c 1,7,-1
 119 328 l 2,8,9
 90 352 90 352 90 395 c 256,10,11
 90 438 90 438 121 438 c 0,12,13
 133 438 133 438 146 430 c 2,14,-1
 326 340 l 2,15,16
 404 301 404 301 474 301 c 0,17,18
 557 301 557 301 616 347 c 0,19,20
 680 396 680 396 680 477 c 0,21,22
 680 519 680 519 671 541 c 1,23,24
 667 573 667 573 640 617 c 1,25,-1
 484 736 l 1,26,-1
 326 853 l 2,27,28
 159 977 159 977 159 1131 c 0,29,30
 159 1229 159 1229 238 1281 c 0,31,32
 305 1326 305 1326 408 1325 c 2,33,-1
 880 1325 l 1,34,-1
 880 1169 l 1,35,-1
 494 1169 l 1,36,37
 382 1135 382 1135 382 1024 c 0,38,39
 382 936 382 936 462 875 c 2,40,-1
 752 653 l 1,41,42
 892 524 892 524 892 371 c 0,0,1
EndSplineSet
Validated: 33
EndChar

StartChar: uni093E
Encoding: 128 2366 126
Width: 498
GlyphClass: 2
Flags: W
AnchorPoint: "Anchor-0" 253 1248 basechar 0
LayerCount: 2
Fore
SplineSet
498 1169 m 1,0,-1
 342 1169 l 1,1,-1
 341 44 l 2,2,3
 341 1 341 1 330 -3 c 1,4,5
 315 -3 315 -3 241 66 c 2,6,-1
 186 117 l 2,7,8
 164 137 164 137 160 170 c 1,9,-1
 160 1169 l 1,10,-1
 0 1169 l 1,11,-1
 0 1325 l 1,12,-1
 498 1325 l 1,13,-1
 498 1169 l 1,0,-1
EndSplineSet
Validated: 1
Ligature2: "vowels" uni093D uni200D uni093E
EndChar

StartChar: uni093F
Encoding: 129 2367 127
Width: 468
GlyphClass: 4
Flags: W
LayerCount: 2
Fore
SplineSet
1084 1506 m 2,0,1
 1149 1438 1149 1438 1149 1396 c 0,2,3
 1149 1368 1149 1368 1124 1367 c 0,4,5
 1105 1366 1105 1366 990 1488 c 0,6,7
 863 1622 863 1622 837 1641 c 0,8,9
 696 1740 696 1740 551 1740 c 0,10,11
 436 1740 436 1740 366.5 1664.5 c 128,-1,12
 297 1589 297 1589 297 1472 c 0,13,14
 297 1371 297 1371 262 1371 c 0,15,16
 222 1371 222 1371 151 1493 c 0,17,18
 120 1546 120 1546 120 1607 c 0,19,20
 120 1727 120 1727 215.5 1817 c 128,-1,21
 311 1907 311 1907 432 1907 c 0,22,23
 444 1907 444 1907 457 1906 c 2,24,-1
 507 1902 l 2,25,26
 720 1885 720 1885 868 1731 c 2,27,-1
 1084 1506 l 2,0,1
468 1169 m 1,28,-1
 318 1169 l 1,29,-1
 318 41 l 2,30,31
 318 5 318 5 291 1 c 0,32,33
 273 0 273 0 205 68 c 1,34,35
 151 116 151 116 150 155 c 2,36,-1
 151 1169 l 1,37,-1
 0 1169 l 1,38,-1
 0 1325 l 1,39,-1
 468 1325 l 1,40,-1
 468 1169 l 1,28,-1
EndSplineSet
Validated: 33
Ligature2: "vowels" uni093D uni200D uni093F
EndChar

StartChar: uni0940
Encoding: 130 2368 128
Width: 487
GlyphClass: 2
Flags: W
AnchorPoint: "Anchor-4" 350 1251 basechar 0
LayerCount: 2
Fore
SplineSet
487 1169 m 1,0,-1
 338 1169 l 1,1,-1
 339 20 l 2,2,3
 339 -7 339 -7 328 -7 c 0,4,5
 319 -7 319 -7 299 8 c 2,6,-1
 244 58 l 1,7,-1
 190 112 l 2,8,9
 167 135 167 135 162 166 c 1,10,-1
 162 1169 l 1,11,-1
 0 1169 l 1,12,-1
 0 1325 l 1,13,-1
 188 1325 l 1,14,-1
 191 1365 l 2,15,16
 196 1433 196 1433 157 1520 c 2,17,-1
 116 1611 l 2,18,19
 86 1677 86 1677 19.5 1721.5 c 128,-1,20
 -47 1766 -47 1766 -119 1766 c 0,21,22
 -150 1766 -150 1766 -178 1757 c 0,23,24
 -326 1710 -326 1710 -318 1492 c 2,25,-1
 -316 1439 l 2,26,27
 -314 1394 -314 1394 -342 1394 c 0,28,29
 -395 1393 -395 1393 -456 1497 c 0,30,31
 -513 1594 -513 1594 -513 1653 c 0,32,33
 -513 1742 -513 1742 -455 1828 c 0,34,35
 -368 1956 -368 1956 -205 1956 c 0,36,37
 -20 1956 -20 1956 92 1807 c 0,38,39
 147 1733 147 1733 188 1642 c 0,40,41
 223 1565 223 1565 283 1325 c 1,42,-1
 487 1325 l 1,43,-1
 487 1169 l 1,0,-1
EndSplineSet
Validated: 33
Ligature2: "vowels" uni093D uni200D uni0940
EndChar

StartChar: uni0941
Encoding: 131 2369 129
Width: 0
GlyphClass: 4
Flags: W
AnchorPoint: "Anchor-6" -429 0 mark 0
LayerCount: 2
Fore
SplineSet
-143 -265 m 0,0,1
 -139 -290 -139 -290 -139 -314 c 0,2,3
 -139 -414 -139 -414 -210 -481 c 0,4,5
 -275 -543 -275 -543 -378 -560 c 0,6,7
 -479 -577 -479 -577 -591 -529 c 0,8,9
 -675 -493 -675 -493 -795 -408 c 0,10,11
 -944 -302 -944 -302 -1024 -191 c 0,12,13
 -1034 -177 -1034 -177 -1040 -155 c 0,14,15
 -1045 -124 -1045 -124 -1016 -119 c 0,16,17
 -990 -115 -990 -115 -962 -143 c 1,18,-1
 -883 -240 l 2,19,20
 -857 -271 -857 -271 -825 -300 c 0,21,22
 -681 -427 -681 -427 -533 -427 c 0,23,24
 -413 -427 -413 -427 -333 -348 c 0,25,26
 -267 -283 -267 -283 -267 -204 c 0,27,28
 -267 -187 -267 -187 -270 -170 c 0,29,30
 -293 -100 -293 -100 -354 -100 c 0,31,32
 -417 -100 -417 -100 -487 -192 c 0,33,34
 -518 -233 -518 -233 -543 -237 c 1,35,36
 -675 -157 -675 -157 -679 -133 c 0,37,38
 -683 -111 -683 -111 -651 -78 c 0,39,40
 -572 5 -572 5 -457 5 c 0,41,42
 -366 5 -366 5 -283 -48 c 0,43,44
 -166 -122 -166 -122 -143 -265 c 0,0,1
EndSplineSet
Validated: 33
Ligature2: "vowels" uni093D uni200D uni0941
Substitution2: "Single Substitution lookup 32 subtable" glyph570
PairPos2: "'blwm' Below Base Mark in Devanagari lookup 8 subtable" uni0952 dx=0 dy=0 dh=0 dv=0 dx=0 dy=-280 dh=0 dv=0
EndChar

StartChar: uni0942
Encoding: 132 2370 130
Width: 0
GlyphClass: 4
Flags: W
AnchorPoint: "Anchor-6" -299 78 mark 0
LayerCount: 2
Fore
SplineSet
382 -443 m 0,0,1
 411 -469 411 -469 411 -502 c 0,2,3
 411 -536 411 -536 379 -536 c 0,4,5
 344 -536 344 -536 295 -490 c 2,6,-1
 150 -355 l 1,7,-1
 13 -220 l 1,8,-1
 -105 -100 l 1,9,10
 -170 -47 -170 -47 -252 -47 c 0,11,12
 -306 -47 -306 -47 -358 -85 c 0,13,14
 -413 -126 -413 -126 -413 -178 c 1,15,16
 -403 -288 -403 -288 -324 -288 c 0,17,18
 -271 -288 -271 -288 -229 -248 c 0,19,20
 -193 -214 -193 -214 -168 -214 c 0,21,22
 -151 -214 -151 -214 -143 -218 c 2,23,-1
 -88 -260 l 2,24,25
 -42 -295 -42 -295 -42 -325 c 0,26,27
 -42 -347 -42 -347 -84 -368 c 0,28,29
 -158 -405 -158 -405 -223 -405 c 0,30,31
 -268 -405 -268 -405 -324 -382 c 0,32,33
 -435 -336 -435 -336 -511 -226 c 1,34,35
 -541 -168 -541 -168 -541 -104 c 0,36,37
 -541 -26 -541 -26 -481.5 28.5 c 128,-1,38
 -422 83 -422 83 -343 83 c 0,39,40
 -215 83 -215 83 -69 -47 c 2,41,-1
 85 -184 l 2,42,43
 171 -257 171 -257 382 -443 c 0,0,1
EndSplineSet
Validated: 1
Ligature2: "vowels" uni093D uni200D uni0942
Substitution2: "Single Substitution lookup 32 subtable" glyph572
PairPos2: "'blwm' Below Base Mark in Devanagari lookup 8 subtable" uni0952 dx=0 dy=0 dh=0 dv=0 dx=0 dy=-280 dh=0 dv=0
EndChar

StartChar: uni0943
Encoding: 133 2371 131
Width: 0
GlyphClass: 4
Flags: W
AnchorPoint: "Anchor-6" -299 117 mark 0
LayerCount: 2
Fore
SplineSet
-27 -273 m 1,0,1
 -88 -397 -88 -397 -255 -397 c 0,2,3
 -366 -397 -366 -397 -459.5 -337 c 128,-1,4
 -553 -277 -553 -277 -597 -176 c 0,5,6
 -624 -114 -624 -114 -624 -70 c 0,7,8
 -624 132 -624 132 -211 132 c 1,9,-1
 -208 6 l 1,10,11
 -214 -19 -214 -19 -245 -19 c 0,12,13
 -338 -19 -338 -19 -407 -51 c 0,14,15
 -494 -91 -494 -91 -494 -175 c 0,16,17
 -494 -219 -494 -219 -482 -235 c 0,18,19
 -467 -254 -467 -254 -424 -254 c 0,20,21
 -256 -254 -256 -254 -151 -176 c 1,22,-1
 -136 -173 l 1,23,-1
 -110 -176 l 1,24,-1
 -59 -230 l 1,25,-1
 -27 -273 l 1,0,1
EndSplineSet
Validated: 1
Ligature2: "vowels" uni093D uni200D uni0943
Substitution2: "Single Substitution lookup 32 subtable" glyph574
PairPos2: "'blwm' Below Base Mark in Devanagari lookup 8 subtable" uni0952 dx=0 dy=0 dh=0 dv=0 dx=0 dy=-280 dh=0 dv=0
EndChar

StartChar: uni0944
Encoding: 134 2372 132
Width: 1
GlyphClass: 4
Flags: W
AnchorPoint: "Anchor-6" -260 117 mark 0
LayerCount: 2
Fore
SplineSet
71 -473 m 1,0,1
 71 -512 71 -512 -18 -563 c 0,2,3
 -101 -611 -101 -611 -146 -611 c 0,4,5
 -235 -611 -235 -611 -332 -519 c 128,-1,6
 -429 -427 -429 -427 -429 -338 c 0,7,8
 -429 -298 -429 -298 -403 -264 c 1,9,10
 -416 -254 -416 -254 -444 -230 c 0,11,12
 -482 -197 -482 -197 -493 -183 c 0,13,14
 -532 -133 -532 -133 -532 -73 c 0,15,16
 -532 19 -532 19 -453 67 c 0,17,18
 -385 108 -385 108 -306 112 c 0,19,20
 -282 116 -282 116 -188 117 c 1,21,-1
 -188 -3 l 1,22,-1
 -302 -21 l 2,23,24
 -409 -38 -409 -38 -409 -141 c 0,25,26
 -409 -169 -409 -169 -401 -186 c 0,27,28
 -396 -202 -396 -202 -376 -210 c 1,29,-1
 -279 -176 l 2,30,31
 -233 -160 -233 -160 -193 -160 c 0,32,33
 -156 -160 -156 -160 -105 -176 c 1,34,-1
 -79 -218 l 1,35,-1
 -60 -264 l 1,36,37
 -82 -274 -82 -274 -162 -282 c 0,38,39
 -294 -296 -294 -296 -314 -414 c 1,40,41
 -314 -456 -314 -456 -264 -485 c 1,42,43
 -179 -485 -179 -485 -126 -461 c 1,44,-1
 -29 -403 l 2,45,46
 -5 -389 -5 -389 9 -385 c 1,47,48
 31 -385 31 -385 71 -473 c 1,0,1
EndSplineSet
Validated: 1
Ligature2: "vowels" uni093D uni200D uni0944
Substitution2: "Single Substitution lookup 32 subtable" glyph576
PairPos2: "'blwm' Below Base Mark in Devanagari lookup 8 subtable" uni0952 dx=0 dy=0 dh=0 dv=0 dx=0 dy=-506 dh=0 dv=0
EndChar

StartChar: uni0945
Encoding: 135 2373 133
Width: 0
GlyphClass: 4
Flags: W
AnchorPoint: "Anchor-0" -302 1220 mark 0
LayerCount: 2
Fore
SplineSet
46 1707 m 0,0,1
 -11 1561 -11 1561 -80 1486 c 0,2,3
 -182 1375 -182 1375 -330 1375 c 0,4,5
 -446 1375 -446 1375 -558 1474 c 0,6,7
 -651 1556 -651 1556 -711 1678 c 0,8,9
 -736 1729 -736 1729 -736 1755 c 256,10,11
 -736 1781 -736 1781 -719 1781 c 0,12,13
 -696 1781 -696 1781 -664 1732 c 0,14,15
 -590 1617 -590 1617 -531 1569 c 0,16,17
 -447 1501 -447 1501 -336 1501 c 256,18,19
 -225 1501 -225 1501 -124 1587 c 0,20,21
 -42 1657 -42 1657 -17 1728 c 0,22,23
 2 1781 2 1781 38 1781 c 0,24,25
 59 1781 59 1781 59 1753 c 0,26,27
 59 1740 59 1740 46 1707 c 0,0,1
EndSplineSet
Validated: 1
Ligature2: "vowels" uni093D uni200D uni0945
PairPos2: "'abvm' Above Base Mark in Devanagari lookup 3 subtable" glyph86 dx=0 dy=0 dh=0 dv=0 dx=-33 dy=219 dh=0 dv=0
PairPos2: "'abvm' Above Base Mark in Devanagari lookup 3 subtable" glyph85 dx=0 dy=0 dh=0 dv=0 dx=-169 dy=13 dh=0 dv=0
PairPos2: "'abvm' Above Base Mark in Devanagari lookup 3 subtable" uni0902 dx=0 dy=0 dh=0 dv=0 dx=0 dy=210 dh=0 dv=0
PairPos2: "'abvm' Above Base Mark in Devanagari lookup 3 subtable" uni0901 dx=0 dy=0 dh=0 dv=0 dx=0 dy=299 dh=0 dv=0
EndChar

StartChar: uni0946
Encoding: 136 2374 134
Width: 0
GlyphClass: 4
Flags: W
AnchorPoint: "Anchor-3" -230 1251 basemark 0
AnchorPoint: "Anchor-0" -367 1233 mark 0
LayerCount: 2
Fore
SplineSet
-354 1503 m 0,0,1
 -353 1490 -353 1490 -350.5 1473.5 c 128,-1,2
 -348 1457 -348 1457 -347 1439.5 c 128,-1,3
 -346 1422 -346 1422 -349 1404.5 c 128,-1,4
 -352 1387 -352 1387 -361 1371 c 1,5,6
 -405 1347 -405 1347 -464 1487 c 0,7,8
 -504 1581 -504 1581 -688 1575 c 1,9,10
 -867 1565 -867 1565 -878 1573 c 0,11,12
 -883 1576 -883 1576 -892 1584 c 128,-1,13
 -901 1592 -901 1592 -912.5 1601 c 128,-1,14
 -924 1610 -924 1610 -935 1619.5 c 128,-1,15
 -946 1629 -946 1629 -955 1635 c 0,16,17
 -997 1673 -997 1673 -1013.5 1731.5 c 128,-1,18
 -1030 1790 -1030 1790 -1025 1863 c 1,19,20
 -1018 1893 -1018 1893 -1008 1895 c 128,-1,21
 -998 1897 -998 1897 -984.5 1882 c 128,-1,22
 -971 1867 -971 1867 -954.5 1839.5 c 128,-1,23
 -938 1812 -938 1812 -918 1783 c 0,24,25
 -874 1726 -874 1726 -759 1724 c 0,26,27
 -576 1724 -576 1724 -491 1685 c 1,28,29
 -375 1649 -375 1649 -354 1503 c 0,0,1
EndSplineSet
Validated: 33
Ligature2: "vowels" uni093D uni200D uni0946
EndChar

StartChar: uni0947
Encoding: 137 2375 135
Width: 0
GlyphClass: 4
Flags: W
AnchorPoint: "Anchor-3" -200 1251 basemark 0
AnchorPoint: "Anchor-0" -375 1226 mark 0
LayerCount: 2
Fore
SplineSet
-399 1487 m 2,0,1
 -352 1431 -352 1431 -352 1397 c 0,2,3
 -352 1380 -352 1380 -369 1377 c 0,4,5
 -402 1377 -402 1377 -444 1431 c 2,6,-1
 -585 1611 l 2,7,8
 -615 1649 -615 1649 -671 1682 c 0,9,10
 -702 1696 -702 1696 -731 1696 c 1,11,-1
 -774 1690 l 1,12,-1
 -818 1683 l 1,13,-1
 -846 1678 l 1,14,-1
 -875 1676 l 2,15,16
 -922 1673 -922 1673 -996 1775 c 2,17,-1
 -1030 1822 l 2,18,19
 -1057 1859 -1057 1859 -1057 1875 c 0,20,21
 -1058 1905 -1058 1905 -986 1905 c 0,22,23
 -748 1905 -748 1905 -565 1686 c 2,24,-1
 -399 1487 l 2,0,1
EndSplineSet
Validated: 33
Ligature2: "vowels" uni093D uni200D uni0947
EndChar

StartChar: uni0948
Encoding: 138 2376 136
Width: 0
GlyphClass: 4
Flags: W
AnchorPoint: "Anchor-3" -200 1251 basemark 0
AnchorPoint: "Anchor-0" -430 1252 mark 0
LayerCount: 2
Fore
SplineSet
-303 1428 m 1,0,1
 -303 1397 -303 1397 -318 1397 c 0,2,3
 -328 1397 -328 1397 -336 1404 c 2,4,-1
 -355 1428 l 1,5,6
 -389 1484 -389 1484 -447 1634 c 0,7,8
 -485 1731 -485 1731 -542 1783 c 1,9,-1
 -718 1809 l 2,10,11
 -792 1820 -792 1820 -826 1870 c 2,12,-1
 -896 1974 l 2,13,14
 -909 1993 -909 1993 -912 2011 c 0,15,16
 -912 2044 -912 2044 -869 2044 c 0,17,18
 -571 2044 -571 2044 -408 1700 c 0,19,20
 -384 1648 -384 1648 -303 1428 c 1,0,1
-514 1428 m 1,21,-1
 -508 1407 l 1,22,23
 -508 1385 -508 1385 -526 1385 c 0,24,25
 -552 1385 -552 1385 -587 1428 c 2,26,-1
 -695 1560 l 2,27,28
 -746 1622 -746 1622 -810 1643 c 1,29,-1
 -832 1648 l 1,30,-1
 -860 1651 l 2,31,32
 -887 1651 -887 1651 -932 1637 c 1,33,-1
 -994 1625 l 1,34,35
 -1072 1625 -1072 1625 -1172 1744 c 0,36,37
 -1211 1790 -1211 1790 -1214 1811 c 0,38,39
 -1214 1831 -1214 1831 -1172 1832 c 2,40,-1
 -1131 1833 l 2,41,42
 -884 1839 -884 1839 -669 1608 c 2,43,-1
 -573 1505 l 2,44,45
 -538 1468 -538 1468 -514 1428 c 1,21,-1
EndSplineSet
Validated: 33
Ligature2: "vowels" uni093D uni200D uni0948
EndChar

StartChar: uni094A
Encoding: 140 2378 138
Width: 497
GlyphClass: 2
Flags: W
AnchorPoint: "Anchor-4" 350 1251 basechar 0
LayerCount: 2
Fore
SplineSet
497 1169 m 1,0,-1
 341 1169 l 1,1,-1
 341 44 l 2,2,3
 340 1 340 1 329 -3 c 1,4,5
 314 -3 314 -3 240 66 c 2,6,-1
 185 117 l 2,7,8
 163 137 163 137 159 170 c 1,9,-1
 159 1169 l 1,10,-1
 0 1169 l 1,11,-1
 0 1325 l 1,12,-1
 497 1325 l 1,13,-1
 497 1169 l 1,0,-1
268 1502 m 0,14,15
 269 1489 269 1489 271.5 1472.5 c 128,-1,16
 274 1456 274 1456 275 1438.5 c 128,-1,17
 276 1421 276 1421 273 1403.5 c 128,-1,18
 270 1386 270 1386 261 1370 c 1,19,20
 217 1346 217 1346 158 1486 c 0,21,22
 118 1580 118 1580 -66 1574 c 1,23,24
 -245 1564 -245 1564 -256 1572 c 0,25,26
 -261 1575 -261 1575 -270 1583 c 128,-1,27
 -279 1591 -279 1591 -290.5 1600 c 128,-1,28
 -302 1609 -302 1609 -313 1618.5 c 128,-1,29
 -324 1628 -324 1628 -333 1634 c 0,30,31
 -375 1672 -375 1672 -391.5 1730.5 c 128,-1,32
 -408 1789 -408 1789 -403 1862 c 1,33,34
 -396 1892 -396 1892 -386 1894 c 128,-1,35
 -376 1896 -376 1896 -362.5 1881 c 128,-1,36
 -349 1866 -349 1866 -332.5 1838.5 c 128,-1,37
 -316 1811 -316 1811 -296 1782 c 0,38,39
 -252 1725 -252 1725 -137 1723 c 0,40,41
 46 1723 46 1723 131 1684 c 1,42,43
 247 1648 247 1648 268 1502 c 0,14,15
EndSplineSet
Validated: 33
Ligature2: "vowels" uni093D uni200D uni094A
EndChar

StartChar: uni094B
Encoding: 141 2379 139
Width: 497
GlyphClass: 2
Flags: W
AnchorPoint: "Anchor-4" 350 1251 basechar 0
LayerCount: 2
Fore
SplineSet
497 1169 m 1,0,-1
 341 1169 l 1,1,-1
 341 44 l 2,2,3
 340 1 340 1 329 -3 c 1,4,5
 314 -3 314 -3 240 66 c 2,6,-1
 185 117 l 2,7,8
 163 137 163 137 159 170 c 1,9,-1
 159 1169 l 1,10,-1
 0 1169 l 1,11,-1
 0 1325 l 1,12,-1
 497 1325 l 1,13,-1
 497 1169 l 1,0,-1
231 1480 m 2,14,15
 278 1424 278 1424 278 1390 c 0,16,17
 278 1373 278 1373 261 1370 c 0,18,19
 228 1370 228 1370 186 1424 c 2,20,-1
 45 1604 l 2,21,22
 15 1642 15 1642 -41 1675 c 0,23,24
 -72 1689 -72 1689 -101 1689 c 1,25,-1
 -144 1683 l 1,26,-1
 -188 1676 l 1,27,-1
 -216 1671 l 1,28,-1
 -245 1669 l 2,29,30
 -292 1666 -292 1666 -366 1768 c 2,31,-1
 -400 1815 l 2,32,33
 -427 1852 -427 1852 -427 1868 c 0,34,35
 -428 1898 -428 1898 -356 1898 c 0,36,37
 -118 1898 -118 1898 65 1679 c 2,38,-1
 231 1480 l 2,14,15
EndSplineSet
Validated: 33
Ligature2: "vowels" uni093D uni200D uni094B
EndChar

StartChar: uni094C
Encoding: 142 2380 140
Width: 498
GlyphClass: 2
Flags: W
AnchorPoint: "Anchor-4" 430 1251 basechar 0
LayerCount: 2
Fore
SplineSet
498 1169 m 1,0,-1
 337 1169 l 1,1,-1
 337 50 l 2,2,3
 337 7 337 7 326 3 c 1,4,5
 310 3 310 3 243 71 c 2,6,-1
 188 123 l 2,7,8
 165 145 165 145 161 175 c 1,9,-1
 161 1169 l 1,10,-1
 0 1169 l 1,11,-1
 0 1325 l 1,12,-1
 498 1325 l 1,13,-1
 498 1169 l 1,0,-1
356 1404 m 1,14,15
 356 1373 356 1373 341 1373 c 0,16,17
 331 1373 331 1373 323 1380 c 2,18,-1
 304 1404 l 1,19,20
 273 1457 273 1457 212 1611 c 0,21,22
 174 1707 174 1707 116 1761 c 1,23,-1
 -61 1787 l 2,24,25
 -136 1798 -136 1798 -169 1848 c 2,26,-1
 -239 1953 l 2,27,28
 -254 1976 -254 1976 -256 1990 c 0,29,30
 -256 2023 -256 2023 -212 2023 c 0,31,32
 87 2023 87 2023 251 1677 c 0,33,34
 274 1628 274 1628 356 1404 c 1,14,15
144 1404 m 1,35,-1
 150 1383 l 1,36,37
 150 1361 150 1361 132 1361 c 0,38,39
 106 1361 106 1361 71 1404 c 2,40,-1
 -38 1537 l 2,41,42
 -89 1599 -89 1599 -153 1620 c 1,43,-1
 -175 1625 l 1,44,-1
 -203 1628 l 2,45,46
 -230 1628 -230 1628 -276 1614 c 1,47,-1
 -338 1602 l 1,48,49
 -417 1602 -417 1602 -517 1722 c 0,50,51
 -556 1769 -556 1769 -559 1789 c 0,52,53
 -559 1809 -559 1809 -517 1810 c 2,54,-1
 -476 1811 l 2,55,56
 -225 1817 -225 1817 -11 1585 c 2,57,-1
 85 1481 l 2,58,59
 122 1441 122 1441 144 1404 c 1,35,-1
EndSplineSet
Validated: 33
Ligature2: "vowels" uni093D uni200D uni094C
EndChar

StartChar: uni094D
Encoding: 143 2381 141
Width: 0
GlyphClass: 4
Flags: W
AnchorPoint: "Anchor-6" -845 -130 mark 0
LayerCount: 2
Fore
SplineSet
-329 -446 m 1,0,1
 -322 -458 -322 -458 -319 -474 c 0,2,3
 -319 -505 -319 -505 -365 -505 c 0,4,5
 -394 -505 -394 -505 -426 -491 c 1,6,-1
 -572 -358 l 2,7,8
 -686 -254 -686 -254 -759 -254 c 0,9,10
 -797 -254 -797 -254 -846 -278 c 2,11,-1
 -912 -310 l 1,12,13
 -939 -310 -939 -310 -989 -241 c 0,14,15
 -1037 -175 -1037 -175 -1037 -145 c 0,16,17
 -1037 -130 -1037 -130 -1024 -128 c 0,18,19
 -966 -120 -966 -120 -923 -120 c 0,20,21
 -814 -120 -814 -120 -729 -161 c 0,22,23
 -711 -170 -711 -170 -686 -187 c 2,24,-1
 -492 -322 l 2,25,26
 -421 -372 -421 -372 -329 -446 c 1,0,1
EndSplineSet
Validated: 1
Ligature2: "vowels" uni093D uni200D uni094D
EndChar

StartChar: uni094E
Encoding: 144 2382 142
Width: 588
GlyphClass: 2
Flags: W
LayerCount: 2
Fore
SplineSet
588 1169 m 1,0,-1
 438 1169 l 1,1,-1
 438 41 l 2,2,3
 438 2 438 2 411 1 c 0,4,5
 393 0 393 0 325 68 c 1,6,7
 270 117 270 117 270 155 c 2,8,-1
 271 1169 l 2,9,10
 275 1270 275 1270 354 1325 c 1,11,-1
 588 1325 l 1,12,-1
 588 1169 l 1,0,-1
EndSplineSet
Validated: 33
Ligature2: "vowels" uni093D uni200D uni094E
EndChar

StartChar: uni0950
Encoding: 145 2384 143
Width: 1807
GlyphClass: 2
Flags: W
LayerCount: 2
Fore
SplineSet
1032 1425 m 1,0,-1
 912 1321 l 1,1,-1
 776 1414 l 1,2,-1
 904 1518 l 1,3,-1
 1032 1425 l 1,0,-1
1254 1277 m 1,4,5
 1123 1129 1123 1129 994 1129 c 0,6,7
 910 1129 910 1129 817 1187 c 0,8,9
 751 1228 751 1228 622 1342 c 1,10,-1
 617 1358 l 1,11,-1
 637 1366 l 1,12,13
 748 1239 748 1239 877 1239 c 0,14,15
 1028 1239 1028 1239 1142 1437 c 1,16,17
 1177 1371 1177 1371 1199 1344 c 2,18,-1
 1254 1277 l 1,4,5
1687 699 m 0,19,20
 1687 524 1687 524 1632 409 c 0,21,22
 1561 261 1561 261 1414 261 c 1,23,24
 1290 275 1290 275 1250 394 c 0,25,26
 1232 447 1232 447 1211 609 c 1,27,-1
 1142 560 l 1,28,29
 1113 534 1113 534 1068 534 c 0,30,31
 965 534 965 534 823 708 c 1,32,33
 795 653 795 653 740 615 c 1,34,35
 1013 497 1013 497 1013 278 c 0,36,37
 1013 155 1013 155 921 77 c 0,38,39
 835 3 835 3 709 3 c 0,40,41
 551 3 551 3 430 96 c 0,42,43
 335 169 335 169 240 326 c 0,44,45
 185 418 185 418 91 620 c 1,46,-1
 80 658 l 1,47,-1
 89 650 l 2,48,49
 105 639 105 639 112 620 c 2,50,-1
 240 383 l 2,51,52
 367 148 367 148 572 148 c 0,53,54
 686 148 686 148 754 203 c 0,55,56
 828 263 828 263 828 375 c 0,57,58
 828 513 828 513 729 592 c 1,59,-1
 644 550 l 2,60,61
 567 512 567 512 498 501 c 1,62,-1
 448 595 l 1,63,-1
 405 686 l 1,64,65
 571 704 571 704 644 754 c 0,66,67
 741 821 741 821 776 984 c 1,68,-1
 779 1014 l 1,69,70
 779 1107 779 1107 667 1107 c 1,71,72
 559 1093 559 1093 485 1046 c 0,73,74
 423 1007 423 1007 343 915 c 1,75,76
 313 929 313 929 275 977 c 2,77,-1
 205 1066 l 1,78,79
 356 1222 356 1222 547 1222 c 0,80,81
 697 1222 697 1222 780 1111 c 0,82,83
 855 1012 855 1012 855 857 c 1,84,-1
 849 801 l 1,85,-1
 841 742 l 2,86,87
 841 717 841 717 864 699 c 0,88,89
 899 671 899 671 934 671 c 0,90,91
 1030 671 1030 671 1090 822 c 0,92,93
 1187 1065 1187 1065 1205 1098 c 0,94,95
 1280 1233 1280 1233 1392 1246 c 1,96,97
 1490 1246 1490 1246 1581 1107 c 0,98,99
 1687 945 1687 945 1687 699 c 0,19,20
1601 847 m 2,100,101
 1605 1117 1605 1117 1485 1117 c 1,102,103
 1398 1099 1398 1099 1304 851 c 0,104,105
 1263 743 1263 743 1263 655 c 0,106,107
 1263 529 1263 529 1360 488 c 1,108,109
 1487 488 1487 488 1547 578 c 0,110,111
 1586 636 1586 636 1600 770 c 1,112,-1
 1601 847 l 2,100,101
EndSplineSet
Validated: 33
Substitution2: "'aalt' Access All Alternates lookup 1 subtable" uni0901
EndChar

StartChar: uni0951
Encoding: 146 2385 144
Width: 0
GlyphClass: 4
Flags: W
AnchorPoint: "Anchor-4" -207 1242 mark 0
AnchorPoint: "Anchor-3" -207 1242 mark 0
AnchorPoint: "Anchor-2" -208 1222 mark 0
AnchorPoint: "Anchor-0" -187 1250 mark 0
LayerCount: 2
Fore
SplineSet
-160 1370 m 1,0,-1
 -256 1370 l 1,1,-1
 -256 2058 l 1,2,-1
 -160 2058 l 1,3,-1
 -160 1370 l 1,0,-1
EndSplineSet
Validated: 1
Substitution2: "Single Substitution lookup 31 subtable" U0588
Substitution2: "Single Substitution lookup 30 subtable" U0264
Substitution2: "Single Substitution lookup 28 subtable" U0264
EndChar

StartChar: uni0952
Encoding: 147 2386 145
Width: 0
GlyphClass: 4
Flags: W
AnchorPoint: "Anchor-7" -481 -26 mark 0
AnchorPoint: "Anchor-5" -481 -26 mark 0
LayerCount: 2
Fore
SplineSet
10 -448 m 1,0,-1
 -950 -448 l 1,1,-1
 -950 -360 l 1,2,-1
 10 -360 l 1,3,-1
 10 -448 l 1,0,-1
EndSplineSet
Validated: 1
EndChar

StartChar: uni0953
Encoding: 148 2387 146
Width: 0
GlyphClass: 4
Flags: W
AnchorPoint: "Anchor-1" -585 1261 mark 0
AnchorPoint: "Anchor-0" -585 1263 mark 0
LayerCount: 2
Fore
SplineSet
-887 1921 m 1,0,-1
 -501 1474 l 1,1,-1
 -582 1392 l 1,2,-1
 -1032 1777 l 1,3,-1
 -887 1921 l 1,0,-1
EndSplineSet
Validated: 1
EndChar

StartChar: uni0954
Encoding: 149 2388 147
Width: 0
GlyphClass: 4
Flags: W
AnchorPoint: "Anchor-1" -936 1469 mark 0
AnchorPoint: "Anchor-0" -945 1462 mark 0
LayerCount: 2
Fore
SplineSet
-435 1862 m 1,0,-1
 -969 1609 l 1,1,-1
 -1026 1709 l 1,2,-1
 -535 2040 l 1,3,-1
 -435 1862 l 1,0,-1
EndSplineSet
Validated: 1
EndChar

StartChar: uni0960
Encoding: 158 2400 156
Width: 1565
GlyphClass: 2
Flags: W
AnchorPoint: "Anchor-7" 857 -18 basechar 0
AnchorPoint: "Anchor-2" 871 1235 basechar 0
AnchorPoint: "Anchor-1" 861 1245 basechar 0 {12-17 -1,0,0,0,0,1} {}
LayerCount: 2
Fore
SplineSet
1605 104 m 1,0,-1
 1594 88 l 1,1,-1
 1565 64 l 2,2,3
 1491 3 1491 3 1422 3 c 0,4,5
 1351 3 1351 3 1281 63 c 0,6,7
 1208 126 1208 126 1208 196 c 1,8,-1
 1214 233 l 1,9,-1
 1225 269 l 1,10,-1
 1145 338 l 2,11,12
 1103 374 1103 374 1103 423 c 0,13,14
 1103 522 1103 522 1246 553 c 2,15,-1
 1297 564 l 2,16,17
 1321 569 1321 569 1321 611 c 0,18,19
 1321 647 1321 647 1288 647 c 2,20,-1
 1250 643 l 1,21,-1
 1196 640 l 2,22,23
 1140 637 1140 637 1112 648 c 1,24,25
 1085 665 1085 665 1000 720 c 2,26,-1
 975 736 l 1,27,-1
 966 741 l 1,28,29
 961 737 961 737 957 714 c 1,30,31
 957 572 957 572 960 457 c 2,32,-1
 971 35 l 2,33,34
 972 -1 972 -1 955 -1 c 0,35,36
 935 -1 935 -1 861 62 c 0,37,38
 811 104 811 104 794 131 c 0,39,40
 770 169 770 169 772 211 c 2,41,-1
 787 502 l 1,42,-1
 785 546 l 2,43,44
 784 567 784 567 772 569 c 0,45,46
 763 569 763 569 747 553 c 2,47,-1
 727 533 l 2,48,49
 698 504 698 504 671 481 c 0,50,51
 661 473 661 473 622 441 c 0,52,53
 496 340 496 340 455 301 c 2,54,-1
 426 274 l 2,55,56
 414 263 414 263 395 263 c 0,57,58
 356 263 356 263 254 298 c 2,59,-1
 193 319 l 1,60,61
 160 336 160 336 160 354 c 0,62,63
 160 383 160 383 260 421 c 0,64,65
 315 442 315 442 453 533 c 0,66,67
 598 629 598 629 747 741 c 1,68,69
 747 786 747 786 657 821 c 0,70,71
 583 850 583 850 529 850 c 0,72,73
 411 850 411 850 276 756 c 0,74,75
 252 739 252 739 231 739 c 0,76,77
 195 739 195 739 165 787 c 2,78,-1
 118 861 l 1,79,80
 63 922 63 922 55 969 c 1,81,82
 55 997 55 997 82 997 c 0,83,84
 98 997 98 997 113 987 c 1,85,-1
 184 986 l 1,86,-1
 290 989 l 1,87,-1
 370 995 l 1,88,-1
 423 997 l 2,89,90
 529 1001 529 1001 615 948 c 0,91,92
 636 938 636 938 691 870 c 0,93,94
 731 821 731 821 768 821 c 1,95,-1
 769 1169 l 1,96,-1
 0 1169 l 1,97,-1
 0 1325 l 1,98,-1
 1565 1325 l 1,99,-1
 1565 1169 l 1,100,-1
 955 1169 l 1,101,-1
 955 930 l 2,102,103
 955 844 955 844 989.5 807 c 128,-1,104
 1024 770 1024 770 1109 770 c 0,105,106
 1179 770 1179 770 1179 861 c 0,107,108
 1179 996 1179 996 1303 1015 c 1,109,110
 1382 1015 1382 1015 1434.5 958 c 128,-1,111
 1487 901 1487 901 1487 821 c 0,112,113
 1487 720 1487 720 1397 682 c 0,114,115
 1362 671 1362 671 1362 640 c 0,116,117
 1362 627 1362 627 1371 605 c 2,118,-1
 1384 573 l 1,119,-1
 1402 537 l 1,120,-1
 1411 510 l 2,121,122
 1411 499 1411 499 1390 490 c 1,123,124
 1308 471 1308 471 1270 448 c 0,125,126
 1212 413 1212 413 1212 365 c 1,127,128
 1217 336 1217 336 1246 309 c 1,129,-1
 1328 345 l 1,130,-1
 1400 365 l 1,131,-1
 1438 370 l 2,132,133
 1458 370 1458 370 1485 332 c 1,134,-1
 1498 300 l 1,135,136
 1498 284 1498 284 1467 278 c 2,137,-1
 1402 265 l 2,138,139
 1362 257 1362 257 1332.5 223 c 128,-1,140
 1303 189 1303 189 1303 149 c 0,141,142
 1303 93 1303 93 1344 93 c 0,143,144
 1392 93 1392 93 1493 151 c 0,145,146
 1531 173 1531 173 1551 173 c 0,147,148
 1590 173 1590 173 1605 104 c 1,0,-1
EndSplineSet
Validated: 33
Substitution2: "'aalt' Access All Alternates lookup 1 subtable" uni0944
EndChar

StartChar: uni0961
Encoding: 159 2401 157
Width: 1299
GlyphClass: 2
Flags: W
AnchorPoint: "Anchor-7" 740 -213 basechar 0
AnchorPoint: "Anchor-2" 845 1235 basechar 0
AnchorPoint: "Anchor-1" 844 1232 basechar 0 {11-17 -1,0,0,0,0,0,1} {}
LayerCount: 2
Fore
SplineSet
1481 -140 m 0,0,1
 1385 -270 1385 -270 1242 -270 c 0,2,3
 1138 -270 1138 -270 1029 -183 c 0,4,5
 913 -91 913 -91 913 10 c 0,6,7
 913 25 913 25 923 54 c 128,-1,8
 933 83 933 83 933 97 c 1,9,10
 753 148 753 148 753 288 c 0,11,12
 753 376 753 376 843 446 c 0,13,14
 1041 601 1041 601 1041 693 c 0,15,16
 1041 747 1041 747 1005.5 778 c 128,-1,17
 970 809 970 809 915 809 c 0,18,19
 832 809 832 809 764 742 c 0,20,21
 738 716 738 716 671 608 c 2,22,-1
 658 587 l 2,23,24
 649 576 649 576 638 576 c 0,25,26
 615 576 615 576 561 628 c 0,27,28
 518 669 518 669 518 687 c 0,29,30
 518 696 518 696 537 732 c 0,31,32
 548 753 548 753 548 767 c 0,33,34
 548 809 548 809 434 809 c 0,35,36
 345 809 345 809 290 753 c 128,-1,37
 235 697 235 697 235 608 c 0,38,39
 235 514 235 514 317 448 c 1,40,-1
 532 322 l 1,41,42
 548 293 548 293 550 274 c 0,43,44
 550 254 550 254 526 254 c 0,45,46
 500 253 500 253 453 277 c 0,47,48
 72 468 72 468 72 715 c 0,49,50
 72 814 72 814 147 879 c 0,51,52
 219 941 219 941 320 941 c 0,53,54
 473 941 473 941 595 832 c 1,55,56
 660 903 660 903 736 929 c 2,57,-1
 771 941 l 1,58,-1
 771 1169 l 1,59,-1
 0 1169 l 1,60,-1
 0 1325 l 1,61,-1
 1299 1325 l 1,62,-1
 1299 1169 l 1,63,-1
 913 1169 l 1,64,-1
 913 941 l 1,65,66
 1158 780 1158 780 1158 593 c 0,67,68
 1158 503 1158 503 1094 435 c 1,69,-1
 974 335 l 2,70,71
 910 281 910 281 910 222 c 0,72,73
 910 166 910 166 965 149 c 1,74,-1
 1055 203 l 2,75,76
 1113 238 1113 238 1164 238 c 0,77,78
 1207 238 1207 238 1267 190 c 1,79,80
 1297 160 1297 160 1302 141 c 0,81,82
 1302 133 1302 133 1232 107 c 0,83,84
 1153 77 1153 77 1125 46 c 0,85,86
 1071 -15 1071 -15 1071 -85 c 1,87,88
 1076 -123 1076 -123 1079 -127 c 0,89,90
 1092 -145 1092 -145 1127 -145 c 0,91,92
 1161 -145 1161 -145 1212 -123 c 0,93,94
 1237 -112 1237 -112 1318 -47 c 0,95,96
 1361 -12 1361 -12 1398 -12 c 0,97,98
 1432 -12 1432 -12 1459 -41 c 0,99,100
 1501 -85 1501 -85 1501 -99 c 256,101,102
 1501 -113 1501 -113 1481 -140 c 0,0,1
EndSplineSet
Validated: 33
Substitution2: "'aalt' Access All Alternates lookup 1 subtable" uni0963
EndChar

StartChar: uni0962
Encoding: 160 2402 158
Width: 0
GlyphClass: 4
Flags: W
AnchorPoint: "Anchor-6" -598 39 mark 0
LayerCount: 2
Fore
SplineSet
-345 104 m 1,0,1
 -241 73 -241 73 -173 -4 c 0,2,3
 -99 -87 -99 -87 -99 -191 c 0,4,5
 -99 -254 -99 -254 -128 -296 c 0,6,7
 -146 -322 -146 -322 -201 -362 c 0,8,9
 -260 -404 -260 -404 -282 -432 c 0,10,11
 -323 -484 -323 -484 -323 -540 c 0,12,13
 -323 -598 -323 -598 -268 -598 c 0,14,15
 -196 -598 -196 -598 -93 -514 c 1,16,-1
 -64 -495 l 2,17,18
 -54 -490 -54 -490 -37 -486 c 1,19,20
 -15 -486 -15 -486 18 -511 c 0,21,22
 62 -545 62 -545 62 -568 c 0,23,24
 62 -584 62 -584 35 -611 c 0,25,26
 -59 -705 -59 -705 -174 -705 c 0,27,28
 -263 -705 -263 -705 -359 -630 c 0,29,30
 -461 -550 -461 -550 -461 -464 c 1,31,32
 -454 -392 -454 -392 -407 -349 c 1,33,-1
 -311 -280 l 2,34,35
 -197 -198 -197 -198 -197 -101 c 0,36,37
 -197 -61 -197 -61 -234 -34 c 0,38,39
 -267 -9 -267 -9 -309 -9 c 0,40,41
 -420 -9 -420 -9 -519 -184 c 0,42,43
 -537 -215 -537 -215 -546 -217 c 1,44,-1
 -569 -202 l 1,45,-1
 -617 -159 l 2,46,47
 -640 -138 -640 -138 -640 -99 c 0,48,49
 -640 -84 -640 -84 -631 -64.5 c 128,-1,50
 -622 -45 -622 -45 -622 -40 c 0,51,52
 -622 -7 -622 -7 -714 -5 c 0,53,54
 -792 -3 -792 -3 -843.5 -50.5 c 128,-1,55
 -895 -98 -895 -98 -895 -175 c 0,56,57
 -895 -263 -895 -263 -808 -331 c 0,58,59
 -795 -344 -795 -344 -689 -388 c 0,60,61
 -656 -402 -656 -402 -640 -427 c 1,62,-1
 -627 -461 l 1,63,64
 -627 -480 -627 -480 -649 -480 c 1,65,-1
 -676 -474 l 1,66,67
 -759 -437 -759 -437 -816 -399 c 0,68,69
 -919 -330 -919 -330 -965 -275 c 0,70,71
 -1033 -195 -1033 -195 -1033 -99 c 0,72,73
 -1033 -8 -1033 -8 -969 49.5 c 128,-1,74
 -905 107 -905 107 -813 107 c 0,75,76
 -727 107 -727 107 -662 62 c 2,77,-1
 -584 8 l 1,78,79
 -543 55 -543 55 -483 84 c 1,80,-1
 -432 100 l 1,81,-1
 -345 104 l 1,0,1
EndSplineSet
Validated: 33
Ligature2: "vowels" uni093D uni200D uni0962
Substitution2: "Single Substitution lookup 32 subtable" glyph577a
PairPos2: "'blwm' Below Base Mark in Devanagari lookup 8 subtable" uni0952 dx=0 dy=0 dh=0 dv=0 dx=0 dy=-506 dh=0 dv=0
EndChar

StartChar: uni0963
Encoding: 161 2403 159
Width: 0
GlyphClass: 4
Flags: W
AnchorPoint: "Anchor-6" -611 78 mark 0
LayerCount: 2
Fore
SplineSet
157 -766 m 0,0,1
 75 -876 75 -876 -44 -876 c 0,2,3
 -133 -876 -133 -876 -225 -803 c 0,4,5
 -323 -725 -323 -725 -323 -639 c 0,6,7
 -323 -626 -323 -626 -314.5 -602 c 128,-1,8
 -306 -578 -306 -578 -306 -566 c 1,9,10
 -458 -522 -458 -522 -458 -404 c 0,11,12
 -458 -330 -458 -330 -382 -271 c 0,13,14
 -215 -140 -215 -140 -215 -62 c 0,15,16
 -215 36 -215 36 -322 36 c 0,17,18
 -392 36 -392 36 -449 -21 c 0,19,20
 -486 -58 -486 -58 -528 -134 c 2,21,-1
 -538 -152 l 2,22,23
 -546 -161 -546 -161 -555 -161 c 0,24,25
 -574 -161 -574 -161 -620 -117 c 0,26,27
 -656 -82 -656 -82 -656 -68 c 0,28,29
 -656 -58 -656 -58 -641 -29 c 0,30,31
 -631 -10 -631 -10 -631 0 c 0,32,33
 -631 36 -631 36 -727 36 c 0,34,35
 -802 36 -802 36 -849 -11.5 c 128,-1,36
 -896 -59 -896 -59 -896 -134 c 0,37,38
 -896 -213 -896 -213 -826 -269 c 1,39,-1
 -645 -376 l 1,40,41
 -630 -401 -630 -401 -630 -416 c 0,42,43
 -629 -433 -629 -433 -650 -433 c 0,44,45
 -672 -433 -672 -433 -712 -413 c 0,46,47
 -1034 -253 -1034 -253 -1034 -43 c 0,48,49
 -1034 41 -1034 41 -969 95 c 0,50,51
 -908 147 -908 147 -823 147 c 0,52,53
 -697 147 -697 147 -591 56 c 1,54,55
 -543 107 -543 107 -453 146 c 1,56,-1
 -390 155 l 1,57,-1
 -323 147 l 1,58,59
 -116 13 -116 13 -116 -147 c 0,60,61
 -116 -224 -116 -224 -170 -281 c 1,62,-1
 -272 -365 l 2,63,64
 -326 -410 -326 -410 -326 -461 c 0,65,66
 -326 -507 -326 -507 -278 -521 c 1,67,-1
 -202 -477 l 2,68,69
 -150 -447 -150 -447 -111 -447 c 0,70,71
 -74 -447 -74 -447 -24 -487 c 0,72,73
 2 -512 2 -512 5 -529 c 0,74,75
 5 -538 5 -538 -51 -557 c 0,76,77
 -118 -580 -118 -580 -145 -610 c 0,78,79
 -190 -660 -190 -660 -190 -720 c 1,80,81
 -185 -752 -185 -752 -182 -755 c 0,82,83
 -171 -771 -171 -771 -142 -771 c 256,84,85
 -113 -771 -113 -771 -71 -752 c 0,86,87
 -51 -743 -51 -743 19 -687 c 0,88,89
 55 -658 55 -658 87 -658 c 0,90,91
 115 -658 115 -658 138 -682 c 0,92,93
 174 -720 174 -720 174 -732 c 0,94,95
 174 -743 174 -743 157 -766 c 0,0,1
EndSplineSet
Validated: 1
Ligature2: "vowels" uni093D uni200D uni0963
Substitution2: "Single Substitution lookup 32 subtable" glyph578a
PairPos2: "'blwm' Below Base Mark in Devanagari lookup 8 subtable" uni0952 dx=0 dy=0 dh=0 dv=0 dx=0 dy=-621 dh=0 dv=0
EndChar

StartChar: uni0964
Encoding: 162 2404 160
Width: 960
GlyphClass: 2
Flags: W
LayerCount: 2
Fore
SplineSet
688 -3 m 1,0,-1
 512 184 l 1,1,-1
 512 1397 l 1,2,-1
 688 1231 l 1,3,-1
 688 -3 l 1,0,-1
EndSplineSet
Validated: 1
EndChar

StartChar: uni0965
Encoding: 163 2405 161
Width: 1530
GlyphClass: 2
Flags: W
LayerCount: 2
Fore
SplineSet
1132 -5 m 1,0,-1
 946 182 l 1,1,-1
 946 1397 l 1,2,-1
 1132 1229 l 1,3,-1
 1132 -5 l 1,0,-1
690 -5 m 1,4,-1
 512 182 l 1,5,-1
 512 1397 l 1,6,-1
 690 1229 l 1,7,-1
 690 -5 l 1,4,-1
EndSplineSet
Validated: 1
EndChar

StartChar: uni0966
Encoding: 164 2406 162
Width: 1000
GlyphClass: 2
Flags: W
LayerCount: 2
Fore
SplineSet
783 455 m 0,0,1
 723 387 723 387 673 368 c 0,2,3
 639 356 639 356 559 356 c 0,4,5
 400 356 400 356 271 474 c 0,6,7
 130 603 130 603 130 775 c 0,8,9
 130 882 130 882 201 966 c 0,10,11
 288 1068 288 1068 428 1068 c 0,12,13
 587 1068 587 1068 720 951 c 0,14,15
 826 858 826 858 860 739 c 0,16,17
 870 704 870 704 870 665 c 0,18,19
 870 554 870 554 783 455 c 0,0,1
647 891 m 1,20,-1
 598 918 l 2,21,22
 573 928 573 928 550 928 c 0,23,24
 504 928 504 928 425 879 c 0,25,26
 308 807 308 807 308 649 c 0,27,28
 308 557 308 557 372 510 c 0,29,30
 399 490 399 490 436 490 c 0,31,32
 577 490 577 490 668 662 c 0,33,34
 702 727 702 727 702 784 c 0,35,36
 702 854 702 854 647 891 c 1,20,-1
EndSplineSet
Validated: 1
EndChar

StartChar: uni0967
Encoding: 165 2407 163
Width: 1000
GlyphClass: 2
Flags: W
LayerCount: 2
Fore
SplineSet
730 42 m 0,0,1
 742 10 742 10 745 -16 c 0,2,3
 745 -73 745 -73 674 -73 c 0,4,5
 593 -73 593 -73 539 -26 c 1,6,-1
 480 14 l 2,7,8
 443 39 443 39 443 75 c 0,9,10
 443 110 443 110 486 123 c 2,11,-1
 530 136 l 1,12,-1
 527 141 l 1,13,14
 527 181 527 181 395.5 340.5 c 128,-1,15
 264 500 264 500 264 535 c 1,16,17
 268 552 268 552 355 623 c 0,18,19
 447 699 447 699 467 739 c 1,20,-1
 315 853 l 1,21,22
 246 922 246 922 246 1012 c 0,23,24
 246 1117 246 1117 303 1187 c 0,25,26
 364 1263 364 1263 467 1263 c 0,27,28
 569 1263 569 1263 657 1168 c 0,29,30
 753 1065 753 1065 753 927 c 0,31,32
 753 862 753 862 730 798 c 0,33,34
 715 756 715 756 621 659 c 1,35,36
 564 608 564 608 507 557 c 0,37,38
 432 485 432 485 432 439 c 0,39,40
 432 397 432 397 467 360 c 2,41,-1
 616 202 l 2,42,43
 687 126 687 126 730 42 c 0,0,1
620 1083 m 0,44,45
 592 1133 592 1133 545 1133 c 0,46,47
 512 1133 512 1133 467 1098 c 0,48,49
 397 1044 397 1044 397 965 c 0,50,51
 397 940 397 940 400 931 c 0,52,53
 409 887 409 887 441 841 c 0,54,55
 478 788 478 788 518 788 c 0,56,57
 527 788 527 788 539 798 c 0,58,59
 637 921 637 921 637 1015 c 0,60,61
 637 1052 637 1052 620 1083 c 0,44,45
EndSplineSet
Validated: 1
EndChar

StartChar: uni0968
Encoding: 166 2408 164
Width: 1000
GlyphClass: 2
Flags: W
LayerCount: 2
Fore
SplineSet
929 -2 m 1,0,1
 929 -48 929 -48 852 -48 c 0,2,3
 787 -48 787 -48 761 -2 c 0,4,5
 719 71 719 71 582 289 c 0,6,7
 559 326 559 326 532 372 c 0,8,9
 523 387 523 387 485 458 c 0,10,11
 476 474 476 474 458 488 c 2,12,-1
 426 512 l 1,13,-1
 393 510 l 2,14,15
 295 504 295 504 228 566.5 c 128,-1,16
 161 629 161 629 164 727 c 2,17,-1
 165 763 l 1,18,19
 176 844 176 844 276 844 c 0,20,21
 331 844 331 844 359 805 c 0,22,23
 425 715 425 715 470 715 c 0,24,25
 538 715 538 715 639 925 c 0,26,27
 655 958 655 958 655 1004 c 0,28,29
 655 1091 655 1091 618 1122 c 0,30,31
 593 1143 593 1143 537 1143 c 0,32,33
 480 1143 480 1143 395 1122 c 1,34,-1
 289 1083 l 2,35,36
 251 1069 251 1069 208 1069 c 0,37,38
 181 1069 181 1069 143 1119 c 2,39,-1
 86 1194 l 2,40,41
 71 1214 71 1214 71 1225 c 0,42,43
 71 1264 71 1264 165 1282 c 0,44,45
 273 1303 273 1303 369 1303 c 0,46,47
 493 1303 493 1303 566 1270 c 0,48,49
 645 1235 645 1235 718 1141 c 0,50,51
 814 1017 814 1017 807 901 c 2,52,-1
 805 868 l 2,53,54
 799 766 799 766 719 686 c 0,55,56
 695 662 695 662 542 544 c 1,57,58
 580 445 580 445 660 359 c 2,59,-1
 812 196 l 2,60,61
 891 111 891 111 929 -2 c 1,0,1
EndSplineSet
Validated: 33
EndChar

StartChar: uni0969
Encoding: 167 2409 165
Width: 1000
GlyphClass: 2
Flags: W
LayerCount: 2
Fore
SplineSet
930 16 m 1,0,-1
 937 -15 l 1,1,2
 937 -73 937 -73 875 -73 c 0,3,4
 822 -73 822 -73 751 12 c 0,5,6
 741 24 741 24 660 138 c 0,7,8
 552 290 552 290 521 318 c 1,9,-1
 478 315 l 2,10,11
 375 308 375 308 295 372 c 0,12,13
 212 439 212 439 212 541 c 1,14,-1
 216 579 l 2,15,16
 220 618 220 618 270 640 c 0,17,18
 295 651 295 651 317 651 c 0,19,20
 346 651 346 651 370 637 c 1,21,22
 397 627 397 627 416 597 c 1,23,24
 463 541 463 541 509 541 c 0,25,26
 569 541 569 541 608 640 c 1,27,-1
 615 683 l 1,28,29
 615 717 615 717 601 745 c 1,30,31
 592 772 592 772 569 800 c 0,32,33
 559 812 559 812 539 813 c 1,34,-1
 512 808 l 1,35,-1
 471 798 l 1,36,-1
 375 781 l 1,37,38
 337 781 337 781 311 813 c 2,39,-1
 257 879 l 2,40,41
 236 905 236 905 236 923 c 0,42,43
 236 943 236 943 276 949 c 0,44,45
 299 952 299 952 322 951 c 2,46,-1
 356 949 l 2,47,48
 513 940 513 940 570 1075 c 0,49,50
 579 1096 579 1096 579 1120 c 0,51,52
 579 1210 579 1210 457 1210 c 0,53,54
 396 1210 396 1210 341 1186 c 2,55,-1
 265 1153 l 2,56,57
 238 1141 238 1141 181 1129 c 1,58,59
 151 1144 151 1144 102 1211 c 2,60,-1
 63 1264 l 1,61,-1
 78 1287 l 1,62,63
 92 1300 92 1300 128 1316 c 1,64,65
 257 1357 257 1357 346 1357 c 0,66,67
 450 1357 450 1357 539 1297 c 0,68,69
 723 1173 723 1173 723 1023 c 0,70,71
 723 937 723 937 656 880 c 1,72,-1
 629 863 l 1,73,-1
 623 853 l 1,74,75
 623 843 623 843 639 827 c 0,76,77
 757 709 757 709 757 580 c 0,78,79
 757 482 757 482 670 402 c 1,80,-1
 635 376 l 2,81,82
 620 365 620 365 620 354 c 0,83,84
 620 344 620 344 627 332 c 2,85,-1
 656 297 l 1,86,-1
 822 136 l 2,87,88
 918 43 918 43 930 16 c 1,0,-1
EndSplineSet
Validated: 33
EndChar

StartChar: uni096A
Encoding: 168 2410 166
Width: 1000
GlyphClass: 2
Flags: W
LayerCount: 2
Fore
SplineSet
848 717 m 1,0,-1
 656 564 l 1,1,-1
 645 548 l 2,2,3
 640 544 640 544 636 536 c 1,4,5
 636 524 636 524 670 504 c 0,6,7
 742 462 742 462 788 383.5 c 128,-1,8
 834 305 834 305 834 223 c 0,9,10
 834 127 834 127 759 55 c 128,-1,11
 684 -17 684 -17 587 -17 c 0,12,13
 515 -17 515 -17 410 47 c 0,14,15
 336 92 336 92 287.5 173 c 128,-1,16
 239 254 239 254 239 338 c 0,17,18
 239 491 239 491 393 587 c 1,19,20
 363 619 363 619 299 667 c 0,21,22
 231 719 231 719 204 746 c 0,23,24
 43 907 43 907 43 1055 c 0,25,26
 43 1175 43 1175 144 1266 c 0,27,28
 158 1278 158 1278 186 1291 c 1,29,-1
 253 1298 l 1,30,31
 284 1294 284 1294 317.5 1263.5 c 128,-1,32
 351 1233 351 1233 354 1203 c 2,33,-1
 357 1173 l 2,34,35
 357 1153 357 1153 352 1145 c 2,36,-1
 294 1102 l 2,37,38
 211 1040 211 1040 211 954 c 0,39,40
 211 788 211 788 469 638 c 1,41,42
 822 866 822 866 822 1039 c 0,43,44
 822 1092 822 1092 785 1153 c 1,45,-1
 774 1168 l 2,46,47
 764 1182 764 1182 749 1187 c 0,48,49
 707 1202 707 1202 707 1256 c 1,50,-1
 711 1277 l 2,51,52
 715 1298 715 1298 739 1300 c 1,53,-1
 760 1295 l 2,54,55
 774 1290 774 1290 788 1277 c 0,56,57
 956 1127 956 1127 956 970 c 0,58,59
 956 831 956 831 848 717 c 1,0,-1
670 324 m 0,60,61
 670 425 670 425 559 479 c 1,62,63
 512 457 512 457 456 400 c 0,64,65
 412 355 412 355 396 299 c 1,66,-1
 391 246 l 1,67,68
 391 131 391 131 488 131 c 1,69,-1
 507 128 l 1,70,71
 569 128 569 128 621 196 c 0,72,73
 670 260 670 260 670 324 c 0,60,61
EndSplineSet
Validated: 1
EndChar

StartChar: uni096B
Encoding: 169 2411 167
Width: 1000
GlyphClass: 2
Flags: W
LayerCount: 2
Fore
SplineSet
900 -43 m 0,0,1
 879 -43 879 -43 871 -34 c 0,2,3
 846 -15 846 -15 827 63 c 2,4,-1
 801 167 l 1,5,6
 781 219 781 219 725 354 c 2,7,-1
 630 570 l 1,8,-1
 614 577 l 1,9,-1
 576 565 l 2,10,11
 544 555 544 555 503 555 c 0,12,13
 370 555 370 555 248 628 c 0,14,15
 49 747 49 747 49 934 c 2,16,-1
 49 974 l 2,17,18
 52 983 52 983 56 1004 c 2,19,-1
 64 1059 l 1,20,-1
 68 1096 l 1,21,22
 68 1143 68 1143 43 1210 c 0,23,24
 40 1218 40 1218 21 1255 c 1,25,26
 21 1299 21 1299 44 1300 c 0,27,28
 76 1301 76 1301 116 1279 c 2,29,-1
 189 1239 l 1,30,31
 297 1193 297 1193 297 1127 c 0,32,33
 297 1104 297 1104 290 1083 c 2,34,-1
 269 1021 l 2,35,36
 262 999 262 999 246.5 944 c 128,-1,37
 231 889 231 889 231 836 c 0,38,39
 231 691 231 691 389 697 c 0,40,41
 538 702 538 702 538 823 c 0,42,43
 538 855 538 855 534 867 c 1,44,45
 534 1009 534 1009 673 1026 c 1,46,47
 742 1006 742 1006 787 948 c 128,-1,48
 832 890 832 890 832 818 c 0,49,50
 832 722 832 722 749 648 c 1,51,-1
 730 638 l 2,52,53
 718 633 718 633 716 624 c 0,54,55
 716 619 716 619 798 465 c 2,56,-1
 858 352 l 1,57,-1
 945 213 l 1,58,59
 978 139 978 139 978 77 c 0,60,61
 978 46 978 46 967.5 5 c 128,-1,62
 957 -36 957 -36 900 -43 c 0,0,1
EndSplineSet
Validated: 33
EndChar

StartChar: uni096C
Encoding: 170 2412 168
Width: 1000
GlyphClass: 2
Flags: W
LayerCount: 2
Fore
SplineSet
846 -2 m 2,0,1
 856 -19 856 -19 856 -36 c 0,2,3
 856 -89 856 -89 791 -96 c 1,4,5
 748 -96 748 -96 713 -51 c 0,6,7
 689 -20 689 -20 654 77 c 0,8,9
 573 304 573 304 545 344 c 1,10,11
 443 344 443 344 393 368 c 0,12,13
 324 401 324 401 230 513 c 0,14,15
 158 599 158 599 158 684 c 0,16,17
 158 791 158 791 266 888 c 1,18,19
 205 957 205 957 179 1001 c 0,20,21
 143 1060 143 1060 143 1114 c 0,22,23
 143 1161 143 1161 172 1204 c 0,24,25
 256 1327 256 1327 441 1319 c 2,26,-1
 485 1317 l 2,27,28
 596 1312 596 1312 630 1292 c 0,29,30
 652 1279 652 1279 670 1233 c 2,31,-1
 688 1186 l 1,32,-1
 700 1143 l 1,33,34
 700 1117 700 1117 676 1105 c 1,35,36
 660 1108 660 1108 591 1133 c 0,37,38
 509 1162 509 1162 463 1162 c 0,39,40
 423 1162 423 1162 394 1148 c 0,41,42
 290 1112 290 1112 290 1011 c 0,43,44
 290 959 290 959 329 922 c 1,45,46
 357 933 357 933 429 951 c 1,47,-1
 529 958 l 2,48,49
 576 961 576 961 593 919 c 1,50,-1
 618 876 l 2,51,52
 634 854 634 854 637 833 c 1,53,-1
 632 813 l 1,54,55
 622 793 622 793 589 795 c 2,56,-1
 523 799 l 2,57,58
 436 804 436 804 365 748 c 0,59,60
 292 689 292 689 292 602 c 0,61,62
 292 569 292 569 305 537 c 0,63,64
 314 515 314 515 352 500 c 0,65,66
 384 487 384 487 413 487 c 0,67,68
 459 487 459 487 495 513 c 1,69,-1
 504 530 l 1,70,-1
 505 575 l 1,71,72
 515 655 515 655 632 655 c 0,73,74
 684 655 684 655 725 600 c 0,75,76
 764 549 764 549 764 496 c 0,77,78
 764 433 764 433 697 392 c 2,79,-1
 663 371 l 2,80,81
 647 361 647 361 647 344 c 1,82,-1
 658 311 l 1,83,-1
 846 -2 l 2,0,1
EndSplineSet
Validated: 33
EndChar

